{
.appVersion = "1141";
DisplayStrings = (
"0A0B0C0D0E0F0G0H0I0J0K0L0M0N0O0P0Q0R0S0T0U0V0W0X0Y0Z0\0120a0b0c0d0e0f0g0h0i0j0k0l0m0n0o0p0q0r0s0t0u0v0w0x0y0z0\012\0121A1B1C1D1E1F1G1H1I1J1K1L1M1N1O1P1Q1R1S1T1U1V1W1X1Y1Z1\0121a1b1c1d1e1f1g1h1i1j1k1l1m1n1o1p1q1r1s1t1u1v1w1x1y1z1\012\0122A2B2C2D2E2F2G2H2I2J2K2L2M2N2O2P2Q2R2S2T2U2V2W2X2Y2Z2\0122a2b2c2d2e2f2g2h2i2j2k2l2m2n2o2p2q2r2s2t2u2v2w2x2y2z2\012\0123A3B3C3D3E3F3G3H3I3J3K3L3M3N3O3P3Q3R3S3T3U3V3W3X3Y3Z3\0123a3b3c3d3e3f3g3h3i3j3k3l3m3n3o3p3q3r3s3t3u3v3w3x3y3z3\012\0124A4B4C4D4E4F4G4H4I4J4K4L4M4N4O4P4Q4R4S4T4U4V4W4X4Y4Z4\0124a4b4c4d4e4f4g4h4i4j4k4l4m4n4o4p4q4r4s4t4u4v4w4x4y4z4\012\0125A5B5C5D5E5F5G5H5I5J5K5L5M5N5O5P5Q5R5S5T5U5V5W5X5Y5Z5\0125a5b5c5d5e5f5g5h5i5j5k5l5m5n5o5p5q5r5s5t5u5v5w5x5y5z5\012\0126A6B6C6D6E6F6G6H6I6J6K6L6M6N6O6P6Q6R6S6T6U6V6W6X6Y6Z6\0126a6b6c6d6e6f6g6h6i6j6k6l6m6n6o6p6q6r6s6t6u6v6w6x6y6z6\012\0127A7B7C7D7E7F7G7H7I7J7K7L7M7N7O7P7Q7R7S7T7U7V7W7X7Y7Z7\0127a7b7c7d7e7f7g7h7i7j7k7l7m7n7o7p7q7r7s7t7u7v7w7x7y7z7\012\0128A8B8C8D8E8F8G8H8I8J8K8L8M8N8O8P8Q8R8S8T8U8V8W8X8Y8Z8\0128a8b8c8d8e8f8g8h8i8j8k8l8m8n8o8p8q8r8s8t8u8v8w8x8y8z8\012\0129A9B9C9D9E9F9G9H9I9J9K9L9M9N9O9P9Q9R9S9T9U9V9W9X9Y9Z9\0129a9b9c9d9e9f9g9h9i9j9k9l9m9n9o9p9q9r9s9t9u9v9w9x9y9z9"
);
copyright = "Copyright © 2018 by Cadson Demak Co.,Ltd.. All rights reserved.";
customParameters = (
{
name = vendorID;
value = CDK;
},
{
name = description;
value = "Copyright (c) 2018, Cadson Demak (info@cadsondemak.com)";
},
{
name = license;

glyphs = (
{
glyphname = A;
lastChange = "2018-07-04 16:46:49 +0000";
layers = (
{
anchors = (
{
name = bottom;
position = "{189, 0}";
},
{
name = ogonek;
position = "{374, 8}";
},
{
name = top;
position = "{329, 560}";
}
);
background = {
anchors = (
{
name = bottom;
position = "{189, 0}";
},
{
name = ogonek;
position = "{374, 8}";
},
{
name = top;
position = "{329, 560}";
}
);
paths = (
{
closed = 1;
nodes = (
"381 -8 OFFCURVE",
"430 28 OFFCURVE",
"452 66 CURVE SMOOTH",
"457 76 OFFCURVE",
"459 83 OFFCURVE",
"459 88 CURVE SMOOTH",
"459 93 OFFCURVE",
"458 97 OFFCURVE",
"454 97 CURVE SMOOTH",
"444 97 OFFCURVE",
"422 71 OFFCURVE",
"397 71 CURVE SMOOTH",
"383 71 OFFCURVE",
"377 78 OFFCURVE",
"374 98 CURVE SMOOTH",
"370 126 OFFCURVE",
"364 175 OFFCURVE",
"364 262 CURVE SMOOTH",
"364 400 OFFCURVE",
"380 506 OFFCURVE",
"410 559 CURVE",
"410 560 LINE",
"396 555 OFFCURVE",
"378 551 OFFCURVE",
"354 551 CURVE SMOOTH",
"306 551 OFFCURVE",
"262 568 OFFCURVE",
"214 568 CURVE SMOOTH",
"127 568 OFFCURVE",
"64 519 OFFCURVE",
"48 457 CURVE SMOOTH",
"47 453 OFFCURVE",
"45 446 OFFCURVE",
"45 438 CURVE SMOOTH",
"45 431 OFFCURVE",
"48 428 OFFCURVE",
"52 428 CURVE SMOOTH",
"59 428 OFFCURVE",
"62 434 OFFCURVE",
"69 444 CURVE SMOOTH",
"95 486 OFFCURVE",
"138 509 OFFCURVE",
"190 509 CURVE SMOOTH",
"222 509 OFFCURVE",
"246 501 OFFCURVE",
"265 501 CURVE",
"265 500 LINE",
"198 446 OFFCURVE",
"169 362 OFFCURVE",
"133 257 CURVE SMOOTH",
"94 145 OFFCURVE",
"71 83 OFFCURVE",
"6 60 CURVE SMOOTH",
"-5 57 OFFCURVE",
"-14 54 OFFCURVE",
"-18 52 CURVE SMOOTH",
"-32 45 OFFCURVE",
"-42 17 OFFCURVE",
"-42 8 CURVE SMOOTH",
"-42 3 OFFCURVE",
"-39 0 OFFCURVE",
"-35 0 CURVE SMOOTH",
"-27 0 OFFCURVE",
"-6 13 OFFCURVE",
"14 13 CURVE SMOOTH",
"34 13 OFFCURVE",
"67 0 OFFCURVE",
"86 0 CURVE SMOOTH",
"106 0 OFFCURVE",
"129 12 OFFCURVE",
"147 40 CURVE SMOOTH",
"153 49 OFFCURVE",
"155 56 OFFCURVE",
"155 62 CURVE SMOOTH",
"155 66 OFFCURVE",
"154 69 OFFCURVE",
"150 69 CURVE SMOOTH",
"144 69 OFFCURVE",
"131 61 OFFCURVE",
"115 61 CURVE SMOOTH",
"106 61 OFFCURVE",
"97 64 OFFCURVE",
"91 66 CURVE",
"91 67 LINE",
"128 87 OFFCURVE",
"161 130 OFFCURVE",
"179 181 CURVE",
"263 181 LINE",
"279 189 LINE",
"280 148 OFFCURVE",
"281 90 OFFCURVE",
"290 48 CURVE SMOOTH",
"298 10 OFFCURVE",
"312 -8 OFFCURVE",
"340 -8 CURVE SMOOTH"
);
},
{
closed = 1;
nodes = (
"207 277 LINE SMOOTH",
"231 375 OFFCURVE",
"262 441 OFFCURVE",
"308 478 CURVE",
"309 478 LINE",
"290 410 OFFCURVE",
"282 345 OFFCURVE",
"279 248 CURVE",
"200 248 LINE"
);
}
);
};
layerId = "56450C88-1299-454A-B666-E6F9AF06B23F";
paths = (
{
closed = 1;
nodes = (
"381 -8 OFFCURVE",
"430 28 OFFCURVE",
"452 66 CURVE SMOOTH",
"457 76 OFFCURVE",
"459 83 OFFCURVE",
"459 88 CURVE SMOOTH",
"459 93 OFFCURVE",
"458 97 OFFCURVE",
"454 97 CURVE SMOOTH",
"444 97 OFFCURVE",
"422 71 OFFCURVE",
"397 71 CURVE SMOOTH",
"383 71 OFFCURVE",
"377 78 OFFCURVE",
"374 98 CURVE SMOOTH",
"370 126 OFFCURVE",
"364 175 OFFCURVE",
"364 262 CURVE SMOOTH",
"364 400 OFFCURVE",
"380 506 OFFCURVE",
"410 559 CURVE",
"410 560 LINE",
"396 555 OFFCURVE",
"378 551 OFFCURVE",
"354 551 CURVE SMOOTH",
"306 551 OFFCURVE",
"262 568 OFFCURVE",
"214 568 CURVE SMOOTH",
"127 568 OFFCURVE",
"64 519 OFFCURVE",
"48 457 CURVE SMOOTH",
"47 453 OFFCURVE",
"45 446 OFFCURVE",
"45 438 CURVE SMOOTH",
"45 431 OFFCURVE",
"48 428 OFFCURVE",
"52 428 CURVE SMOOTH",
"59 428 OFFCURVE",
"62 434 OFFCURVE",
"69 444 CURVE SMOOTH",
"95 486 OFFCURVE",
"138 509 OFFCURVE",
"190 509 CURVE SMOOTH",
"222 509 OFFCURVE",
"246 501 OFFCURVE",
"265 501 CURVE",
"265 500 LINE",
"198 446 OFFCURVE",
"169 362 OFFCURVE",
"133 257 CURVE SMOOTH",
"94 145 OFFCURVE",
"71 83 OFFCURVE",
"6 60 CURVE SMOOTH",
"-5 57 OFFCURVE",
"-14 54 OFFCURVE",
"-18 52 CURVE SMOOTH",
"-32 45 OFFCURVE",
"-42 17 OFFCURVE",
"-42 8 CURVE SMOOTH",
"-42 3 OFFCURVE",
"-39 0 OFFCURVE",
"-35 0 CURVE SMOOTH",
"-27 0 OFFCURVE",
"-6 13 OFFCURVE",
"14 13 CURVE SMOOTH",
"34 13 OFFCURVE",
"67 0 OFFCURVE",
"86 0 CURVE SMOOTH",
"106 0 OFFCURVE",
"129 12 OFFCURVE",
"147 40 CURVE SMOOTH",
"153 49 OFFCURVE",
"155 56 OFFCURVE",
"155 62 CURVE SMOOTH",
"155 66 OFFCURVE",
"154 69 OFFCURVE",
"150 69 CURVE SMOOTH",
"144 69 OFFCURVE",
"131 61 OFFCURVE",
"115 61 CURVE SMOOTH",
"106 61 OFFCURVE",
"97 64 OFFCURVE",
"91 66 CURVE",
"91 67 LINE",
"128 87 OFFCURVE",
"161 130 OFFCURVE",
"179 181 CURVE",
"263 181 LINE",
"279 189 LINE",
"280 148 OFFCURVE",
"281 90 OFFCURVE",
"290 48 CURVE SMOOTH",
"298 10 OFFCURVE",
"312 -8 OFFCURVE",
"340 -8 CURVE SMOOTH"
);
},
{
closed = 1;
nodes = (
"207 277 LINE SMOOTH",
"231 375 OFFCURVE",
"262 441 OFFCURVE",
"308 478 CURVE",
"309 478 LINE",
"290 410 OFFCURVE",
"282 345 OFFCURVE",
"279 248 CURVE",
"200 248 LINE"
);
}
);
width = 464;
},
{
anchors = (
{
name = bottom;
position = "{186, 0}";
},
{
name = ogonek;
position = "{382, 13}";
},
{
name = top;
position = "{337, 560}";
}
);
background = {
anchors = (
{
name = bottom;
position = "{186, 0}";
},
{
name = ogonek;
position = "{382, 13}";
},
{
name = top;
position = "{337, 560}";
}
);
paths = (
{
closed = 1;
nodes = (
"375 -8 OFFCURVE",
"414 22 OFFCURVE",
"434 58 CURVE SMOOTH",
"438 65 OFFCURVE",
"439 69 OFFCURVE",
"439 73 CURVE SMOOTH",
"439 76 OFFCURVE",
"437 77 OFFCURVE",
"434 77 CURVE SMOOTH",
"423 77 OFFCURVE",
"398 50 OFFCURVE",
"378 50 CURVE SMOOTH",
"360 50 OFFCURVE",
"355 69 OFFCURVE",
"353 97 CURVE SMOOTH",
"350 124 OFFCURVE",
"348 200 OFFCURVE",
"348 255 CURVE SMOOTH",
"348 412 OFFCURVE",
"367 512 OFFCURVE",
"394 559 CURVE",
"394 560 LINE",
"378 554 OFFCURVE",
"366 551 OFFCURVE",
"350 551 CURVE SMOOTH",
"310 551 OFFCURVE",
"263 568 OFFCURVE",
"218 568 CURVE SMOOTH",
"141 568 OFFCURVE",
"78 524 OFFCURVE",
"62 459 CURVE SMOOTH",
"61 455 OFFCURVE",
"61 452 OFFCURVE",
"61 451 CURVE SMOOTH",
"61 447 OFFCURVE",
"62 444 OFFCURVE",
"66 444 CURVE SMOOTH",
"70 444 OFFCURVE",
"73 448 OFFCURVE",
"79 457 CURVE SMOOTH",
"113 506 OFFCURVE",
"149 526 OFFCURVE",
"207 526 CURVE SMOOTH",
"246 526 OFFCURVE",
"264 519 OFFCURVE",
"286 516 CURVE",
"286 515 LINE",
"217 471 OFFCURVE",
"181 370 OFFCURVE",
"143 262 CURVE SMOOTH",
"110 167 OFFCURVE",
"75 70 OFFCURVE",
"8 44 CURVE SMOOTH",
"-3 40 OFFCURVE",
"-4 42 OFFCURVE",
"-12 38 CURVE SMOOTH",
"-24 32 OFFCURVE",
"-34 14 OFFCURVE",
"-34 4 CURVE SMOOTH",
"-34 1 OFFCURVE",
"-32 0 OFFCURVE",
"-30 0 CURVE SMOOTH",
"-20 0 OFFCURVE",
"-10 13 OFFCURVE",
"11 13 CURVE SMOOTH",
"31 13 OFFCURVE",
"50 0 OFFCURVE",
"70 0 CURVE SMOOTH",
"87 0 OFFCURVE",
"107 9 OFFCURVE",
"125 27 CURVE SMOOTH",
"133 36 OFFCURVE",
"136 41 OFFCURVE",
"136 46 CURVE SMOOTH",
"136 49 OFFCURVE",
"134 50 OFFCURVE",
"131 50 CURVE SMOOTH",
"123 50 OFFCURVE",
"114 42 OFFCURVE",
"94 42 CURVE SMOOTH",
"88 42 OFFCURVE",
"83 43 OFFCURVE",
"74 47 CURVE",
"74 48 LINE",
"112 74 OFFCURVE",
"146 129 OFFCURVE",
"169 190 CURVE",
"268 190 LINE",
"288 206 LINE",
"288 148 OFFCURVE",
"289 86 OFFCURVE",
"295 47 CURVE SMOOTH",
"300 18 OFFCURVE",
"311 -8 OFFCURVE",
"342 -8 CURVE SMOOTH"
);
},
{
closed = 1;
nodes = (
"193 266 LINE SMOOTH",
"242 413 OFFCURVE",
"278 485 OFFCURVE",
"321 504 CURVE",
"322 504 LINE",
"303 443 OFFCURVE",
"290 337 OFFCURVE",
"289 239 CURVE",
"184 239 LINE"
);
}
);
};
layerId = "0B1DFD06-3317-40CA-B510-4969A0718C16";
paths = (
{
closed = 1;
nodes = (
"375 -8 OFFCURVE",
"414 22 OFFCURVE",
"434 58 CURVE SMOOTH",
"438 65 OFFCURVE",
"439 69 OFFCURVE",
"439 73 CURVE SMOOTH",
"439 76 OFFCURVE",
"437 77 OFFCURVE",
"434 77 CURVE SMOOTH",
"423 77 OFFCURVE",
"398 50 OFFCURVE",
"378 50 CURVE SMOOTH",
"360 50 OFFCURVE",
"355 69 OFFCURVE",
"353 97 CURVE SMOOTH",
"350 124 OFFCURVE",
"348 200 OFFCURVE",
"348 255 CURVE SMOOTH",
"348 412 OFFCURVE",
"367 512 OFFCURVE",
"394 559 CURVE",
"394 560 LINE",
"378 554 OFFCURVE",
"366 551 OFFCURVE",
"350 551 CURVE SMOOTH",
"310 551 OFFCURVE",
"263 568 OFFCURVE",
"218 568 CURVE SMOOTH",
"141 568 OFFCURVE",
"78 524 OFFCURVE",
"62 459 CURVE SMOOTH",
"61 455 OFFCURVE",
"61 452 OFFCURVE",
"61 451 CURVE SMOOTH",
"61 447 OFFCURVE",
"62 444 OFFCURVE",
"66 444 CURVE SMOOTH",
"70 444 OFFCURVE",
"73 448 OFFCURVE",
"79 457 CURVE SMOOTH",
"113 506 OFFCURVE",
"149 526 OFFCURVE",
"207 526 CURVE SMOOTH",
"246 526 OFFCURVE",
"264 519 OFFCURVE",
"286 516 CURVE",
"286 515 LINE",
"217 471 OFFCURVE",
"181 370 OFFCURVE",
"143 262 CURVE SMOOTH",
"110 167 OFFCURVE",
"75 70 OFFCURVE",
"8 44 CURVE SMOOTH",
"-3 40 OFFCURVE",
"-4 42 OFFCURVE",
"-12 38 CURVE SMOOTH",
"-24 32 OFFCURVE",
"-34 14 OFFCURVE",
"-34 4 CURVE SMOOTH",
"-34 1 OFFCURVE",
"-32 0 OFFCURVE",
"-30 0 CURVE SMOOTH",
"-20 0 OFFCURVE",
"-10 13 OFFCURVE",
"11 13 CURVE SMOOTH",
"31 13 OFFCURVE",
"50 0 OFFCURVE",
"70 0 CURVE SMOOTH",
"87 0 OFFCURVE",
"107 9 OFFCURVE",
"125 27 CURVE SMOOTH",
"133 36 OFFCURVE",
"136 41 OFFCURVE",
"136 46 CURVE SMOOTH",
"136 49 OFFCURVE",
"134 50 OFFCURVE",
"131 50 CURVE SMOOTH",
"123 50 OFFCURVE",
"114 42 OFFCURVE",
"94 42 CURVE SMOOTH",
"88 42 OFFCURVE",
"83 43 OFFCURVE",
"74 47 CURVE",
"74 48 LINE",
"112 74 OFFCURVE",
"146 129 OFFCURVE",
"169 190 CURVE",
"268 190 LINE",
"288 206 LINE",
"288 148 OFFCURVE",
"289 86 OFFCURVE",
"295 47 CURVE SMOOTH",
"300 18 OFFCURVE",
"311 -8 OFFCURVE",
"342 -8 CURVE SMOOTH"
);
},
{
closed = 1;
nodes = (
"193 266 LINE SMOOTH",
"242 413 OFFCURVE",
"278 485 OFFCURVE",
"321 504 CURVE",
"322 504 LINE",
"303 443 OFFCURVE",
"290 337 OFFCURVE",
"289 239 CURVE",
"184 239 LINE"
);
}
);
width = 451;
}
);
leftKerningGroup = A;
note = A;
rightKerningGroup = A;
unicode = 0041;
},
{
glyphname = B;
lastChange = "2018-07-04 16:47:35 +0000";
layers = (
{
anchors = (
{
name = bottom;
position = "{217, 0}";
},
{
name = top;
position = "{281, 560}";
}
);
background = {
anchors = (
{
name = bottom;
position = "{217, 0}";
},
{
name = top;
position = "{281, 560}";
}
);
paths = (
{
closed = 1;
nodes = (
"45 0 OFFCURVE",
"67 12 OFFCURVE",
"95 12 CURVE SMOOTH",
"123 12 OFFCURVE",
"179 0 OFFCURVE",
"222 0 CURVE SMOOTH",
"325 0 OFFCURVE",
"436 70 OFFCURVE",
"436 173 CURVE SMOOTH",
"436 227 OFFCURVE",
"405 271 OFFCURVE",
"354 304 CURVE",
"412 339 OFFCURVE",
"445 386 OFFCURVE",
"445 446 CURVE SMOOTH",
"445 526 OFFCURVE",
"384 568 OFFCURVE",
"280 568 CURVE SMOOTH",
"152 568 OFFCURVE",
"61 504 OFFCURVE",
"34 436 CURVE SMOOTH",
"32 431 OFFCURVE",
"30 424 OFFCURVE",
"30 419 CURVE SMOOTH",
"30 413 OFFCURVE",
"33 409 OFFCURVE",
"39 409 CURVE SMOOTH",
"46 409 OFFCURVE",
"52 414 OFFCURVE",
"65 428 CURVE SMOOTH",
"94 458 OFFCURVE",
"146 507 OFFCURVE",
"247 507 CURVE SMOOTH",
"318 507 OFFCURVE",
"350 483 OFFCURVE",
"350 428 CURVE SMOOTH",
"350 374 OFFCURVE",
"319 328 OFFCURVE",
"272 317 CURVE",
"205 317 LINE",
"217 401 LINE SMOOTH",
"224 450 OFFCURVE",
"236 454 OFFCURVE",
"236 466 CURVE SMOOTH",
"236 472 OFFCURVE",
"231 474 OFFCURVE",
"223 474 CURVE SMOOTH",
"184 474 OFFCURVE",
"140 438 OFFCURVE",
"135 407 CURVE SMOOTH",
"90 112 LINE SMOOTH",
"86 86 OFFCURVE",
"79 79 OFFCURVE",
"59 63 CURVE SMOOTH",
"43 50 OFFCURVE",
"26 35 OFFCURVE",
"26 11 CURVE SMOOTH",
"26 4 OFFCURVE",
"28 0 OFFCURVE",
"34 0 CURVE SMOOTH"
);
},
{
closed = 1;
nodes = (
"207 70 OFFCURVE",
"177 74 OFFCURVE",
"162 78 CURVE",
"161 79 LINE",
"169 90 OFFCURVE",
"172 99 OFFCURVE",
"174 116 CURVE SMOOTH",
"194 256 LINE",
"278 256 LINE",
"318 234 OFFCURVE",
"343 201 OFFCURVE",
"343 155 CURVE SMOOTH",
"343 98 OFFCURVE",
"304 70 OFFCURVE",
"232 70 CURVE SMOOTH"
);
}
);
};
layerId = "56450C88-1299-454A-B666-E6F9AF06B23F";
paths = (
{
closed = 1;
nodes = (
"45 0 OFFCURVE",
"67 12 OFFCURVE",
"95 12 CURVE SMOOTH",
"123 12 OFFCURVE",
"179 0 OFFCURVE",
"222 0 CURVE SMOOTH",
"325 0 OFFCURVE",
"436 70 OFFCURVE",
"436 173 CURVE SMOOTH",
"436 227 OFFCURVE",
"405 271 OFFCURVE",
"354 304 CURVE",
"412 339 OFFCURVE",
"445 386 OFFCURVE",
"445 446 CURVE SMOOTH",
"445 526 OFFCURVE",
"384 568 OFFCURVE",
"280 568 CURVE SMOOTH",
"152 568 OFFCURVE",
"61 504 OFFCURVE",
"34 436 CURVE SMOOTH",
"32 431 OFFCURVE",
"30 424 OFFCURVE",
"30 419 CURVE SMOOTH",
"30 413 OFFCURVE",
"33 409 OFFCURVE",
"39 409 CURVE SMOOTH",
"46 409 OFFCURVE",
"52 414 OFFCURVE",
"65 428 CURVE SMOOTH",
"94 458 OFFCURVE",
"146 507 OFFCURVE",
"247 507 CURVE SMOOTH",
"318 507 OFFCURVE",
"350 483 OFFCURVE",
"350 428 CURVE SMOOTH",
"350 374 OFFCURVE",
"319 328 OFFCURVE",
"272 317 CURVE",
"205 317 LINE",
"217 401 LINE SMOOTH",
"224 450 OFFCURVE",
"236 454 OFFCURVE",
"236 466 CURVE SMOOTH",
"236 472 OFFCURVE",
"231 474 OFFCURVE",
"223 474 CURVE SMOOTH",
"184 474 OFFCURVE",
"140 438 OFFCURVE",
"135 407 CURVE SMOOTH",
"90 112 LINE SMOOTH",
"86 86 OFFCURVE",
"79 79 OFFCURVE",
"59 63 CURVE SMOOTH",
"43 50 OFFCURVE",
"26 35 OFFCURVE",
"26 11 CURVE SMOOTH",
"26 4 OFFCURVE",
"28 0 OFFCURVE",
"34 0 CURVE SMOOTH"
);
},
{
closed = 1;
nodes = (
"207 70 OFFCURVE",
"177 74 OFFCURVE",
"162 78 CURVE",
"161 79 LINE",
"169 90 OFFCURVE",
"172 99 OFFCURVE",
"174 116 CURVE SMOOTH",
"194 256 LINE",
"278 256 LINE",
"318 234 OFFCURVE",
"343 201 OFFCURVE",
"343 155 CURVE SMOOTH",
"343 98 OFFCURVE",
"304 70 OFFCURVE",
"232 70 CURVE SMOOTH"
);
}
);
width = 466;
},
{
anchors = (
{
name = bottom;
position = "{197, 0}";
},
{
name = top;
position = "{262, 560}";
}
);
background = {
anchors = (
{
name = bottom;
position = "{196, 0}";
},
{
name = top;
position = "{261, 560}";
}
);
paths = (
{
closed = 1;
nodes = (
"51 0 OFFCURVE",
"59 12 OFFCURVE",
"86 12 CURVE SMOOTH",
"113 12 OFFCURVE",
"154 0 OFFCURVE",
"205 0 CURVE SMOOTH",
"320 0 OFFCURVE",
"405 64 OFFCURVE",
"405 164 CURVE SMOOTH",
"405 222 OFFCURVE",
"376 268 OFFCURVE",
"315 302 CURVE",
"379 336 OFFCURVE",
"418 394 OFFCURVE",
"418 453 CURVE SMOOTH",
"418 526 OFFCURVE",
"356 568 OFFCURVE",
"260 568 CURVE SMOOTH",
"147 568 OFFCURVE",
"61 518 OFFCURVE",
"35 442 CURVE SMOOTH",
"33 435 OFFCURVE",
"33 433 OFFCURVE",
"33 431 CURVE SMOOTH",
"33 427 OFFCURVE",
"35 424 OFFCURVE",
"40 424 CURVE SMOOTH",
"46 424 OFFCURVE",
"51 431 OFFCURVE",
"59 441 CURVE SMOOTH",
"105 500 OFFCURVE",
"166 522 OFFCURVE",
"234 522 CURVE SMOOTH",
"315 522 OFFCURVE",
"359 490 OFFCURVE",
"359 435 CURVE SMOOTH",
"359 383 OFFCURVE",
"320 326 OFFCURVE",
"256 309 CURVE",
"186 309 LINE",
"204 430 LINE SMOOTH",
"210 469 OFFCURVE",
"224 474 OFFCURVE",
"224 481 CURVE SMOOTH",
"224 484 OFFCURVE",
"221 486 OFFCURVE",
"215 486 CURVE SMOOTH",
"190 486 OFFCURVE",
"151 452 OFFCURVE",
"147 426 CURVE SMOOTH",
"98 96 LINE SMOOTH",
"95 77 OFFCURVE",
"89 62 OFFCURVE",
"63 43 CURVE SMOOTH",
"46 31 OFFCURVE",
"34 19 OFFCURVE",
"34 6 CURVE SMOOTH",
"34 2 OFFCURVE",
"36 0 OFFCURVE",
"40 0 CURVE SMOOTH"
);
},
{
closed = 1;
nodes = (
"194 48 OFFCURVE",
"154 50 OFFCURVE",
"133 56 CURVE",
"133 57 LINE",
"146 70 OFFCURVE",
"152 83 OFFCURVE",
"156 110 CURVE SMOOTH",
"180 270 LINE",
"262 270 LINE",
"318 246 OFFCURVE",
"347 203 OFFCURVE",
"347 146 CURVE SMOOTH",
"347 78 OFFCURVE",
"306 48 OFFCURVE",
"218 48 CURVE SMOOTH"
);
}
);
};
layerId = "0B1DFD06-3317-40CA-B510-4969A0718C16";
paths = (
{
closed = 1;
nodes = (
"52 0 OFFCURVE",
"60 12 OFFCURVE",
"87 12 CURVE SMOOTH",
"114 12 OFFCURVE",
"155 0 OFFCURVE",
"206 0 CURVE SMOOTH",
"321 0 OFFCURVE",
"406 64 OFFCURVE",
"406 164 CURVE SMOOTH",
"406 222 OFFCURVE",
"377 268 OFFCURVE",
"316 302 CURVE",
"380 336 OFFCURVE",
"419 394 OFFCURVE",
"419 453 CURVE SMOOTH",
"419 526 OFFCURVE",
"357 568 OFFCURVE",
"261 568 CURVE SMOOTH",
"148 568 OFFCURVE",
"58 519 OFFCURVE",
"36 442 CURVE SMOOTH",
"34 435 OFFCURVE",
"34 433 OFFCURVE",
"34 431 CURVE SMOOTH",
"34 427 OFFCURVE",
"36 424 OFFCURVE",
"41 424 CURVE SMOOTH",
"47 424 OFFCURVE",
"52 431 OFFCURVE",
"60 441 CURVE SMOOTH",
"107 499 OFFCURVE",
"167 522 OFFCURVE",
"235 522 CURVE SMOOTH",
"316 522 OFFCURVE",
"360 490 OFFCURVE",
"360 435 CURVE SMOOTH",
"360 383 OFFCURVE",
"321 326 OFFCURVE",
"257 309 CURVE",
"187 309 LINE",
"205 430 LINE SMOOTH",
"211 469 OFFCURVE",
"225 474 OFFCURVE",
"225 481 CURVE SMOOTH",
"225 484 OFFCURVE",
"222 486 OFFCURVE",
"216 486 CURVE SMOOTH",
"191 486 OFFCURVE",
"152 452 OFFCURVE",
"148 426 CURVE SMOOTH",
"99 96 LINE SMOOTH",
"96 77 OFFCURVE",
"90 62 OFFCURVE",
"64 43 CURVE SMOOTH",
"47 31 OFFCURVE",
"35 19 OFFCURVE",
"35 6 CURVE SMOOTH",
"35 2 OFFCURVE",
"37 0 OFFCURVE",
"41 0 CURVE SMOOTH"
);
},
{
closed = 1;
nodes = (
"195 48 OFFCURVE",
"155 50 OFFCURVE",
"134 56 CURVE",
"134 57 LINE",
"147 70 OFFCURVE",
"153 83 OFFCURVE",
"157 110 CURVE SMOOTH",
"181 270 LINE",
"263 270 LINE",
"319 246 OFFCURVE",
"348 203 OFFCURVE",
"348 146 CURVE SMOOTH",
"348 78 OFFCURVE",
"307 48 OFFCURVE",
"219 48 CURVE SMOOTH"
);
}
);
width = 447;
}
);
note = B;
unicode = 0042;
},
{
glyphname = C;
lastChange = "2018-07-04 10:53:03 +0000";
layers = (
{
anchors = (
{
name = bottom;
position = "{204, 0}";
},
{
name = top;
position = "{356, 560}";
}
);
background = {
anchors = (
{
name = bottom;
position = "{204, 0}";
},
{
name = top;
position = "{356, 560}";
}
);
paths = (
{
closed = 1;
nodes = (
"294 -8 OFFCURVE",
"372 50 OFFCURVE",
"400 145 CURVE SMOOTH",
"408 172 OFFCURVE",
"405 179 OFFCURVE",
"397 179 CURVE SMOOTH",
"390 179 OFFCURVE",
"385 174 OFFCURVE",
"380 165 CURVE SMOOTH",
"357 126 OFFCURVE",
"319 66 OFFCURVE",
"240 66 CURVE SMOOTH",
"167 66 OFFCURVE",
"138 116 OFFCURVE",
"138 222 CURVE SMOOTH",
"138 386 OFFCURVE",
"210 507 OFFCURVE",
"322 507 CURVE SMOOTH",
"359 507 OFFCURVE",
"388 494 OFFCURVE",
"397 458 CURVE SMOOTH",
"401 442 OFFCURVE",
"400 421 OFFCURVE",
"414 421 CURVE SMOOTH",
"426 421 OFFCURVE",
"435 434 OFFCURVE",
"442 446 CURVE SMOOTH",
"452 464 OFFCURVE",
"458 480 OFFCURVE",
"458 497 CURVE SMOOTH",
"458 542 OFFCURVE",
"412 568 OFFCURVE",
"346 568 CURVE SMOOTH",
"186 568 OFFCURVE",
"42 413 OFFCURVE",
"42 198 CURVE SMOOTH",
"42 60 OFFCURVE",
"102 -8 OFFCURVE",
"202 -8 CURVE SMOOTH"
);
}
);
};
layerId = "56450C88-1299-454A-B666-E6F9AF06B23F";
paths = (
{
closed = 1;
nodes = (
"294 -8 OFFCURVE",
"372 50 OFFCURVE",
"400 145 CURVE SMOOTH",
"408 172 OFFCURVE",
"405 179 OFFCURVE",
"397 179 CURVE SMOOTH",
"390 179 OFFCURVE",
"385 174 OFFCURVE",
"380 165 CURVE SMOOTH",
"357 126 OFFCURVE",
"319 66 OFFCURVE",
"240 66 CURVE SMOOTH",
"167 66 OFFCURVE",
"138 116 OFFCURVE",
"138 222 CURVE SMOOTH",
"138 386 OFFCURVE",
"210 507 OFFCURVE",
"322 507 CURVE SMOOTH",
"359 507 OFFCURVE",
"388 494 OFFCURVE",
"397 458 CURVE SMOOTH",
"401 442 OFFCURVE",
"400 421 OFFCURVE",
"414 421 CURVE SMOOTH",
"426 421 OFFCURVE",
"435 434 OFFCURVE",
"442 446 CURVE SMOOTH",
"452 464 OFFCURVE",
"458 480 OFFCURVE",
"458 497 CURVE SMOOTH",
"458 542 OFFCURVE",
"412 568 OFFCURVE",
"346 568 CURVE SMOOTH",
"186 568 OFFCURVE",
"42 413 OFFCURVE",
"42 198 CURVE SMOOTH",
"42 60 OFFCURVE",
"102 -8 OFFCURVE",
"202 -8 CURVE SMOOTH"
);
}
);
width = 450;
},
{
anchors = (
{
name = bottom;
position = "{191, 0}";
},
{
name = top;
position = "{355, 560}";
}
);
background = {
anchors = (
{
name = bottom;
position = "{191, 0}";
},
{
name = top;
position = "{355, 560}";
}
);
paths = (
{
closed = 1;
nodes = (
"283 -8 OFFCURVE",
"362 53 OFFCURVE",
"386 140 CURVE SMOOTH",
"387 143 OFFCURVE",
"393 166 OFFCURVE",
"385 166 CURVE SMOOTH",
"380 166 OFFCURVE",
"376 159 OFFCURVE",
"375 157 CURVE SMOOTH",
"340 86 OFFCURVE",
"286 48 OFFCURVE",
"229 48 CURVE SMOOTH",
"157 48 OFFCURVE",
"118 109 OFFCURVE",
"118 212 CURVE SMOOTH",
"118 336 OFFCURVE",
"174 525 OFFCURVE",
"314 525 CURVE SMOOTH",
"365 525 OFFCURVE",
"390 501 OFFCURVE",
"397 466 CURVE SMOOTH",
"399 453 OFFCURVE",
"399 438 OFFCURVE",
"410 438 CURVE SMOOTH",
"416 438 OFFCURVE",
"420 442 OFFCURVE",
"426 450 CURVE SMOOTH",
"434 462 OFFCURVE",
"444 482 OFFCURVE",
"444 502 CURVE SMOOTH",
"444 550 OFFCURVE",
"386 568 OFFCURVE",
"339 568 CURVE SMOOTH",
"216 568 OFFCURVE",
"50 439 OFFCURVE",
"50 196 CURVE SMOOTH",
"50 59 OFFCURVE",
"104 -8 OFFCURVE",
"196 -8 CURVE SMOOTH"
);
}
);
};
layerId = "0B1DFD06-3317-40CA-B510-4969A0718C16";
paths = (
{
closed = 1;
nodes = (
"283 -8 OFFCURVE",
"362 53 OFFCURVE",
"386 140 CURVE SMOOTH",
"387 143 OFFCURVE",
"393 166 OFFCURVE",
"385 166 CURVE SMOOTH",
"380 166 OFFCURVE",
"376 159 OFFCURVE",
"375 157 CURVE SMOOTH",
"340 86 OFFCURVE",
"286 48 OFFCURVE",
"229 48 CURVE SMOOTH",
"157 48 OFFCURVE",
"118 109 OFFCURVE",
"118 212 CURVE SMOOTH",
"118 336 OFFCURVE",
"174 525 OFFCURVE",
"314 525 CURVE SMOOTH",
"365 525 OFFCURVE",
"390 501 OFFCURVE",
"397 466 CURVE SMOOTH",
"399 453 OFFCURVE",
"399 438 OFFCURVE",
"410 438 CURVE SMOOTH",
"416 438 OFFCURVE",
"420 442 OFFCURVE",
"426 450 CURVE SMOOTH",
"434 462 OFFCURVE",
"444 482 OFFCURVE",
"444 502 CURVE SMOOTH",
"444 550 OFFCURVE",
"386 568 OFFCURVE",
"339 568 CURVE SMOOTH",
"216 568 OFFCURVE",
"50 439 OFFCURVE",
"50 196 CURVE SMOOTH",
"50 59 OFFCURVE",
"104 -8 OFFCURVE",
"196 -8 CURVE SMOOTH"
);
}
);
width = 444;
}
);
leftKerningGroup = C;
note = C;
rightKerningGroup = C;
unicode = 0043;
},
{
glyphname = D;
lastChange = "2018-07-04 16:48:09 +0000";
layers = (
{
anchors = (
{
name = bottom;
position = "{204, 0}";
},
{
name = center;
position = "{222, 280}";
},
{
name = top;
position = "{294, 560}";
}
);
background = {
anchors = (
{
name = bottom;
position = "{204, 0}";
},
{
name = center;
position = "{222, 280}";
},
{
name = top;
position = "{294, 560}";
}
);
paths = (
{
closed = 1;
nodes = (
"42 0 OFFCURVE",
"54 11 OFFCURVE",
"86 11 CURVE SMOOTH",
"118 11 OFFCURVE",
"154 0 OFFCURVE",
"201 0 CURVE SMOOTH",
"378 0 OFFCURVE",
"488 144 OFFCURVE",
"488 324 CURVE SMOOTH",
"488 486 OFFCURVE",
"399 568 OFFCURVE",
"257 568 CURVE SMOOTH",
"146 568 OFFCURVE",
"65 520 OFFCURVE",
"34 448 CURVE SMOOTH",
"31 441 OFFCURVE",
"30 435 OFFCURVE",
"30 431 CURVE SMOOTH",
"30 425 OFFCURVE",
"32 420 OFFCURVE",
"39 420 CURVE SMOOTH",
"50 420 OFFCURVE",
"56 428 OFFCURVE",
"66 439 CURVE SMOOTH",
"106 486 OFFCURVE",
"158 510 OFFCURVE",
"228 510 CURVE SMOOTH",
"340 510 OFFCURVE",
"392 450 OFFCURVE",
"392 318 CURVE SMOOTH",
"392 170 OFFCURVE",
"326 66 OFFCURVE",
"206 66 CURVE SMOOTH",
"191 66 OFFCURVE",
"166 67 OFFCURVE",
"149 70 CURVE",
"149 71 LINE",
"158 83 OFFCURVE",
"160 92 OFFCURVE",
"162 104 CURVE SMOOTH",
"215 400 LINE SMOOTH",
"224 448 OFFCURVE",
"234 454 OFFCURVE",
"234 466 CURVE SMOOTH",
"234 471 OFFCURVE",
"232 474 OFFCURVE",
"222 474 CURVE SMOOTH",
"182 474 OFFCURVE",
"138 437 OFFCURVE",
"133 406 CURVE SMOOTH",
"82 117 LINE SMOOTH",
"74 80 OFFCURVE",
"72 78 OFFCURVE",
"46 57 CURVE SMOOTH",
"26 40 OFFCURVE",
"21 17 OFFCURVE",
"21 9 CURVE SMOOTH",
"21 3 OFFCURVE",
"23 0 OFFCURVE",
"30 0 CURVE SMOOTH"
);
}
);
};
layerId = "56450C88-1299-454A-B666-E6F9AF06B23F";
paths = (
{
closed = 1;
nodes = (
"42 0 OFFCURVE",
"54 11 OFFCURVE",
"86 11 CURVE SMOOTH",
"118 11 OFFCURVE",
"154 0 OFFCURVE",
"201 0 CURVE SMOOTH",
"378 0 OFFCURVE",
"488 144 OFFCURVE",
"488 324 CURVE SMOOTH",
"488 486 OFFCURVE",
"399 568 OFFCURVE",
"257 568 CURVE SMOOTH",
"146 568 OFFCURVE",
"65 520 OFFCURVE",
"34 448 CURVE SMOOTH",
"31 441 OFFCURVE",
"30 435 OFFCURVE",
"30 431 CURVE SMOOTH",
"30 425 OFFCURVE",
"32 420 OFFCURVE",
"39 420 CURVE SMOOTH",
"50 420 OFFCURVE",
"56 428 OFFCURVE",
"66 439 CURVE SMOOTH",
"106 486 OFFCURVE",
"158 510 OFFCURVE",
"228 510 CURVE SMOOTH",
"340 510 OFFCURVE",
"392 450 OFFCURVE",
"392 318 CURVE SMOOTH",
"392 170 OFFCURVE",
"326 66 OFFCURVE",
"206 66 CURVE SMOOTH",
"191 66 OFFCURVE",
"166 67 OFFCURVE",
"149 70 CURVE",
"149 71 LINE",
"158 83 OFFCURVE",
"160 92 OFFCURVE",
"162 104 CURVE SMOOTH",
"215 400 LINE SMOOTH",
"224 448 OFFCURVE",
"234 454 OFFCURVE",
"234 466 CURVE SMOOTH",
"234 471 OFFCURVE",
"232 474 OFFCURVE",
"222 474 CURVE SMOOTH",
"182 474 OFFCURVE",
"138 437 OFFCURVE",
"133 406 CURVE SMOOTH",
"82 117 LINE SMOOTH",
"74 80 OFFCURVE",
"72 78 OFFCURVE",
"46 57 CURVE SMOOTH",
"26 40 OFFCURVE",
"21 17 OFFCURVE",
"21 9 CURVE SMOOTH",
"21 3 OFFCURVE",
"23 0 OFFCURVE",
"30 0 CURVE SMOOTH"
);
}
);
width = 509;
},
{
anchors = (
{
name = center;
position = "{249, 280}";
}
);
background = {
anchors = (
{
name = bottom;
position = "{193, 0}";
},
{
name = center;
position = "{249, 280}";
},
{
name = top;
position = "{302, 560}";
}
);
paths = (
{
closed = 1;
nodes = (
"44 0 OFFCURVE",
"54 11 OFFCURVE",
"84 11 CURVE SMOOTH",
"115 11 OFFCURVE",
"152 0 OFFCURVE",
"197 0 CURVE SMOOTH",
"373 0 OFFCURVE",
"468 163 OFFCURVE",
"468 332 CURVE SMOOTH",
"468 480 OFFCURVE",
"393 568 OFFCURVE",
"250 568 CURVE SMOOTH",
"155 568 OFFCURVE",
"78 528 OFFCURVE",
"44 461 CURVE SMOOTH",
"41 454 OFFCURVE",
"39 448 OFFCURVE",
"39 443 CURVE SMOOTH",
"39 439 OFFCURVE",
"41 436 OFFCURVE",
"45 436 CURVE SMOOTH",
"51 436 OFFCURVE",
"54 442 OFFCURVE",
"64 453 CURVE SMOOTH",
"106 501 OFFCURVE",
"161 524 OFFCURVE",
"230 524 CURVE SMOOTH",
"346 524 OFFCURVE",
"399 459 OFFCURVE",
"399 324 CURVE SMOOTH",
"399 169 OFFCURVE",
"328 49 OFFCURVE",
"199 49 CURVE SMOOTH",
"180 49 OFFCURVE",
"146 51 OFFCURVE",
"129 55 CURVE",
"129 56 LINE",
"139 66 OFFCURVE",
"144 84 OFFCURVE",
"147 98 CURVE SMOOTH",
"202 431 LINE SMOOTH",
"208 470 OFFCURVE",
"222 475 OFFCURVE",
"222 482 CURVE SMOOTH",
"222 485 OFFCURVE",
"218 486 OFFCURVE",
"213 486 CURVE SMOOTH",
"188 486 OFFCURVE",
"150 453 OFFCURVE",
"145 426 CURVE SMOOTH",
"92 109 LINE SMOOTH",
"85 67 OFFCURVE",
"67 52 OFFCURVE",
"49 39 CURVE SMOOTH",
"39 32 OFFCURVE",
"30 14 OFFCURVE",
"30 5 CURVE SMOOTH",
"30 2 OFFCURVE",
"31 0 OFFCURVE",
"34 0 CURVE SMOOTH"
);
}
);
};
layerId = "0B1DFD06-3317-40CA-B510-4969A0718C16";
paths = (
{
closed = 1;
nodes = (
"44 0 OFFCURVE",
"54 11 OFFCURVE",
"84 11 CURVE SMOOTH",
"115 11 OFFCURVE",
"152 0 OFFCURVE",
"197 0 CURVE SMOOTH",
"373 0 OFFCURVE",
"468 163 OFFCURVE",
"468 332 CURVE SMOOTH",
"468 480 OFFCURVE",
"393 568 OFFCURVE",
"250 568 CURVE SMOOTH",
"155 568 OFFCURVE",
"78 528 OFFCURVE",
"44 461 CURVE SMOOTH",
"41 454 OFFCURVE",
"39 448 OFFCURVE",
"39 443 CURVE SMOOTH",
"39 439 OFFCURVE",
"41 436 OFFCURVE",
"45 436 CURVE SMOOTH",
"51 436 OFFCURVE",
"54 442 OFFCURVE",
"64 453 CURVE SMOOTH",
"106 501 OFFCURVE",
"161 524 OFFCURVE",
"230 524 CURVE SMOOTH",
"346 524 OFFCURVE",
"399 459 OFFCURVE",
"399 324 CURVE SMOOTH",
"399 169 OFFCURVE",
"328 49 OFFCURVE",
"199 49 CURVE SMOOTH",
"180 49 OFFCURVE",
"146 51 OFFCURVE",
"129 55 CURVE",
"129 56 LINE",
"139 66 OFFCURVE",
"144 84 OFFCURVE",
"147 98 CURVE SMOOTH",
"202 431 LINE SMOOTH",
"208 470 OFFCURVE",
"222 475 OFFCURVE",
"222 482 CURVE SMOOTH",
"222 485 OFFCURVE",
"218 486 OFFCURVE",
"213 486 CURVE SMOOTH",
"188 486 OFFCURVE",
"150 453 OFFCURVE",
"145 426 CURVE SMOOTH",
"92 109 LINE SMOOTH",
"85 67 OFFCURVE",
"67 52 OFFCURVE",
"49 39 CURVE SMOOTH",
"39 32 OFFCURVE",
"30 14 OFFCURVE",
"30 5 CURVE SMOOTH",
"30 2 OFFCURVE",
"31 0 OFFCURVE",
"34 0 CURVE SMOOTH"
);
}
);
width = 496;
}
);
leftKerningGroup = D;
note = D;
rightKerningGroup = D;
unicode = 0044;
},
{
glyphname = E;
lastChange = "2018-07-04 16:45:59 +0000";
layers = (
{
anchors = (
{
name = bottom;
position = "{186, 0}";
},
{
name = ogonek;
position = "{307, 26}";
},
{
name = top;
position = "{291, 560}";
},
{
name = topleft;
position = "{38, 478}";
}
);
background = {
anchors = (
{
name = bottom;
position = "{186, 0}";
},
{
name = ogonek;
position = "{307, 26}";
},
{
name = top;
position = "{291, 560}";
},
{
name = topleft;
position = "{38, 478}";
}
);
paths = (
{
closed = 1;
nodes = (
"41 0 OFFCURVE",
"53 14 OFFCURVE",
"88 14 CURVE SMOOTH",
"122 14 OFFCURVE",
"177 0 OFFCURVE",
"221 0 CURVE SMOOTH",
"305 0 OFFCURVE",
"366 50 OFFCURVE",
"366 91 CURVE SMOOTH",
"366 99 OFFCURVE",
"363 101 OFFCURVE",
"359 101 CURVE SMOOTH",
"354 101 OFFCURVE",
"350 99 OFFCURVE",
"340 93 CURVE SMOOTH",
"319 81 OFFCURVE",
"284 69 OFFCURVE",
"231 69 CURVE SMOOTH",
"198 69 OFFCURVE",
"174 74 OFFCURVE",
"152 79 CURVE",
"152 80 LINE",
"154 86 OFFCURVE",
"158 94 OFFCURVE",
"161 110 CURVE SMOOTH",
"186 260 LINE",
"214 260 LINE SMOOTH",
"251 260 OFFCURVE",
"282 250 OFFCURVE",
"297 250 CURVE SMOOTH",
"330 250 OFFCURVE",
"361 303 OFFCURVE",
"361 314 CURVE SMOOTH",
"361 318 OFFCURVE",
"358 322 OFFCURVE",
"353 322 CURVE SMOOTH",
"197 322 LINE",
"224 488 LINE",
"273 488 OFFCURVE",
"307 483 OFFCURVE",
"330 483 CURVE SMOOTH",
"405 483 OFFCURVE",
"438 537 OFFCURVE",
"438 560 CURVE SMOOTH",
"438 566 OFFCURVE",
"435 568 OFFCURVE",
"430 568 CURVE SMOOTH",
"415 568 OFFCURVE",
"400 552 OFFCURVE",
"330 552 CURVE SMOOTH",
"282 552 OFFCURVE",
"226 560 OFFCURVE",
"184 560 CURVE SMOOTH",
"98 560 OFFCURVE",
"41 525 OFFCURVE",
"30 478 CURVE SMOOTH",
"29 474 OFFCURVE",
"28 470 OFFCURVE",
"28 466 CURVE SMOOTH",
"28 461 OFFCURVE",
"30 458 OFFCURVE",
"34 458 CURVE SMOOTH",
"46 458 OFFCURVE",
"63 490 OFFCURVE",
"134 490 CURVE SMOOTH",
"138 490 LINE",
"82 151 LINE SMOOTH",
"70 86 OFFCURVE",
"63 77 OFFCURVE",
"42 53 CURVE SMOOTH",
"28 38 OFFCURVE",
"21 22 OFFCURVE",
"21 10 CURVE SMOOTH",
"21 2 OFFCURVE",
"24 0 OFFCURVE",
"29 0 CURVE SMOOTH"
);
}
);
};
layerId = "56450C88-1299-454A-B666-E6F9AF06B23F";
paths = (
{
closed = 1;
nodes = (
"41 0 OFFCURVE",
"53 14 OFFCURVE",
"88 14 CURVE SMOOTH",
"122 14 OFFCURVE",
"177 0 OFFCURVE",
"221 0 CURVE SMOOTH",
"305 0 OFFCURVE",
"366 50 OFFCURVE",
"366 91 CURVE SMOOTH",
"366 99 OFFCURVE",
"363 101 OFFCURVE",
"359 101 CURVE SMOOTH",
"354 101 OFFCURVE",
"350 99 OFFCURVE",
"340 93 CURVE SMOOTH",
"319 81 OFFCURVE",
"284 69 OFFCURVE",
"231 69 CURVE SMOOTH",
"198 69 OFFCURVE",
"174 74 OFFCURVE",
"152 79 CURVE",
"152 80 LINE",
"154 86 OFFCURVE",
"158 94 OFFCURVE",
"161 110 CURVE SMOOTH",
"186 260 LINE",
"214 260 LINE SMOOTH",
"251 260 OFFCURVE",
"282 250 OFFCURVE",
"297 250 CURVE SMOOTH",
"330 250 OFFCURVE",
"361 303 OFFCURVE",
"361 314 CURVE SMOOTH",
"361 318 OFFCURVE",
"358 322 OFFCURVE",
"353 322 CURVE SMOOTH",
"197 322 LINE",
"224 488 LINE",
"273 488 OFFCURVE",
"307 483 OFFCURVE",
"330 483 CURVE SMOOTH",
"405 483 OFFCURVE",
"438 537 OFFCURVE",
"438 560 CURVE SMOOTH",
"438 566 OFFCURVE",
"435 568 OFFCURVE",
"430 568 CURVE SMOOTH",
"415 568 OFFCURVE",
"400 552 OFFCURVE",
"330 552 CURVE SMOOTH",
"282 552 OFFCURVE",
"226 560 OFFCURVE",
"184 560 CURVE SMOOTH",
"98 560 OFFCURVE",
"41 525 OFFCURVE",
"30 478 CURVE SMOOTH",
"29 474 OFFCURVE",
"28 470 OFFCURVE",
"28 466 CURVE SMOOTH",
"28 461 OFFCURVE",
"30 458 OFFCURVE",
"34 458 CURVE SMOOTH",
"46 458 OFFCURVE",
"63 490 OFFCURVE",
"134 490 CURVE SMOOTH",
"138 490 LINE",
"82 151 LINE SMOOTH",
"70 86 OFFCURVE",
"63 77 OFFCURVE",
"42 53 CURVE SMOOTH",
"28 38 OFFCURVE",
"21 22 OFFCURVE",
"21 10 CURVE SMOOTH",
"21 2 OFFCURVE",
"24 0 OFFCURVE",
"29 0 CURVE SMOOTH"
);
}
);
width = 412;
},
{
anchors = (
{
name = bottom;
position = "{175, 0}";
},
{
name = ogonek;
position = "{303, 30}";
},
{
name = top;
position = "{299, 560}";
},
{
name = topleft;
position = "{55, 494}";
}
);
background = {
anchors = (
{
name = bottom;
position = "{175, 0}";
},
{
name = ogonek;
position = "{303, 30}";
},
{
name = top;
position = "{299, 560}";
},
{
name = topleft;
position = "{55, 494}";
}
);
paths = (
{
closed = 1;
nodes = (
"45 0 OFFCURVE",
"59 14 OFFCURVE",
"86 14 CURVE SMOOTH",
"112 14 OFFCURVE",
"174 0 OFFCURVE",
"212 0 CURVE SMOOTH",
"286 0 OFFCURVE",
"359 49 OFFCURVE",
"359 82 CURVE SMOOTH",
"359 86 OFFCURVE",
"357 90 OFFCURVE",
"353 90 CURVE SMOOTH",
"350 90 OFFCURVE",
"348 89 OFFCURVE",
"343 86 CURVE SMOOTH",
"310 65 OFFCURVE",
"266 51 OFFCURVE",
"215 51 CURVE SMOOTH",
"188 51 OFFCURVE",
"152 55 OFFCURVE",
"129 61 CURVE",
"129 62 LINE",
"136 70 OFFCURVE",
"144 89 OFFCURVE",
"147 108 CURVE SMOOTH",
"174 266 LINE",
"201 266 LINE SMOOTH",
"238 266 OFFCURVE",
"261 256 OFFCURVE",
"275 256 CURVE SMOOTH",
"306 256 OFFCURVE",
"339 300 OFFCURVE",
"339 310 CURVE SMOOTH",
"339 313 OFFCURVE",
"337 315 OFFCURVE",
"332 315 CURVE SMOOTH",
"181 315 LINE",
"212 510 LINE",
"243 510 OFFCURVE",
"286 504 OFFCURVE",
"316 504 CURVE SMOOTH",
"399 504 OFFCURVE",
"431 546 OFFCURVE",
"431 562 CURVE SMOOTH",
"431 566 OFFCURVE",
"429 568 OFFCURVE",
"424 568 CURVE SMOOTH",
"413 568 OFFCURVE",
"397 552 OFFCURVE",
"331 552 CURVE SMOOTH",
"283 552 OFFCURVE",
"226 560 OFFCURVE",
"183 560 CURVE SMOOTH",
"97 560 OFFCURVE",
"55 529 OFFCURVE",
"44 495 CURVE SMOOTH",
"43 492 OFFCURVE",
"42 488 OFFCURVE",
"42 483 CURVE SMOOTH",
"42 480 OFFCURVE",
"43 476 OFFCURVE",
"47 476 CURVE SMOOTH",
"57 476 OFFCURVE",
"68 509 OFFCURVE",
"148 509 CURVE SMOOTH",
"152 509 LINE",
"92 141 LINE SMOOTH",
"81 72 OFFCURVE",
"73 62 OFFCURVE",
"48 39 CURVE SMOOTH",
"37 29 OFFCURVE",
"30 18 OFFCURVE",
"30 6 CURVE SMOOTH",
"30 2 OFFCURVE",
"31 0 OFFCURVE",
"35 0 CURVE SMOOTH"
);
}
);
};
layerId = "0B1DFD06-3317-40CA-B510-4969A0718C16";
paths = (
{
closed = 1;
nodes = (
"45 0 OFFCURVE",
"59 14 OFFCURVE",
"86 14 CURVE SMOOTH",
"112 14 OFFCURVE",
"174 0 OFFCURVE",
"212 0 CURVE SMOOTH",
"286 0 OFFCURVE",
"359 49 OFFCURVE",
"359 82 CURVE SMOOTH",
"359 86 OFFCURVE",
"357 90 OFFCURVE",
"353 90 CURVE SMOOTH",
"350 90 OFFCURVE",
"348 89 OFFCURVE",
"343 86 CURVE SMOOTH",
"310 65 OFFCURVE",
"266 51 OFFCURVE",
"215 51 CURVE SMOOTH",
"188 51 OFFCURVE",
"152 55 OFFCURVE",
"129 61 CURVE",
"129 62 LINE",
"136 70 OFFCURVE",
"144 89 OFFCURVE",
"147 108 CURVE SMOOTH",
"174 266 LINE",
"201 266 LINE SMOOTH",
"238 266 OFFCURVE",
"261 256 OFFCURVE",
"275 256 CURVE SMOOTH",
"306 256 OFFCURVE",
"339 300 OFFCURVE",
"339 310 CURVE SMOOTH",
"339 313 OFFCURVE",
"337 315 OFFCURVE",
"332 315 CURVE SMOOTH",
"181 315 LINE",
"212 510 LINE",
"243 510 OFFCURVE",
"286 504 OFFCURVE",
"316 504 CURVE SMOOTH",
"399 504 OFFCURVE",
"431 546 OFFCURVE",
"431 562 CURVE SMOOTH",
"431 566 OFFCURVE",
"430 568 OFFCURVE",
"425 568 CURVE SMOOTH",
"414 568 OFFCURVE",
"397 552 OFFCURVE",
"331 552 CURVE SMOOTH",
"283 552 OFFCURVE",
"226 560 OFFCURVE",
"183 560 CURVE SMOOTH",
"97 560 OFFCURVE",
"55 529 OFFCURVE",
"44 495 CURVE SMOOTH",
"43 492 OFFCURVE",
"42 488 OFFCURVE",
"42 483 CURVE SMOOTH",
"42 480 OFFCURVE",
"43 476 OFFCURVE",
"47 476 CURVE SMOOTH",
"57 476 OFFCURVE",
"68 509 OFFCURVE",
"148 509 CURVE SMOOTH",
"152 509 LINE",
"92 141 LINE SMOOTH",
"81 72 OFFCURVE",
"73 62 OFFCURVE",
"48 39 CURVE SMOOTH",
"37 29 OFFCURVE",
"30 18 OFFCURVE",
"30 6 CURVE SMOOTH",
"30 2 OFFCURVE",
"31 0 OFFCURVE",
"35 0 CURVE SMOOTH"
);
}
);
width = 413;
}
);
leftKerningGroup = E;
note = E;
rightKerningGroup = E;
unicode = 0045;
},
{
glyphname = F;
lastChange = "2018-07-04 19:35:35 +0000";
layers = (
{
anchors = (
{
name = bottom;
position = "{103, 0}";
},
{
name = top;
position = "{294, 560}";
}
);
background = {
anchors = (
{
name = bottom;
position = "{103, 0}";
},
{
name = top;
position = "{294, 560}";
}
);
paths = (
{
closed = 1;
nodes = (
"34 0 OFFCURVE",
"50 13 OFFCURVE",
"77 13 CURVE SMOOTH",
"103 13 OFFCURVE",
"127 0 OFFCURVE",
"149 0 CURVE SMOOTH",
"166 0 OFFCURVE",
"186 8 OFFCURVE",
"212 42 CURVE SMOOTH",
"218 50 OFFCURVE",
"222 57 OFFCURVE",
"222 64 CURVE SMOOTH",
"222 68 OFFCURVE",
"220 71 OFFCURVE",
"215 71 CURVE SMOOTH",
"207 71 OFFCURVE",
"197 62 OFFCURVE",
"178 62 CURVE SMOOTH",
"167 62 OFFCURVE",
"155 64 OFFCURVE",
"146 70 CURVE",
"146 71 LINE",
"154 79 OFFCURVE",
"162 92 OFFCURVE",
"164 106 CURVE SMOOTH",
"187 244 LINE",
"214 244 LINE SMOOTH",
"252 244 OFFCURVE",
"283 234 OFFCURVE",
"298 234 CURVE SMOOTH",
"330 234 OFFCURVE",
"362 287 OFFCURVE",
"362 300 CURVE SMOOTH",
"362 305 OFFCURVE",
"359 306 OFFCURVE",
"354 306 CURVE SMOOTH",
"198 306 LINE",
"228 488 LINE",
"277 488 OFFCURVE",
"311 483 OFFCURVE",
"334 483 CURVE SMOOTH",
"409 483 OFFCURVE",
"442 537 OFFCURVE",
"442 560 CURVE SMOOTH",
"442 566 OFFCURVE",
"439 568 OFFCURVE",
"434 568 CURVE SMOOTH",
"419 568 OFFCURVE",
"404 552 OFFCURVE",
"334 552 CURVE SMOOTH",
"286 552 OFFCURVE",
"230 560 OFFCURVE",
"188 560 CURVE SMOOTH",
"102 560 OFFCURVE",
"45 525 OFFCURVE",
"34 478 CURVE SMOOTH",
"33 474 OFFCURVE",
"32 470 OFFCURVE",
"32 466 CURVE SMOOTH",
"32 461 OFFCURVE",
"34 458 OFFCURVE",
"38 458 CURVE SMOOTH",
"50 458 OFFCURVE",
"67 490 OFFCURVE",
"138 490 CURVE SMOOTH",
"142 490 LINE",
"84 142 LINE SMOOTH",
"74 81 OFFCURVE",
"68 73 OFFCURVE",
"46 52 CURVE SMOOTH",
"32 38 OFFCURVE",
"21 25 OFFCURVE",
"21 10 CURVE SMOOTH",
"21 2 OFFCURVE",
"23 0 OFFCURVE",
"26 0 CURVE SMOOTH"
);
}
);
};
layerId = "56450C88-1299-454A-B666-E6F9AF06B23F";
paths = (
{
closed = 1;
nodes = (
"34 0 OFFCURVE",
"50 13 OFFCURVE",
"77 13 CURVE SMOOTH",
"103 13 OFFCURVE",
"127 0 OFFCURVE",
"149 0 CURVE SMOOTH",
"166 0 OFFCURVE",
"186 8 OFFCURVE",
"212 42 CURVE SMOOTH",
"218 50 OFFCURVE",
"222 57 OFFCURVE",
"222 64 CURVE SMOOTH",
"222 68 OFFCURVE",
"220 71 OFFCURVE",
"215 71 CURVE SMOOTH",
"207 71 OFFCURVE",
"197 62 OFFCURVE",
"178 62 CURVE SMOOTH",
"167 62 OFFCURVE",
"155 64 OFFCURVE",
"146 70 CURVE",
"146 71 LINE",
"154 79 OFFCURVE",
"162 92 OFFCURVE",
"164 106 CURVE SMOOTH",
"187 244 LINE",
"214 244 LINE SMOOTH",
"252 244 OFFCURVE",
"283 234 OFFCURVE",
"298 234 CURVE SMOOTH",
"330 234 OFFCURVE",
"362 287 OFFCURVE",
"362 300 CURVE SMOOTH",
"362 305 OFFCURVE",
"359 306 OFFCURVE",
"354 306 CURVE SMOOTH",
"198 306 LINE",
"228 488 LINE",
"277 488 OFFCURVE",
"311 483 OFFCURVE",
"334 483 CURVE SMOOTH",
"409 483 OFFCURVE",
"442 537 OFFCURVE",
"442 560 CURVE SMOOTH",
"442 566 OFFCURVE",
"439 568 OFFCURVE",
"434 568 CURVE SMOOTH",
"419 568 OFFCURVE",
"404 552 OFFCURVE",
"334 552 CURVE SMOOTH",
"286 552 OFFCURVE",
"230 560 OFFCURVE",
"188 560 CURVE SMOOTH",
"102 560 OFFCURVE",
"45 525 OFFCURVE",
"34 478 CURVE SMOOTH",
"33 474 OFFCURVE",
"32 470 OFFCURVE",
"32 466 CURVE SMOOTH",
"32 461 OFFCURVE",
"34 458 OFFCURVE",
"38 458 CURVE SMOOTH",
"50 458 OFFCURVE",
"67 490 OFFCURVE",
"138 490 CURVE SMOOTH",
"142 490 LINE",
"84 142 LINE SMOOTH",
"74 81 OFFCURVE",
"68 73 OFFCURVE",
"46 52 CURVE SMOOTH",
"32 38 OFFCURVE",
"21 25 OFFCURVE",
"21 10 CURVE SMOOTH",
"21 2 OFFCURVE",
"23 0 OFFCURVE",
"26 0 CURVE SMOOTH"
);
}
);
width = 408;
},
{
anchors = (
{
name = bottom;
position = "{93, 0}";
},
{
name = top;
position = "{289, 560}";
}
);
background = {
anchors = (
{
name = bottom;
position = "{92, 0}";
},
{
name = top;
position = "{288, 560}";
}
);
paths = (
{
closed = 1;
nodes = (
"39 0 OFFCURVE",
"54 14 OFFCURVE",
"74 14 CURVE SMOOTH",
"94 14 OFFCURVE",
"118 0 OFFCURVE",
"134 0 CURVE SMOOTH",
"143 0 OFFCURVE",
"159 5 OFFCURVE",
"186 33 CURVE SMOOTH",
"195 42 OFFCURVE",
"197 47 OFFCURVE",
"197 51 CURVE SMOOTH",
"197 54 OFFCURVE",
"195 56 OFFCURVE",
"192 56 CURVE SMOOTH",
"185 56 OFFCURVE",
"175 47 OFFCURVE",
"158 47 CURVE SMOOTH",
"149 47 OFFCURVE",
"138 50 OFFCURVE",
"126 54 CURVE",
"126 55 LINE",
"134 63 OFFCURVE",
"141 75 OFFCURVE",
"143 89 CURVE SMOOTH",
"171 252 LINE",
"198 252 LINE SMOOTH",
"235 252 OFFCURVE",
"258 242 OFFCURVE",
"273 242 CURVE SMOOTH",
"303 242 OFFCURVE",
"337 286 OFFCURVE",
"337 297 CURVE SMOOTH",
"337 300 OFFCURVE",
"335 302 OFFCURVE",
"330 302 CURVE SMOOTH",
"178 302 LINE",
"212 510 LINE",
"242 510 OFFCURVE",
"286 504 OFFCURVE",
"316 504 CURVE SMOOTH",
"398 504 OFFCURVE",
"430 546 OFFCURVE",
"430 562 CURVE SMOOTH",
"430 566 OFFCURVE",
"429 568 OFFCURVE",
"425 568 CURVE SMOOTH",
"414 568 OFFCURVE",
"397 552 OFFCURVE",
"330 552 CURVE SMOOTH",
"283 552 OFFCURVE",
"226 560 OFFCURVE",
"182 560 CURVE SMOOTH",
"96 560 OFFCURVE",
"56 529 OFFCURVE",
"44 495 CURVE SMOOTH",
"43 492 OFFCURVE",
"42 488 OFFCURVE",
"42 483 CURVE SMOOTH",
"42 480 OFFCURVE",
"43 476 OFFCURVE",
"47 476 CURVE SMOOTH",
"57 476 OFFCURVE",
"68 509 OFFCURVE",
"148 509 CURVE SMOOTH",
"152 509 LINE",
"92 142 LINE SMOOTH",
"80 70 OFFCURVE",
"79 70 OFFCURVE",
"46 41 CURVE SMOOTH",
"33 29 OFFCURVE",
"29 17 OFFCURVE",
"29 7 CURVE SMOOTH",
"29 3 OFFCURVE",
"30 0 OFFCURVE",
"33 0 CURVE SMOOTH"
);
}
);
};
layerId = "0B1DFD06-3317-40CA-B510-4969A0718C16";
paths = (
{
closed = 1;
nodes = (
"40 0 OFFCURVE",
"55 14 OFFCURVE",
"75 14 CURVE SMOOTH",
"95 14 OFFCURVE",
"119 0 OFFCURVE",
"135 0 CURVE SMOOTH",
"144 0 OFFCURVE",
"159 5 OFFCURVE",
"187 33 CURVE SMOOTH",
"196 42 OFFCURVE",
"198 47 OFFCURVE",
"198 51 CURVE SMOOTH",
"198 54 OFFCURVE",
"196 56 OFFCURVE",
"193 56 CURVE SMOOTH",
"186 56 OFFCURVE",
"176 47 OFFCURVE",
"159 47 CURVE SMOOTH",
"150 47 OFFCURVE",
"139 50 OFFCURVE",
"127 54 CURVE",
"127 55 LINE",
"135 63 OFFCURVE",
"142 75 OFFCURVE",
"144 89 CURVE SMOOTH",
"172 252 LINE",
"199 252 LINE SMOOTH",
"236 252 OFFCURVE",
"259 242 OFFCURVE",
"274 242 CURVE SMOOTH",
"304 242 OFFCURVE",
"338 286 OFFCURVE",
"338 297 CURVE SMOOTH",
"338 300 OFFCURVE",
"336 302 OFFCURVE",
"331 302 CURVE SMOOTH",
"179 302 LINE",
"213 510 LINE",
"243 510 OFFCURVE",
"287 504 OFFCURVE",
"317 504 CURVE SMOOTH",
"399 504 OFFCURVE",
"431 546 OFFCURVE",
"431 562 CURVE SMOOTH",
"431 566 OFFCURVE",
"430 568 OFFCURVE",
"425 568 CURVE SMOOTH",
"414 568 OFFCURVE",
"398 552 OFFCURVE",
"331 552 CURVE SMOOTH",
"284 552 OFFCURVE",
"227 560 OFFCURVE",
"183 560 CURVE SMOOTH",
"97 560 OFFCURVE",
"56 529 OFFCURVE",
"45 495 CURVE SMOOTH",
"44 492 OFFCURVE",
"43 488 OFFCURVE",
"43 483 CURVE SMOOTH",
"43 480 OFFCURVE",
"44 476 OFFCURVE",
"48 476 CURVE SMOOTH",
"58 476 OFFCURVE",
"69 509 OFFCURVE",
"149 509 CURVE SMOOTH",
"153 509 LINE",
"93 142 LINE SMOOTH",
"81 69 OFFCURVE",
"79 71 OFFCURVE",
"47 41 CURVE SMOOTH",
"34 29 OFFCURVE",
"30 17 OFFCURVE",
"30 7 CURVE SMOOTH",
"30 3 OFFCURVE",
"31 0 OFFCURVE",
"34 0 CURVE SMOOTH"
);
}
);
width = 405;
}
);
leftKerningGroup = E;
note = F;
unicode = 0046;
},
{
glyphname = G;
lastChange = "2018-07-04 10:53:03 +0000";
layers = (
{
anchors = (
{
name = bottom;
position = "{198, -200}";
},
{
name = top;
position = "{333, 560}";
}
);
background = {
anchors = (
{
name = bottom;
position = "{198, -200}";
},
{
name = top;
position = "{333, 560}";
}
);
paths = (
{
closed = 1;
nodes = (
"300 -206 OFFCURVE",
"378 -108 OFFCURVE",
"398 57 CURVE SMOOTH",
"421 245 LINE SMOOTH",
"426 290 OFFCURVE",
"442 296 OFFCURVE",
"442 310 CURVE SMOOTH",
"442 316 OFFCURVE",
"438 318 OFFCURVE",
"430 318 CURVE SMOOTH",
"401 318 OFFCURVE",
"351 294 OFFCURVE",
"345 250 CURVE SMOOTH",
"328 130 LINE",
"308 95 OFFCURVE",
"278 74 OFFCURVE",
"233 74 CURVE SMOOTH",
"170 74 OFFCURVE",
"138 115 OFFCURVE",
"138 223 CURVE SMOOTH",
"138 382 OFFCURVE",
"208 507 OFFCURVE",
"322 507 CURVE SMOOTH",
"359 507 OFFCURVE",
"388 494 OFFCURVE",
"397 458 CURVE SMOOTH",
"401 442 OFFCURVE",
"400 421 OFFCURVE",
"414 421 CURVE SMOOTH",
"426 421 OFFCURVE",
"435 434 OFFCURVE",
"442 446 CURVE SMOOTH",
"452 464 OFFCURVE",
"458 480 OFFCURVE",
"458 497 CURVE SMOOTH",
"458 542 OFFCURVE",
"413 568 OFFCURVE",
"347 568 CURVE SMOOTH",
"183 568 OFFCURVE",
"42 409 OFFCURVE",
"42 199 CURVE SMOOTH",
"42 63 OFFCURVE",
"102 0 OFFCURVE",
"194 0 CURVE SMOOTH",
"252 0 OFFCURVE",
"290 24 OFFCURVE",
"317 50 CURVE",
"311 10 LINE SMOOTH",
"295 -108 OFFCURVE",
"274 -147 OFFCURVE",
"220 -147 CURVE SMOOTH",
"163 -147 OFFCURVE",
"147 -104 OFFCURVE",
"138 -74 CURVE SMOOTH",
"137 -71 OFFCURVE",
"135 -70 OFFCURVE",
"132 -70 CURVE SMOOTH",
"114 -70 OFFCURVE",
"68 -119 OFFCURVE",
"68 -145 CURVE SMOOTH",
"68 -171 OFFCURVE",
"115 -206 OFFCURVE",
"186 -206 CURVE SMOOTH"
);
}
);
};
layerId = "56450C88-1299-454A-B666-E6F9AF06B23F";
paths = (
{
closed = 1;
nodes = (
"300 -206 OFFCURVE",
"378 -108 OFFCURVE",
"398 57 CURVE SMOOTH",
"421 245 LINE SMOOTH",
"426 290 OFFCURVE",
"442 296 OFFCURVE",
"442 310 CURVE SMOOTH",
"442 316 OFFCURVE",
"438 318 OFFCURVE",
"430 318 CURVE SMOOTH",
"401 318 OFFCURVE",
"351 294 OFFCURVE",
"345 250 CURVE SMOOTH",
"328 130 LINE",
"308 95 OFFCURVE",
"278 74 OFFCURVE",
"233 74 CURVE SMOOTH",
"170 74 OFFCURVE",
"138 115 OFFCURVE",
"138 223 CURVE SMOOTH",
"138 382 OFFCURVE",
"208 507 OFFCURVE",
"322 507 CURVE SMOOTH",
"359 507 OFFCURVE",
"388 494 OFFCURVE",
"397 458 CURVE SMOOTH",
"401 442 OFFCURVE",
"400 421 OFFCURVE",
"414 421 CURVE SMOOTH",
"426 421 OFFCURVE",
"435 434 OFFCURVE",
"442 446 CURVE SMOOTH",
"452 464 OFFCURVE",
"458 480 OFFCURVE",
"458 497 CURVE SMOOTH",
"458 542 OFFCURVE",
"413 568 OFFCURVE",
"347 568 CURVE SMOOTH",
"183 568 OFFCURVE",
"42 409 OFFCURVE",
"42 199 CURVE SMOOTH",
"42 63 OFFCURVE",
"102 0 OFFCURVE",
"194 0 CURVE SMOOTH",
"252 0 OFFCURVE",
"290 24 OFFCURVE",
"317 50 CURVE",
"311 10 LINE SMOOTH",
"295 -108 OFFCURVE",
"274 -147 OFFCURVE",
"220 -147 CURVE SMOOTH",
"163 -147 OFFCURVE",
"147 -104 OFFCURVE",
"138 -74 CURVE SMOOTH",
"137 -71 OFFCURVE",
"135 -70 OFFCURVE",
"132 -70 CURVE SMOOTH",
"114 -70 OFFCURVE",
"68 -119 OFFCURVE",
"68 -145 CURVE SMOOTH",
"68 -171 OFFCURVE",
"115 -206 OFFCURVE",
"186 -206 CURVE SMOOTH"
);
}
);
width = 476;
},
{
anchors = (
{
name = bottom;
position = "{189, -200}";
},
{
name = top;
position = "{347, 560}";
}
);
background = {
anchors = (
{
name = bottom;
position = "{189, -200}";
},
{
name = top;
position = "{347, 560}";
}
);
paths = (
{
closed = 1;
nodes = (
"280 -206 OFFCURVE",
"351 -114 OFFCURVE",
"378 49 CURVE",
"403 255 LINE SMOOTH",
"408 294 OFFCURVE",
"423 301 OFFCURVE",
"423 307 CURVE SMOOTH",
"423 310 OFFCURVE",
"420 312 OFFCURVE",
"414 312 CURVE SMOOTH",
"390 312 OFFCURVE",
"356 279 OFFCURVE",
"353 253 CURVE SMOOTH",
"337 134 LINE",
"308 75 OFFCURVE",
"262 56 OFFCURVE",
"223 56 CURVE SMOOTH",
"159 56 OFFCURVE",
"118 109 OFFCURVE",
"118 214 CURVE SMOOTH",
"118 336 OFFCURVE",
"174 525 OFFCURVE",
"314 525 CURVE SMOOTH",
"363 525 OFFCURVE",
"389 506 OFFCURVE",
"397 466 CURVE SMOOTH",
"400 450 OFFCURVE",
"401 438 OFFCURVE",
"410 438 CURVE SMOOTH",
"416 438 OFFCURVE",
"420 442 OFFCURVE",
"426 450 CURVE SMOOTH",
"443 476 OFFCURVE",
"444 497 OFFCURVE",
"444 502 CURVE SMOOTH",
"444 549 OFFCURVE",
"387 568 OFFCURVE",
"339 568 CURVE SMOOTH",
"208 568 OFFCURVE",
"50 427 OFFCURVE",
"50 201 CURVE SMOOTH",
"50 68 OFFCURVE",
"104 0 OFFCURVE",
"186 0 CURVE SMOOTH",
"230 0 OFFCURVE",
"278 19 OFFCURVE",
"325 65 CURVE",
"314 -1 LINE SMOOTH",
"295 -122 OFFCURVE",
"269 -165 OFFCURVE",
"213 -165 CURVE SMOOTH",
"175 -165 OFFCURVE",
"149 -146 OFFCURVE",
"130 -91 CURVE SMOOTH",
"129 -86 OFFCURVE",
"127 -84 OFFCURVE",
"124 -84 CURVE SMOOTH",
"110 -84 OFFCURVE",
"74 -124 OFFCURVE",
"74 -151 CURVE SMOOTH",
"74 -182 OFFCURVE",
"122 -206 OFFCURVE",
"175 -206 CURVE SMOOTH"
);
}
);
};
layerId = "0B1DFD06-3317-40CA-B510-4969A0718C16";
paths = (
{
closed = 1;
nodes = (
"280 -206 OFFCURVE",
"351 -114 OFFCURVE",
"378 49 CURVE",
"403 255 LINE SMOOTH",
"408 294 OFFCURVE",
"423 301 OFFCURVE",
"423 307 CURVE SMOOTH",
"423 310 OFFCURVE",
"420 312 OFFCURVE",
"414 312 CURVE SMOOTH",
"390 312 OFFCURVE",
"356 279 OFFCURVE",
"353 253 CURVE SMOOTH",
"337 134 LINE",
"308 75 OFFCURVE",
"262 56 OFFCURVE",
"223 56 CURVE SMOOTH",
"159 56 OFFCURVE",
"118 109 OFFCURVE",
"118 214 CURVE SMOOTH",
"118 336 OFFCURVE",
"174 525 OFFCURVE",
"314 525 CURVE SMOOTH",
"363 525 OFFCURVE",
"389 506 OFFCURVE",
"397 466 CURVE SMOOTH",
"400 450 OFFCURVE",
"401 438 OFFCURVE",
"410 438 CURVE SMOOTH",
"416 438 OFFCURVE",
"420 442 OFFCURVE",
"426 450 CURVE SMOOTH",
"443 476 OFFCURVE",
"444 497 OFFCURVE",
"444 502 CURVE SMOOTH",
"444 549 OFFCURVE",
"387 568 OFFCURVE",
"339 568 CURVE SMOOTH",
"208 568 OFFCURVE",
"50 427 OFFCURVE",
"50 201 CURVE SMOOTH",
"50 68 OFFCURVE",
"104 0 OFFCURVE",
"186 0 CURVE SMOOTH",
"230 0 OFFCURVE",
"278 19 OFFCURVE",
"325 65 CURVE",
"314 -1 LINE SMOOTH",
"295 -122 OFFCURVE",
"269 -165 OFFCURVE",
"213 -165 CURVE SMOOTH",
"175 -165 OFFCURVE",
"149 -146 OFFCURVE",
"130 -91 CURVE SMOOTH",
"129 -86 OFFCURVE",
"127 -84 OFFCURVE",
"124 -84 CURVE SMOOTH",
"110 -84 OFFCURVE",
"74 -124 OFFCURVE",
"74 -151 CURVE SMOOTH",
"74 -182 OFFCURVE",
"122 -206 OFFCURVE",
"175 -206 CURVE SMOOTH"
);
}
);
width = 470;
}
);
leftKerningGroup = C;
note = G;
rightKerningGroup = G;
unicode = 0047;
},
{
glyphname = H;
lastChange = "2018-07-04 19:36:05 +0000";
layers = (
{
anchors = (
{
name = bottom;
position = "{255, 0}";
},
{
name = center;
position = "{296, 280}";
},
{
name = top;
position = "{337, 560}";
}
);
background = {
anchors = (
{
name = bottom;
position = "{255, 0}";
},
{
name = center;
position = "{296, 280}";
},
{
name = top;
position = "{337, 560}";
}
);
paths = (
{
closed = 1;
nodes = (
"449 -8 OFFCURVE",
"518 62 OFFCURVE",
"518 98 CURVE SMOOTH",
"518 104 OFFCURVE",
"517 107 OFFCURVE",
"513 107 CURVE SMOOTH",
"500 107 OFFCURVE",
"481 72 OFFCURVE",
"454 72 CURVE SMOOTH",
"444 72 OFFCURVE",
"439 77 OFFCURVE",
"444 105 CURVE SMOOTH",
"500 463 LINE SMOOTH",
"532 666 OFFCURVE",
"595 650 OFFCURVE",
"646 658 CURVE SMOOTH",
"693 665 OFFCURVE",
"708 691 OFFCURVE",
"708 707 CURVE SMOOTH",
"708 713 OFFCURVE",
"706 716 OFFCURVE",
"702 716 CURVE SMOOTH",
"698 716 OFFCURVE",
"695 714 OFFCURVE",
"686 711 CURVE SMOOTH",
"679 709 OFFCURVE",
"667 708 OFFCURVE",
"658 708 CURVE SMOOTH",
"512 702 OFFCURVE",
"444 639 OFFCURVE",
"410 442 CURVE SMOOTH",
"390 331 LINE",
"216 331 LINE",
"234 444 LINE SMOOTH",
"240 486 OFFCURVE",
"253 529 OFFCURVE",
"264 560 CURVE",
"248 560 OFFCURVE",
"234 556 OFFCURVE",
"207 556 CURVE SMOOTH",
"180 556 OFFCURVE",
"160 560 OFFCURVE",
"138 560 CURVE SMOOTH",
"77 560 OFFCURVE",
"30 526 OFFCURVE",
"20 475 CURVE SMOOTH",
"19 470 OFFCURVE",
"18 465 OFFCURVE",
"18 458 CURVE SMOOTH",
"18 453 OFFCURVE",
"20 450 OFFCURVE",
"24 450 CURVE SMOOTH",
"30 450 OFFCURVE",
"34 455 OFFCURVE",
"40 463 CURVE SMOOTH",
"59 487 OFFCURVE",
"79 493 OFFCURVE",
"108 493 CURVE SMOOTH",
"134 493 OFFCURVE",
"146 488 OFFCURVE",
"156 488 CURVE",
"99 142 LINE SMOOTH",
"89 81 OFFCURVE",
"83 73 OFFCURVE",
"62 52 CURVE SMOOTH",
"49 40 OFFCURVE",
"36 26 OFFCURVE",
"36 10 CURVE SMOOTH",
"36 3 OFFCURVE",
"38 0 OFFCURVE",
"42 0 CURVE SMOOTH",
"50 0 OFFCURVE",
"65 13 OFFCURVE",
"92 13 CURVE SMOOTH",
"118 13 OFFCURVE",
"142 0 OFFCURVE",
"163 0 CURVE SMOOTH",
"181 0 OFFCURVE",
"197 10 OFFCURVE",
"222 42 CURVE SMOOTH",
"229 51 OFFCURVE",
"232 59 OFFCURVE",
"232 64 CURVE SMOOTH",
"232 69 OFFCURVE",
"230 71 OFFCURVE",
"226 71 CURVE SMOOTH",
"218 71 OFFCURVE",
"209 62 OFFCURVE",
"190 62 CURVE SMOOTH",
"178 62 OFFCURVE",
"166 65 OFFCURVE",
"160 68 CURVE",
"160 69 LINE",
"169 77 OFFCURVE",
"176 90 OFFCURVE",
"178 105 CURVE SMOOTH",
"206 262 LINE",
"379 262 LINE",
"353 84 LINE SMOOTH",
"343 18 OFFCURVE",
"361 -8 OFFCURVE",
"394 -8 CURVE SMOOTH"
);
}
);
};
layerId = "56450C88-1299-454A-B666-E6F9AF06B23F";
paths = (
{
closed = 1;
nodes = (
"449 -8 OFFCURVE",
"518 62 OFFCURVE",
"518 98 CURVE SMOOTH",
"518 104 OFFCURVE",
"517 107 OFFCURVE",
"513 107 CURVE SMOOTH",
"500 107 OFFCURVE",
"481 72 OFFCURVE",
"454 72 CURVE SMOOTH",
"444 72 OFFCURVE",
"439 77 OFFCURVE",
"444 105 CURVE SMOOTH",
"500 463 LINE SMOOTH",
"532 666 OFFCURVE",
"595 650 OFFCURVE",
"646 658 CURVE SMOOTH",
"693 665 OFFCURVE",
"708 691 OFFCURVE",
"708 707 CURVE SMOOTH",
"708 713 OFFCURVE",
"706 716 OFFCURVE",
"702 716 CURVE SMOOTH",
"698 716 OFFCURVE",
"695 714 OFFCURVE",
"686 711 CURVE SMOOTH",
"679 709 OFFCURVE",
"667 708 OFFCURVE",
"658 708 CURVE SMOOTH",
"512 702 OFFCURVE",
"444 639 OFFCURVE",
"410 442 CURVE SMOOTH",
"390 331 LINE",
"216 331 LINE",
"234 444 LINE SMOOTH",
"240 486 OFFCURVE",
"253 529 OFFCURVE",
"264 560 CURVE",
"248 560 OFFCURVE",
"234 556 OFFCURVE",
"207 556 CURVE SMOOTH",
"180 556 OFFCURVE",
"160 560 OFFCURVE",
"138 560 CURVE SMOOTH",
"77 560 OFFCURVE",
"30 526 OFFCURVE",
"20 475 CURVE SMOOTH",
"19 470 OFFCURVE",
"18 465 OFFCURVE",
"18 458 CURVE SMOOTH",
"18 453 OFFCURVE",
"20 450 OFFCURVE",
"24 450 CURVE SMOOTH",
"30 450 OFFCURVE",
"34 455 OFFCURVE",
"40 463 CURVE SMOOTH",
"59 487 OFFCURVE",
"79 493 OFFCURVE",
"108 493 CURVE SMOOTH",
"134 493 OFFCURVE",
"146 488 OFFCURVE",
"156 488 CURVE",
"99 142 LINE SMOOTH",
"89 81 OFFCURVE",
"83 73 OFFCURVE",
"62 52 CURVE SMOOTH",
"49 40 OFFCURVE",
"36 26 OFFCURVE",
"36 10 CURVE SMOOTH",
"36 3 OFFCURVE",
"38 0 OFFCURVE",
"42 0 CURVE SMOOTH",
"50 0 OFFCURVE",
"65 13 OFFCURVE",
"92 13 CURVE SMOOTH",
"118 13 OFFCURVE",
"142 0 OFFCURVE",
"163 0 CURVE SMOOTH",
"181 0 OFFCURVE",
"197 10 OFFCURVE",
"222 42 CURVE SMOOTH",
"229 51 OFFCURVE",
"232 59 OFFCURVE",
"232 64 CURVE SMOOTH",
"232 69 OFFCURVE",
"230 71 OFFCURVE",
"226 71 CURVE SMOOTH",
"218 71 OFFCURVE",
"209 62 OFFCURVE",
"190 62 CURVE SMOOTH",
"178 62 OFFCURVE",
"166 65 OFFCURVE",
"160 68 CURVE",
"160 69 LINE",
"169 77 OFFCURVE",
"176 90 OFFCURVE",
"178 105 CURVE SMOOTH",
"206 262 LINE",
"379 262 LINE",
"353 84 LINE SMOOTH",
"343 18 OFFCURVE",
"361 -8 OFFCURVE",
"394 -8 CURVE SMOOTH"
);
}
);
width = 567;
},
{
anchors = (
{
name = bottom;
position = "{251, 0}";
},
{
name = center;
position = "{292, 280}";
},
{
name = top;
position = "{337, 560}";
}
);
background = {
anchors = (
{
name = bottom;
position = "{251, 0}";
},
{
name = center;
position = "{292, 280}";
},
{
name = top;
position = "{337, 560}";
}
);
paths = (
{
closed = 1;
nodes = (
"408 -8 OFFCURVE",
"484 51 OFFCURVE",
"484 82 CURVE SMOOTH",
"484 87 OFFCURVE",
"482 90 OFFCURVE",
"479 90 CURVE SMOOTH",
"471 90 OFFCURVE",
"450 61 OFFCURVE",
"427 61 CURVE SMOOTH",
"416 61 OFFCURVE",
"413 66 OFFCURVE",
"418 97 CURVE SMOOTH",
"475 466 LINE SMOOTH",
"498 614 OFFCURVE",
"534 662 OFFCURVE",
"633 674 CURVE SMOOTH",
"675 680 OFFCURVE",
"683 704 OFFCURVE",
"683 711 CURVE SMOOTH",
"683 714 OFFCURVE",
"682 716 OFFCURVE",
"679 716 CURVE SMOOTH",
"677 716 OFFCURVE",
"675 715 OFFCURVE",
"669 713 CURVE SMOOTH",
"662 711 OFFCURVE",
"653 710 OFFCURVE",
"643 709 CURVE SMOOTH",
"505 699 OFFCURVE",
"441 626 OFFCURVE",
"412 454 CURVE SMOOTH",
"390 324 LINE",
"196 324 LINE",
"218 462 LINE SMOOTH",
"222 486 OFFCURVE",
"225 515 OFFCURVE",
"239 560 CURVE",
"225 560 OFFCURVE",
"215 557 OFFCURVE",
"191 557 CURVE SMOOTH",
"167 557 OFFCURVE",
"146 560 OFFCURVE",
"128 560 CURVE SMOOTH",
"77 560 OFFCURVE",
"40 534 OFFCURVE",
"28 489 CURVE SMOOTH",
"27 485 OFFCURVE",
"26 480 OFFCURVE",
"26 475 CURVE SMOOTH",
"26 471 OFFCURVE",
"27 468 OFFCURVE",
"30 468 CURVE SMOOTH",
"34 468 OFFCURVE",
"37 474 OFFCURVE",
"43 482 CURVE SMOOTH",
"58 503 OFFCURVE",
"80 512 OFFCURVE",
"111 512 CURVE SMOOTH",
"130 512 OFFCURVE",
"153 508 OFFCURVE",
"165 508 CURVE",
"106 139 LINE SMOOTH",
"95 77 OFFCURVE",
"110 91 OFFCURVE",
"62 41 CURVE SMOOTH",
"50 29 OFFCURVE",
"44 20 OFFCURVE",
"44 8 CURVE SMOOTH",
"44 3 OFFCURVE",
"45 0 OFFCURVE",
"48 0 CURVE SMOOTH",
"55 0 OFFCURVE",
"69 14 OFFCURVE",
"89 14 CURVE SMOOTH",
"109 14 OFFCURVE",
"133 0 OFFCURVE",
"149 0 CURVE SMOOTH",
"155 0 OFFCURVE",
"169 2 OFFCURVE",
"198 33 CURVE SMOOTH",
"207 42 OFFCURVE",
"208 46 OFFCURVE",
"208 50 CURVE SMOOTH",
"208 54 OFFCURVE",
"206 56 OFFCURVE",
"203 56 CURVE SMOOTH",
"195 56 OFFCURVE",
"187 47 OFFCURVE",
"170 47 CURVE SMOOTH",
"160 47 OFFCURVE",
"154 50 OFFCURVE",
"142 54 CURVE",
"142 55 LINE",
"149 63 OFFCURVE",
"155 75 OFFCURVE",
"157 89 CURVE SMOOTH",
"188 270 LINE",
"381 270 LINE",
"352 74 LINE SMOOTH",
"345 22 OFFCURVE",
"356 -8 OFFCURVE",
"378 -8 CURVE SMOOTH"
);
}
);
};
layerId = "0B1DFD06-3317-40CA-B510-4969A0718C16";
paths = (
{
closed = 1;
nodes = (
"408 -8 OFFCURVE",
"484 51 OFFCURVE",
"484 82 CURVE SMOOTH",
"484 87 OFFCURVE",
"482 90 OFFCURVE",
"479 90 CURVE SMOOTH",
"471 90 OFFCURVE",
"450 61 OFFCURVE",
"427 61 CURVE SMOOTH",
"416 61 OFFCURVE",
"413 66 OFFCURVE",
"418 97 CURVE SMOOTH",
"475 466 LINE SMOOTH",
"498 614 OFFCURVE",
"534 662 OFFCURVE",
"633 674 CURVE SMOOTH",
"675 680 OFFCURVE",
"683 704 OFFCURVE",
"683 711 CURVE SMOOTH",
"683 714 OFFCURVE",
"682 716 OFFCURVE",
"679 716 CURVE SMOOTH",
"677 716 OFFCURVE",
"675 715 OFFCURVE",
"669 713 CURVE SMOOTH",
"662 711 OFFCURVE",
"653 710 OFFCURVE",
"643 709 CURVE SMOOTH",
"505 699 OFFCURVE",
"441 626 OFFCURVE",
"412 454 CURVE SMOOTH",
"390 324 LINE",
"196 324 LINE",
"218 462 LINE SMOOTH",
"222 486 OFFCURVE",
"225 515 OFFCURVE",
"239 560 CURVE",
"225 560 OFFCURVE",
"215 557 OFFCURVE",
"191 557 CURVE SMOOTH",
"167 557 OFFCURVE",
"146 560 OFFCURVE",
"128 560 CURVE SMOOTH",
"77 560 OFFCURVE",
"40 534 OFFCURVE",
"28 489 CURVE SMOOTH",
"27 485 OFFCURVE",
"26 480 OFFCURVE",
"26 475 CURVE SMOOTH",
"26 471 OFFCURVE",
"27 468 OFFCURVE",
"30 468 CURVE SMOOTH",
"34 468 OFFCURVE",
"37 474 OFFCURVE",
"43 482 CURVE SMOOTH",
"58 503 OFFCURVE",
"80 512 OFFCURVE",
"111 512 CURVE SMOOTH",
"130 512 OFFCURVE",
"153 508 OFFCURVE",
"165 508 CURVE",
"106 139 LINE SMOOTH",
"95 68 OFFCURVE",
"94 71 OFFCURVE",
"62 41 CURVE SMOOTH",
"50 29 OFFCURVE",
"44 20 OFFCURVE",
"44 8 CURVE SMOOTH",
"44 3 OFFCURVE",
"45 0 OFFCURVE",
"48 0 CURVE SMOOTH",
"55 0 OFFCURVE",
"69 14 OFFCURVE",
"89 14 CURVE SMOOTH",
"109 14 OFFCURVE",
"133 0 OFFCURVE",
"149 0 CURVE SMOOTH",
"155 0 OFFCURVE",
"169 2 OFFCURVE",
"198 33 CURVE SMOOTH",
"207 42 OFFCURVE",
"208 46 OFFCURVE",
"208 50 CURVE SMOOTH",
"208 54 OFFCURVE",
"206 56 OFFCURVE",
"203 56 CURVE SMOOTH",
"195 56 OFFCURVE",
"187 47 OFFCURVE",
"170 47 CURVE SMOOTH",
"160 47 OFFCURVE",
"154 50 OFFCURVE",
"142 54 CURVE",
"142 55 LINE",
"149 63 OFFCURVE",
"155 75 OFFCURVE",
"157 89 CURVE SMOOTH",
"188 270 LINE",
"381 270 LINE",
"352 74 LINE SMOOTH",
"345 22 OFFCURVE",
"356 -8 OFFCURVE",
"378 -8 CURVE SMOOTH"
);
}
);
width = 551;
}
);
leftKerningGroup = H;
note = H;
rightKerningGroup = H;
unicode = 0048;
},
{
glyphname = I;
lastChange = "2018-07-04 16:45:42 +0000";
layers = (
{
anchors = (
{
name = bottom;
position = "{113, 0}";
},
{
name = ogonek;
position = "{196, 8}";
},
{
name = top;
position = "{209, 560}";
},
{
name = topleft;
position = "{80, 529}";
}
);
background = {
anchors = (
{
name = bottom;
position = "{113, 0}";
},
{
name = ogonek;
position = "{196, 8}";
},
{
name = top;
position = "{209, 560}";
},
{
name = topleft;
position = "{80, 529}";
}
);
paths = (
{
closed = 1;
nodes = (
"38 0 OFFCURVE",
"55 13 OFFCURVE",
"93 13 CURVE SMOOTH",
"130 13 OFFCURVE",
"152 0 OFFCURVE",
"174 0 CURVE SMOOTH",
"193 0 OFFCURVE",
"216 9 OFFCURVE",
"238 40 CURVE SMOOTH",
"246 53 OFFCURVE",
"248 59 OFFCURVE",
"248 64 CURVE SMOOTH",
"248 68 OFFCURVE",
"246 71 OFFCURVE",
"242 71 CURVE SMOOTH",
"236 71 OFFCURVE",
"229 63 OFFCURVE",
"206 63 CURVE SMOOTH",
"193 63 OFFCURVE",
"181 65 OFFCURVE",
"165 68 CURVE",
"165 69 LINE",
"174 77 OFFCURVE",
"181 94 OFFCURVE",
"183 112 CURVE SMOOTH",
"239 502 LINE",
"251 503 OFFCURVE",
"267 503 OFFCURVE",
"279 505 CURVE SMOOTH",
"305 508 OFFCURVE",
"304 516 OFFCURVE",
"319 541 CURVE SMOOTH",
"324 549 OFFCURVE",
"326 553 OFFCURVE",
"326 558 CURVE SMOOTH",
"326 562 OFFCURVE",
"325 566 OFFCURVE",
"319 566 CURVE SMOOTH",
"313 566 OFFCURVE",
"312 565 OFFCURVE",
"265 562 CURVE SMOOTH",
"238 560 OFFCURVE",
"195 559 OFFCURVE",
"136 560 CURVE SMOOTH",
"104 560 OFFCURVE",
"82 545 OFFCURVE",
"68 518 CURVE SMOOTH",
"65 512 OFFCURVE",
"62 503 OFFCURVE",
"62 497 CURVE SMOOTH",
"62 492 OFFCURVE",
"64 488 OFFCURVE",
"69 488 CURVE SMOOTH",
"75 488 OFFCURVE",
"92 493 OFFCURVE",
"120 496 CURVE SMOOTH",
"137 498 OFFCURVE",
"145 498 OFFCURVE",
"153 498 CURVE",
"102 142 LINE SMOOTH",
"98 110 OFFCURVE",
"94 85 OFFCURVE",
"83 76 CURVE SMOOTH",
"77 70 OFFCURVE",
"58 63 OFFCURVE",
"52 60 CURVE SMOOTH",
"33 50 OFFCURVE",
"21 21 OFFCURVE",
"21 8 CURVE SMOOTH",
"21 3 OFFCURVE",
"22 0 OFFCURVE",
"27 0 CURVE SMOOTH"
);
}
);
};
layerId = "56450C88-1299-454A-B666-E6F9AF06B23F";
paths = (
{
closed = 1;
nodes = (
"38 0 OFFCURVE",
"55 13 OFFCURVE",
"93 13 CURVE SMOOTH",
"130 13 OFFCURVE",
"152 0 OFFCURVE",
"174 0 CURVE SMOOTH",
"193 0 OFFCURVE",
"216 9 OFFCURVE",
"238 40 CURVE SMOOTH",
"246 53 OFFCURVE",
"248 59 OFFCURVE",
"248 64 CURVE SMOOTH",
"248 68 OFFCURVE",
"246 71 OFFCURVE",
"242 71 CURVE SMOOTH",
"236 71 OFFCURVE",
"229 63 OFFCURVE",
"206 63 CURVE SMOOTH",
"193 63 OFFCURVE",
"181 65 OFFCURVE",
"165 68 CURVE",
"165 69 LINE",
"174 77 OFFCURVE",
"181 94 OFFCURVE",
"183 112 CURVE SMOOTH",
"239 502 LINE",
"251 503 OFFCURVE",
"267 503 OFFCURVE",
"279 505 CURVE SMOOTH",
"305 508 OFFCURVE",
"304 516 OFFCURVE",
"319 541 CURVE SMOOTH",
"324 549 OFFCURVE",
"326 553 OFFCURVE",
"326 558 CURVE SMOOTH",
"326 562 OFFCURVE",
"325 566 OFFCURVE",
"319 566 CURVE SMOOTH",
"313 566 OFFCURVE",
"312 565 OFFCURVE",
"265 562 CURVE SMOOTH",
"238 560 OFFCURVE",
"195 559 OFFCURVE",
"136 560 CURVE SMOOTH",
"104 560 OFFCURVE",
"82 545 OFFCURVE",
"68 518 CURVE SMOOTH",
"65 512 OFFCURVE",
"62 503 OFFCURVE",
"62 497 CURVE SMOOTH",
"62 492 OFFCURVE",
"64 488 OFFCURVE",
"69 488 CURVE SMOOTH",
"75 488 OFFCURVE",
"92 493 OFFCURVE",
"120 496 CURVE SMOOTH",
"137 498 OFFCURVE",
"145 498 OFFCURVE",
"153 498 CURVE",
"102 142 LINE SMOOTH",
"98 110 OFFCURVE",
"94 85 OFFCURVE",
"83 76 CURVE SMOOTH",
"77 70 OFFCURVE",
"58 63 OFFCURVE",
"52 60 CURVE SMOOTH",
"33 50 OFFCURVE",
"21 21 OFFCURVE",
"21 8 CURVE SMOOTH",
"21 3 OFFCURVE",
"22 0 OFFCURVE",
"27 0 CURVE SMOOTH"
);
}
);
width = 317;
},
{
anchors = (
{
name = bottom;
position = "{104, 0}";
},
{
name = ogonek;
position = "{167, 5}";
},
{
name = top;
position = "{204, 560}";
},
{
name = topleft;
position = "{90, 537}";
}
);
background = {
anchors = (
{
name = bottom;
position = "{104, 0}";
},
{
name = ogonek;
position = "{167, 5}";
},
{
name = top;
position = "{204, 560}";
},
{
name = topleft;
position = "{90, 537}";
}
);
paths = (
{
closed = 1;
nodes = (
"42 0 OFFCURVE",
"66 13 OFFCURVE",
"90 13 CURVE SMOOTH",
"114 13 OFFCURVE",
"145 0 OFFCURVE",
"162 0 CURVE SMOOTH",
"178 0 OFFCURVE",
"198 10 OFFCURVE",
"218 32 CURVE SMOOTH",
"227 43 OFFCURVE",
"228 48 OFFCURVE",
"228 51 CURVE SMOOTH",
"228 54 OFFCURVE",
"227 56 OFFCURVE",
"224 56 CURVE SMOOTH",
"218 56 OFFCURVE",
"211 46 OFFCURVE",
"191 46 CURVE SMOOTH",
"176 46 OFFCURVE",
"161 51 OFFCURVE",
"146 53 CURVE",
"146 54 LINE",
"154 62 OFFCURVE",
"160 75 OFFCURVE",
"161 86 CURVE SMOOTH",
"222 515 LINE",
"234 516 OFFCURVE",
"250 517 OFFCURVE",
"262 518 CURVE SMOOTH",
"286 519 OFFCURVE",
"290 529 OFFCURVE",
"300 546 CURVE SMOOTH",
"303 551 OFFCURVE",
"306 557 OFFCURVE",
"306 562 CURVE SMOOTH",
"306 565 OFFCURVE",
"304 567 OFFCURVE",
"301 567 CURVE SMOOTH",
"294 567 OFFCURVE",
"286 561 OFFCURVE",
"254 560 CURVE SMOOTH",
"230 559 OFFCURVE",
"176 558 OFFCURVE",
"140 557 CURVE SMOOTH",
"114 556 OFFCURVE",
"99 545 OFFCURVE",
"86 526 CURVE SMOOTH",
"82 520 OFFCURVE",
"79 514 OFFCURVE",
"79 509 CURVE SMOOTH",
"79 505 OFFCURVE",
"81 504 OFFCURVE",
"84 504 CURVE SMOOTH",
"91 504 OFFCURVE",
"104 510 OFFCURVE",
"131 512 CURVE SMOOTH",
"146 513 OFFCURVE",
"147 513 OFFCURVE",
"162 513 CURVE",
"108 131 LINE SMOOTH",
"102 89 OFFCURVE",
"98 69 OFFCURVE",
"83 59 CURVE SMOOTH",
"79 57 OFFCURVE",
"80 57 OFFCURVE",
"60 49 CURVE SMOOTH",
"42 42 OFFCURVE",
"29 17 OFFCURVE",
"29 6 CURVE SMOOTH",
"29 2 OFFCURVE",
"30 0 OFFCURVE",
"34 0 CURVE SMOOTH"
);
}
);
};
layerId = "0B1DFD06-3317-40CA-B510-4969A0718C16";
paths = (
{
closed = 1;
nodes = (
"43 0 OFFCURVE",
"67 13 OFFCURVE",
"91 13 CURVE SMOOTH",
"115 13 OFFCURVE",
"146 0 OFFCURVE",
"163 0 CURVE SMOOTH",
"179 0 OFFCURVE",
"199 10 OFFCURVE",
"219 32 CURVE SMOOTH",
"229 43 OFFCURVE",
"229 48 OFFCURVE",
"229 51 CURVE SMOOTH",
"229 54 OFFCURVE",
"228 56 OFFCURVE",
"225 56 CURVE SMOOTH",
"219 56 OFFCURVE",
"212 46 OFFCURVE",
"192 46 CURVE SMOOTH",
"177 46 OFFCURVE",
"162 51 OFFCURVE",
"147 53 CURVE",
"147 54 LINE",
"155 62 OFFCURVE",
"160 75 OFFCURVE",
"162 86 CURVE SMOOTH",
"223 515 LINE",
"235 516 OFFCURVE",
"251 517 OFFCURVE",
"263 518 CURVE SMOOTH",
"287 520 OFFCURVE",
"291 529 OFFCURVE",
"301 546 CURVE SMOOTH",
"304 551 OFFCURVE",
"307 557 OFFCURVE",
"307 562 CURVE SMOOTH",
"307 565 OFFCURVE",
"305 567 OFFCURVE",
"302 567 CURVE SMOOTH",
"295 567 OFFCURVE",
"287 561 OFFCURVE",
"255 560 CURVE SMOOTH",
"231 559 OFFCURVE",
"177 558 OFFCURVE",
"141 557 CURVE SMOOTH",
"115 556 OFFCURVE",
"100 545 OFFCURVE",
"87 526 CURVE SMOOTH",
"83 520 OFFCURVE",
"80 514 OFFCURVE",
"80 509 CURVE SMOOTH",
"80 505 OFFCURVE",
"82 504 OFFCURVE",
"85 504 CURVE SMOOTH",
"92 504 OFFCURVE",
"105 510 OFFCURVE",
"132 512 CURVE SMOOTH",
"147 513 OFFCURVE",
"148 513 OFFCURVE",
"163 513 CURVE",
"109 131 LINE SMOOTH",
"103 89 OFFCURVE",
"100 67 OFFCURVE",
"84 59 CURVE SMOOTH",
"80 57 OFFCURVE",
"81 57 OFFCURVE",
"61 49 CURVE SMOOTH",
"43 42 OFFCURVE",
"30 17 OFFCURVE",
"30 6 CURVE SMOOTH",
"30 2 OFFCURVE",
"31 0 OFFCURVE",
"35 0 CURVE SMOOTH"
);
}
);
width = 309;
}
);
leftKerningGroup = I;
note = I;
rightKerningGroup = I;
unicode = 0049;
},
{
glyphname = J;
lastChange = "2018-07-04 16:44:14 +0000";
layers = (
{
anchors = (
{
name = bottom;
position = "{73, -170}";
},
{
name = top;
position = "{275, 560}";
}
);
background = {
anchors = (
{
name = bottom;
position = "{73, -170}";
},
{
name = top;
position = "{275, 560}";
}
);
paths = (
{
closed = 1;
nodes = (
"190 -170 OFFCURVE",
"278 -62 OFFCURVE",
"303 117 CURVE SMOOTH",
"349 444 LINE SMOOTH",
"354 478 OFFCURVE",
"364 522 OFFCURVE",
"378 560 CURVE",
"361 556 OFFCURVE",
"344 552 OFFCURVE",
"317 552 CURVE SMOOTH",
"278 552 OFFCURVE",
"220 560 OFFCURVE",
"187 560 CURVE SMOOTH",
"120 560 OFFCURVE",
"65 527 OFFCURVE",
"51 473 CURVE SMOOTH",
"50 469 OFFCURVE",
"49 464 OFFCURVE",
"49 459 CURVE SMOOTH",
"49 454 OFFCURVE",
"50 450 OFFCURVE",
"55 450 CURVE SMOOTH",
"61 450 OFFCURVE",
"66 457 OFFCURVE",
"73 463 CURVE SMOOTH",
"100 487 OFFCURVE",
"131 491 OFFCURVE",
"159 491 CURVE SMOOTH",
"207 491 OFFCURVE",
"237 479 OFFCURVE",
"264 479 CURVE SMOOTH",
"269 479 LINE",
"210 70 LINE SMOOTH",
"192 -58 OFFCURVE",
"166 -109 OFFCURVE",
"113 -109 CURVE SMOOTH",
"67 -109 OFFCURVE",
"46 -72 OFFCURVE",
"37 -2 CURVE SMOOTH",
"36 6 OFFCURVE",
"34 9 OFFCURVE",
"29 9 CURVE SMOOTH",
"10 9 OFFCURVE",
"-46 -35 OFFCURVE",
"-45 -66 CURVE SMOOTH",
"-44 -87 OFFCURVE",
"-19 -170 OFFCURVE",
"78 -170 CURVE SMOOTH"
);
}
);
};
layerId = "56450C88-1299-454A-B666-E6F9AF06B23F";
paths = (
{
closed = 1;
nodes = (
"190 -170 OFFCURVE",
"278 -62 OFFCURVE",
"303 117 CURVE SMOOTH",
"349 444 LINE SMOOTH",
"354 478 OFFCURVE",
"364 522 OFFCURVE",
"378 560 CURVE",
"361 556 OFFCURVE",
"344 552 OFFCURVE",
"317 552 CURVE SMOOTH",
"278 552 OFFCURVE",
"220 560 OFFCURVE",
"187 560 CURVE SMOOTH",
"120 560 OFFCURVE",
"65 527 OFFCURVE",
"51 473 CURVE SMOOTH",
"50 469 OFFCURVE",
"49 464 OFFCURVE",
"49 459 CURVE SMOOTH",
"49 454 OFFCURVE",
"50 450 OFFCURVE",
"55 450 CURVE SMOOTH",
"61 450 OFFCURVE",
"66 457 OFFCURVE",
"73 463 CURVE SMOOTH",
"100 487 OFFCURVE",
"131 491 OFFCURVE",
"159 491 CURVE SMOOTH",
"207 491 OFFCURVE",
"237 479 OFFCURVE",
"264 479 CURVE SMOOTH",
"269 479 LINE",
"210 70 LINE SMOOTH",
"192 -58 OFFCURVE",
"166 -109 OFFCURVE",
"113 -109 CURVE SMOOTH",
"67 -109 OFFCURVE",
"46 -72 OFFCURVE",
"37 -2 CURVE SMOOTH",
"36 6 OFFCURVE",
"34 9 OFFCURVE",
"29 9 CURVE SMOOTH",
"10 9 OFFCURVE",
"-46 -35 OFFCURVE",
"-45 -66 CURVE SMOOTH",
"-44 -87 OFFCURVE",
"-19 -170 OFFCURVE",
"78 -170 CURVE SMOOTH"
);
}
);
width = 382;
},
{
anchors = (
{
name = bottom;
position = "{86, -170}";
},
{
name = top;
position = "{259, 560}";
}
);
background = {
anchors = (
{
name = bottom;
position = "{86, -170}";
},
{
name = top;
position = "{259, 560}";
}
);
paths = (
{
closed = 1;
nodes = (
"179 -170 OFFCURVE",
"254 -73 OFFCURVE",
"282 108 CURVE SMOOTH",
"338 470 LINE SMOOTH",
"342 494 OFFCURVE",
"343 516 OFFCURVE",
"358 560 CURVE",
"342 554 OFFCURVE",
"332 552 OFFCURVE",
"308 552 CURVE SMOOTH",
"263 552 OFFCURVE",
"237 560 OFFCURVE",
"195 560 CURVE SMOOTH",
"116 560 OFFCURVE",
"74 534 OFFCURVE",
"62 477 CURVE SMOOTH",
"61 472 OFFCURVE",
"61 471 OFFCURVE",
"61 468 CURVE SMOOTH",
"61 465 OFFCURVE",
"63 462 OFFCURVE",
"67 462 CURVE SMOOTH",
"71 462 OFFCURVE",
"74 465 OFFCURVE",
"82 474 CURVE SMOOTH",
"96 490 OFFCURVE",
"117 512 OFFCURVE",
"174 512 CURVE SMOOTH",
"218 512 OFFCURVE",
"249 499 OFFCURVE",
"279 499 CURVE SMOOTH",
"283 499 LINE",
"214 59 LINE SMOOTH",
"192 -78 OFFCURVE",
"164 -126 OFFCURVE",
"105 -126 CURVE SMOOTH",
"37 -126 OFFCURVE",
"29 -62 OFFCURVE",
"25 -22 CURVE SMOOTH",
"24 -13 OFFCURVE",
"23 -12 OFFCURVE",
"14 -15 CURVE SMOOTH",
"-9 -24 OFFCURVE",
"-37 -47 OFFCURVE",
"-36 -75 CURVE SMOOTH",
"-35 -103 OFFCURVE",
"-5 -170 OFFCURVE",
"78 -170 CURVE SMOOTH"
);
}
);
};
layerId = "0B1DFD06-3317-40CA-B510-4969A0718C16";
paths = (
{
closed = 1;
nodes = (
"179 -170 OFFCURVE",
"254 -73 OFFCURVE",
"282 108 CURVE SMOOTH",
"338 470 LINE SMOOTH",
"342 494 OFFCURVE",
"343 516 OFFCURVE",
"358 560 CURVE",
"342 554 OFFCURVE",
"332 552 OFFCURVE",
"308 552 CURVE SMOOTH",
"263 552 OFFCURVE",
"237 560 OFFCURVE",
"195 560 CURVE SMOOTH",
"116 560 OFFCURVE",
"74 534 OFFCURVE",
"62 477 CURVE SMOOTH",
"61 472 OFFCURVE",
"61 471 OFFCURVE",
"61 468 CURVE SMOOTH",
"61 465 OFFCURVE",
"63 462 OFFCURVE",
"67 462 CURVE SMOOTH",
"71 462 OFFCURVE",
"74 465 OFFCURVE",
"82 474 CURVE SMOOTH",
"96 490 OFFCURVE",
"117 512 OFFCURVE",
"174 512 CURVE SMOOTH",
"218 512 OFFCURVE",
"249 499 OFFCURVE",
"279 499 CURVE SMOOTH",
"283 499 LINE",
"214 59 LINE SMOOTH",
"192 -78 OFFCURVE",
"164 -126 OFFCURVE",
"105 -126 CURVE SMOOTH",
"37 -126 OFFCURVE",
"29 -62 OFFCURVE",
"25 -22 CURVE SMOOTH",
"24 -13 OFFCURVE",
"23 -12 OFFCURVE",
"14 -15 CURVE SMOOTH",
"-9 -24 OFFCURVE",
"-37 -47 OFFCURVE",
"-36 -75 CURVE SMOOTH",
"-35 -103 OFFCURVE",
"-5 -170 OFFCURVE",
"78 -170 CURVE SMOOTH"
);
}
);
width = 370;
}
);
leftKerningGroup = J;
note = J;
rightKerningGroup = J;
unicode = 004A;
},
{
glyphname = K;
lastChange = "2018-07-04 19:36:11 +0000";
layers = (
{
anchors = (
{
name = bottom;
position = "{296, 0}";
},
{
name = top;
position = "{350, 700}";
}
);
background = {
paths = (
{
closed = 1;
nodes = (
"422 -10 OFFCURVE",
"480 78 OFFCURVE",
"480 123 CURVE SMOOTH",
"480 131 OFFCURVE",
"478 135 OFFCURVE",
"473 135 CURVE SMOOTH",
"466 135 OFFCURVE",
"462 130 OFFCURVE",
"455 118 CURVE SMOOTH",
"447 106 OFFCURVE",
"429 76 OFFCURVE",
"407 76 CURVE SMOOTH",
"391 76 OFFCURVE",
"381 92 OFFCURVE",
"364 123 CURVE SMOOTH",
"261 310 LINE",
"415 496 LINE SMOOTH",
"455 544 OFFCURVE",
"494 585 OFFCURVE",
"533 613 CURVE SMOOTH",
"577 645 OFFCURVE",
"602 649 OFFCURVE",
"636 651 CURVE SMOOTH",
"672 653 OFFCURVE",
"699 681 OFFCURVE",
"699 701 CURVE SMOOTH",
"699 706 OFFCURVE",
"697 710 OFFCURVE",
"692 710 CURVE SMOOTH",
"688 710 OFFCURVE",
"685 707 OFFCURVE",
"676 705 CURVE SMOOTH",
"667 702 OFFCURVE",
"659 702 OFFCURVE",
"649 702 CURVE SMOOTH",
"606 700 OFFCURVE",
"561 698 OFFCURVE",
"504 662 CURVE SMOOTH",
"439 623 OFFCURVE",
"385 562 OFFCURVE",
"325 490 CURVE SMOOTH",
"220 363 LINE",
"234 452 LINE SMOOTH",
"242 496 OFFCURVE",
"247 522 OFFCURVE",
"259 560 CURVE",
"243 560 OFFCURVE",
"231 556 OFFCURVE",
"206 556 CURVE SMOOTH",
"103 556 OFFCURVE",
"37 564 OFFCURVE",
"19 475 CURVE SMOOTH",
"18 470 OFFCURVE",
"17 465 OFFCURVE",
"17 458 CURVE SMOOTH",
"17 453 OFFCURVE",
"19 450 OFFCURVE",
"23 450 CURVE SMOOTH",
"29 450 OFFCURVE",
"33 455 OFFCURVE",
"39 463 CURVE SMOOTH",
"57 487 OFFCURVE",
"78 493 OFFCURVE",
"107 493 CURVE SMOOTH",
"133 493 OFFCURVE",
"145 488 OFFCURVE",
"157 488 CURVE",
"101 140 LINE SMOOTH",
"92 86 OFFCURVE",
"86 72 OFFCURVE",
"63 50 CURVE SMOOTH",
"51 38 OFFCURVE",
"38 25 OFFCURVE",
"38 8 CURVE SMOOTH",
"38 0 OFFCURVE",
"40 -2 OFFCURVE",
"43 -2 CURVE SMOOTH",
"51 -2 OFFCURVE",
"67 11 OFFCURVE",
"94 11 CURVE SMOOTH",
"120 11 OFFCURVE",
"140 -2 OFFCURVE",
"163 -2 CURVE SMOOTH",
"181 -2 OFFCURVE",
"197 5 OFFCURVE",
"222 41 CURVE SMOOTH",
"228 49 OFFCURVE",
"231 57 OFFCURVE",
"231 63 CURVE SMOOTH",
"231 68 OFFCURVE",
"229 70 OFFCURVE",
"225 70 CURVE SMOOTH",
"217 70 OFFCURVE",
"209 61 OFFCURVE",
"189 61 CURVE SMOOTH",
"177 61 OFFCURVE",
"165 63 OFFCURVE",
"159 66 CURVE",
"159 67 LINE",
"168 75 OFFCURVE",
"175 89 OFFCURVE",
"177 103 CURVE SMOOTH",
"202 253 LINE",
"276 112 LINE SMOOTH",
"316 37 OFFCURVE",
"344 -10 OFFCURVE",
"377 -10 CURVE SMOOTH"
);
}
);
};
layerId = "56450C88-1299-454A-B666-E6F9AF06B23F";
paths = (
{
closed = 1;
nodes = (
"422 -8 OFFCURVE",
"480 80 OFFCURVE",
"480 125 CURVE SMOOTH",
"480 133 OFFCURVE",
"478 137 OFFCURVE",
"473 137 CURVE SMOOTH",
"466 137 OFFCURVE",
"462 132 OFFCURVE",
"455 120 CURVE SMOOTH",
"448 108 OFFCURVE",
"429 78 OFFCURVE",
"407 78 CURVE SMOOTH",
"391 78 OFFCURVE",
"381 92 OFFCURVE",
"364 123 CURVE SMOOTH",
"261 310 LINE",
"415 496 LINE SMOOTH",
"455 544 OFFCURVE",
"494 585 OFFCURVE",
"533 613 CURVE SMOOTH",
"577 645 OFFCURVE",
"602 649 OFFCURVE",
"636 651 CURVE SMOOTH",
"672 653 OFFCURVE",
"699 681 OFFCURVE",
"699 701 CURVE SMOOTH",
"699 706 OFFCURVE",
"697 710 OFFCURVE",
"692 710 CURVE SMOOTH",
"688 710 OFFCURVE",
"685 707 OFFCURVE",
"676 705 CURVE SMOOTH",
"667 702 OFFCURVE",
"659 702 OFFCURVE",
"649 702 CURVE SMOOTH",
"606 700 OFFCURVE",
"561 698 OFFCURVE",
"504 662 CURVE SMOOTH",
"439 623 OFFCURVE",
"385 562 OFFCURVE",
"325 490 CURVE SMOOTH",
"220 363 LINE",
"234 452 LINE SMOOTH",
"242 496 OFFCURVE",
"247 522 OFFCURVE",
"259 560 CURVE",
"243 560 OFFCURVE",
"231 556 OFFCURVE",
"206 556 CURVE SMOOTH",
"103 556 OFFCURVE",
"37 564 OFFCURVE",
"19 475 CURVE SMOOTH",
"18 470 OFFCURVE",
"17 465 OFFCURVE",
"17 458 CURVE SMOOTH",
"17 453 OFFCURVE",
"19 450 OFFCURVE",
"23 450 CURVE SMOOTH",
"29 450 OFFCURVE",
"33 455 OFFCURVE",
"39 463 CURVE SMOOTH",
"57 487 OFFCURVE",
"78 493 OFFCURVE",
"107 493 CURVE SMOOTH",
"133 493 OFFCURVE",
"145 488 OFFCURVE",
"157 488 CURVE",
"101 140 LINE SMOOTH",
"92 86 OFFCURVE",
"86 72 OFFCURVE",
"63 50 CURVE SMOOTH",
"51 38 OFFCURVE",
"38 25 OFFCURVE",
"38 8 CURVE SMOOTH",
"38 0 OFFCURVE",
"40 -2 OFFCURVE",
"43 -2 CURVE SMOOTH",
"51 -2 OFFCURVE",
"67 11 OFFCURVE",
"94 11 CURVE SMOOTH",
"120 11 OFFCURVE",
"140 -2 OFFCURVE",
"163 -2 CURVE SMOOTH",
"181 -2 OFFCURVE",
"197 5 OFFCURVE",
"222 41 CURVE SMOOTH",
"228 49 OFFCURVE",
"231 57 OFFCURVE",
"231 63 CURVE SMOOTH",
"231 68 OFFCURVE",
"229 70 OFFCURVE",
"225 70 CURVE SMOOTH",
"217 70 OFFCURVE",
"209 61 OFFCURVE",
"189 61 CURVE SMOOTH",
"177 61 OFFCURVE",
"165 63 OFFCURVE",
"159 66 CURVE",
"159 67 LINE",
"168 75 OFFCURVE",
"175 89 OFFCURVE",
"177 103 CURVE SMOOTH",
"202 253 LINE",
"276 112 LINE SMOOTH",
"316 37 OFFCURVE",
"344 -8 OFFCURVE",
"377 -8 CURVE SMOOTH"
);
}
);
width = 634;
},
{
anchors = (
{
name = bottom;
position = "{223, 0}";
},
{
name = top;
position = "{276, 560}";
}
);
background = {
paths = (
{
closed = 1;
nodes = (
"403 -8 OFFCURVE",
"456 72 OFFCURVE",
"456 100 CURVE SMOOTH",
"456 104 OFFCURVE",
"455 109 OFFCURVE",
"450 109 CURVE SMOOTH",
"445 109 OFFCURVE",
"441 103 OFFCURVE",
"435 95 CURVE SMOOTH",
"423 79 OFFCURVE",
"405 60 OFFCURVE",
"390 60 CURVE SMOOTH",
"375 60 OFFCURVE",
"366 76 OFFCURVE",
"347 113 CURVE SMOOTH",
"245 310 LINE",
"347 458 LINE SMOOTH",
"417 560 OFFCURVE",
"462 614 OFFCURVE",
"498 636 CURVE SMOOTH",
"545 665 OFFCURVE",
"576 659 OFFCURVE",
"624 666 CURVE SMOOTH",
"662 672 OFFCURVE",
"674 689 OFFCURVE",
"674 703 CURVE SMOOTH",
"674 707 OFFCURVE",
"672 708 OFFCURVE",
"670 708 CURVE SMOOTH",
"667 708 OFFCURVE",
"666 707 OFFCURVE",
"660 705 CURVE SMOOTH",
"654 703 OFFCURVE",
"651 702 OFFCURVE",
"637 701 CURVE SMOOTH",
"572 696 OFFCURVE",
"523 692 OFFCURVE",
"477 669 CURVE SMOOTH",
"418 640 OFFCURVE",
"375 586 OFFCURVE",
"303 482 CURVE SMOOTH",
"194 324 LINE",
"215 462 LINE SMOOTH",
"220 496 OFFCURVE",
"229 531 OFFCURVE",
"239 560 CURVE",
"222 560 OFFCURVE",
"214 557 OFFCURVE",
"191 557 CURVE SMOOTH",
"167 557 OFFCURVE",
"146 560 OFFCURVE",
"128 560 CURVE SMOOTH",
"77 560 OFFCURVE",
"39 534 OFFCURVE",
"28 489 CURVE SMOOTH",
"27 485 OFFCURVE",
"26 480 OFFCURVE",
"26 475 CURVE SMOOTH",
"26 471 OFFCURVE",
"27 468 OFFCURVE",
"30 468 CURVE SMOOTH",
"34 468 OFFCURVE",
"37 474 OFFCURVE",
"43 482 CURVE SMOOTH",
"58 502 OFFCURVE",
"80 512 OFFCURVE",
"111 512 CURVE SMOOTH",
"130 512 OFFCURVE",
"151 508 OFFCURVE",
"163 508 CURVE",
"104 139 LINE SMOOTH",
"94 78 OFFCURVE",
"108 91 OFFCURVE",
"60 41 CURVE SMOOTH",
"48 29 OFFCURVE",
"43 20 OFFCURVE",
"43 8 CURVE SMOOTH",
"43 3 OFFCURVE",
"44 0 OFFCURVE",
"47 0 CURVE SMOOTH",
"53 0 OFFCURVE",
"67 14 OFFCURVE",
"87 14 CURVE SMOOTH",
"107 14 OFFCURVE",
"131 0 OFFCURVE",
"147 0 CURVE SMOOTH",
"154 0 OFFCURVE",
"167 2 OFFCURVE",
"196 33 CURVE SMOOTH",
"205 42 OFFCURVE",
"207 47 OFFCURVE",
"207 51 CURVE SMOOTH",
"207 54 OFFCURVE",
"205 56 OFFCURVE",
"202 56 CURVE SMOOTH",
"195 56 OFFCURVE",
"186 47 OFFCURVE",
"168 47 CURVE SMOOTH",
"159 47 OFFCURVE",
"152 50 OFFCURVE",
"140 54 CURVE",
"140 55 LINE",
"147 62 OFFCURVE",
"153 74 OFFCURVE",
"155 89 CURVE SMOOTH",
"188 288 LINE",
"280 108 LINE SMOOTH",
"314 42 OFFCURVE",
"340 -8 OFFCURVE",
"368 -8 CURVE SMOOTH"
);
}
);
};
layerId = "0B1DFD06-3317-40CA-B510-4969A0718C16";
paths = (
{
closed = 1;
nodes = (
"403 -8 OFFCURVE",
"456 72 OFFCURVE",
"456 100 CURVE SMOOTH",
"456 104 OFFCURVE",
"455 109 OFFCURVE",
"450 109 CURVE SMOOTH",
"445 109 OFFCURVE",
"441 103 OFFCURVE",
"435 95 CURVE SMOOTH",
"423 79 OFFCURVE",
"405 60 OFFCURVE",
"390 60 CURVE SMOOTH",
"375 60 OFFCURVE",
"366 76 OFFCURVE",
"347 113 CURVE SMOOTH",
"245 310 LINE",
"347 458 LINE SMOOTH",
"417 560 OFFCURVE",
"462 614 OFFCURVE",
"498 636 CURVE SMOOTH",
"545 665 OFFCURVE",
"576 659 OFFCURVE",
"624 666 CURVE SMOOTH",
"662 672 OFFCURVE",
"674 689 OFFCURVE",
"674 703 CURVE SMOOTH",
"674 707 OFFCURVE",
"672 708 OFFCURVE",
"670 708 CURVE SMOOTH",
"667 708 OFFCURVE",
"666 707 OFFCURVE",
"660 705 CURVE SMOOTH",
"654 703 OFFCURVE",
"651 702 OFFCURVE",
"637 701 CURVE SMOOTH",
"572 696 OFFCURVE",
"523 692 OFFCURVE",
"477 669 CURVE SMOOTH",
"418 640 OFFCURVE",
"375 586 OFFCURVE",
"303 482 CURVE SMOOTH",
"194 324 LINE",
"215 462 LINE SMOOTH",
"220 496 OFFCURVE",
"229 531 OFFCURVE",
"239 560 CURVE",
"222 560 OFFCURVE",
"214 557 OFFCURVE",
"191 557 CURVE SMOOTH",
"167 557 OFFCURVE",
"146 560 OFFCURVE",
"128 560 CURVE SMOOTH",
"77 560 OFFCURVE",
"39 534 OFFCURVE",
"28 489 CURVE SMOOTH",
"27 485 OFFCURVE",
"26 480 OFFCURVE",
"26 475 CURVE SMOOTH",
"26 471 OFFCURVE",
"27 468 OFFCURVE",
"30 468 CURVE SMOOTH",
"34 468 OFFCURVE",
"37 474 OFFCURVE",
"43 482 CURVE SMOOTH",
"58 502 OFFCURVE",
"80 512 OFFCURVE",
"111 512 CURVE SMOOTH",
"130 512 OFFCURVE",
"151 508 OFFCURVE",
"163 508 CURVE",
"104 139 LINE SMOOTH",
"93 68 OFFCURVE",
"92 71 OFFCURVE",
"60 41 CURVE SMOOTH",
"48 29 OFFCURVE",
"43 20 OFFCURVE",
"43 8 CURVE SMOOTH",
"43 3 OFFCURVE",
"44 0 OFFCURVE",
"47 0 CURVE SMOOTH",
"53 0 OFFCURVE",
"67 14 OFFCURVE",
"87 14 CURVE SMOOTH",
"107 14 OFFCURVE",
"131 0 OFFCURVE",
"147 0 CURVE SMOOTH",
"154 0 OFFCURVE",
"167 2 OFFCURVE",
"196 33 CURVE SMOOTH",
"205 42 OFFCURVE",
"207 47 OFFCURVE",
"207 51 CURVE SMOOTH",
"207 54 OFFCURVE",
"205 56 OFFCURVE",
"202 56 CURVE SMOOTH",
"195 56 OFFCURVE",
"186 47 OFFCURVE",
"168 47 CURVE SMOOTH",
"159 47 OFFCURVE",
"152 50 OFFCURVE",
"140 54 CURVE",
"140 55 LINE",
"147 62 OFFCURVE",
"153 74 OFFCURVE",
"155 89 CURVE SMOOTH",
"188 288 LINE",
"280 108 LINE SMOOTH",
"314 42 OFFCURVE",
"340 -8 OFFCURVE",
"368 -8 CURVE SMOOTH"
);
}
);
width = 496;
}
);
leftKerningGroup = H;
note = K;
rightKerningGroup = K;
unicode = 004B;
},
{
glyphname = L;
lastChange = "2018-07-04 16:43:42 +0000";
layers = (
{
anchors = (
{
name = bottom;
position = "{157, 0}";
},
{
name = center;
position = "{291, 280}";
},
{
name = top;
position = "{303, 600}";
},
{
name = topright;
position = "{436, 600}";
}
);
background = {
anchors = (
{
name = bottom;
position = "{157, 0}";
},
{
name = center;
position = "{291, 280}";
},
{
name = top;
position = "{303, 600}";
},
{
name = topright;
position = "{436, 600}";
}
);
paths = (
{
closed = 1;
nodes = (
"-18 0 OFFCURVE",
"-15 14 OFFCURVE",
"34 14 CURVE SMOOTH",
"84 14 OFFCURVE",
"158 0 OFFCURVE",
"206 0 CURVE SMOOTH",
"305 0 OFFCURVE",
"376 56 OFFCURVE",
"376 98 CURVE SMOOTH",
"376 106 OFFCURVE",
"374 110 OFFCURVE",
"369 110 CURVE SMOOTH",
"362 110 OFFCURVE",
"355 104 OFFCURVE",
"352 102 CURVE SMOOTH",
"324 82 OFFCURVE",
"299 70 OFFCURVE",
"232 70 CURVE SMOOTH",
"197 70 OFFCURVE",
"150 74 OFFCURVE",
"126 78 CURVE",
"126 79 LINE",
"138 93 OFFCURVE",
"148 113 OFFCURVE",
"154 146 CURVE SMOOTH",
"203 447 LINE SMOOTH",
"213 506 OFFCURVE",
"224 533 OFFCURVE",
"246 549 CURVE SMOOTH",
"256 557 OFFCURVE",
"269 560 OFFCURVE",
"285 560 CURVE SMOOTH",
"313 560 OFFCURVE",
"326 550 OFFCURVE",
"337 550 CURVE SMOOTH",
"357 550 OFFCURVE",
"403 581 OFFCURVE",
"403 594 CURVE SMOOTH",
"403 597 OFFCURVE",
"398 600 OFFCURVE",
"384 605 CURVE SMOOTH",
"363 612 OFFCURVE",
"346 616 OFFCURVE",
"319 616 CURVE SMOOTH",
"266 616 OFFCURVE",
"226 594 OFFCURVE",
"189 560 CURVE SMOOTH",
"146 521 OFFCURVE",
"123 481 OFFCURVE",
"115 433 CURVE SMOOTH",
"71 166 LINE SMOOTH",
"65 126 OFFCURVE",
"57 101 OFFCURVE",
"45 83 CURVE",
"41 83 OFFCURVE",
"33 83 OFFCURVE",
"27 83 CURVE SMOOTH",
"-4 83 OFFCURVE",
"-37 46 OFFCURVE",
"-37 10 CURVE SMOOTH",
"-37 2 OFFCURVE",
"-35 0 OFFCURVE",
"-30 0 CURVE SMOOTH"
);
}
);
};
layerId = "56450C88-1299-454A-B666-E6F9AF06B23F";
paths = (
{
closed = 1;
nodes = (
"-18 0 OFFCURVE",
"-15 14 OFFCURVE",
"34 14 CURVE SMOOTH",
"84 14 OFFCURVE",
"158 0 OFFCURVE",
"206 0 CURVE SMOOTH",
"305 0 OFFCURVE",
"376 56 OFFCURVE",
"376 98 CURVE SMOOTH",
"376 106 OFFCURVE",
"374 110 OFFCURVE",
"369 110 CURVE SMOOTH",
"362 110 OFFCURVE",
"355 104 OFFCURVE",
"352 102 CURVE SMOOTH",
"324 82 OFFCURVE",
"299 70 OFFCURVE",
"232 70 CURVE SMOOTH",
"197 70 OFFCURVE",
"150 74 OFFCURVE",
"126 78 CURVE",
"126 79 LINE",
"138 93 OFFCURVE",
"148 113 OFFCURVE",
"154 146 CURVE SMOOTH",
"203 447 LINE SMOOTH",
"213 506 OFFCURVE",
"224 533 OFFCURVE",
"246 549 CURVE SMOOTH",
"256 557 OFFCURVE",
"269 560 OFFCURVE",
"285 560 CURVE SMOOTH",
"313 560 OFFCURVE",
"326 550 OFFCURVE",
"337 550 CURVE SMOOTH",
"357 550 OFFCURVE",
"403 581 OFFCURVE",
"403 594 CURVE SMOOTH",
"403 597 OFFCURVE",
"398 600 OFFCURVE",
"384 605 CURVE SMOOTH",
"363 612 OFFCURVE",
"346 616 OFFCURVE",
"319 616 CURVE SMOOTH",
"266 616 OFFCURVE",
"226 594 OFFCURVE",
"189 560 CURVE SMOOTH",
"146 521 OFFCURVE",
"123 481 OFFCURVE",
"115 433 CURVE SMOOTH",
"71 166 LINE SMOOTH",
"65 126 OFFCURVE",
"57 101 OFFCURVE",
"45 83 CURVE",
"41 83 OFFCURVE",
"33 83 OFFCURVE",
"27 83 CURVE SMOOTH",
"-4 83 OFFCURVE",
"-37 46 OFFCURVE",
"-37 10 CURVE SMOOTH",
"-37 2 OFFCURVE",
"-35 0 OFFCURVE",
"-30 0 CURVE SMOOTH"
);
}
);
width = 408;
},
{
anchors = (
{
name = bottom;
position = "{147, 0}";
},
{
name = center;
position = "{285, 280}";
},
{
name = top;
position = "{326, 600}";
},
{
name = topright;
position = "{412, 600}";
}
);
background = {
anchors = (
{
name = bottom;
position = "{147, 0}";
},
{
name = center;
position = "{285, 280}";
},
{
name = top;
position = "{326, 600}";
},
{
name = topright;
position = "{412, 600}";
}
);
paths = (
{
closed = 1;
nodes = (
"-14 0 OFFCURVE",
"-11 14 OFFCURVE",
"41 14 CURVE SMOOTH",
"93 14 OFFCURVE",
"158 0 OFFCURVE",
"203 0 CURVE SMOOTH",
"293 0 OFFCURVE",
"364 54 OFFCURVE",
"364 83 CURVE SMOOTH",
"364 88 OFFCURVE",
"363 92 OFFCURVE",
"359 92 CURVE SMOOTH",
"357 92 OFFCURVE",
"353 90 OFFCURVE",
"348 87 CURVE SMOOTH",
"315 66 OFFCURVE",
"271 53 OFFCURVE",
"221 53 CURVE SMOOTH",
"194 53 OFFCURVE",
"125 57 OFFCURVE",
"102 62 CURVE",
"102 63 LINE",
"115 75 OFFCURVE",
"126 98 OFFCURVE",
"130 120 CURVE SMOOTH",
"189 457 LINE SMOOTH",
"197 506 OFFCURVE",
"210 540 OFFCURVE",
"233 559 CURVE SMOOTH",
"246 571 OFFCURVE",
"264 578 OFFCURVE",
"286 578 CURVE SMOOTH",
"310 578 OFFCURVE",
"325 570 OFFCURVE",
"334 570 CURVE SMOOTH",
"347 570 OFFCURVE",
"382 585 OFFCURVE",
"382 595 CURVE SMOOTH",
"382 598 OFFCURVE",
"380 601 OFFCURVE",
"372 605 CURVE SMOOTH",
"358 612 OFFCURVE",
"334 616 OFFCURVE",
"313 616 CURVE SMOOTH",
"268 616 OFFCURVE",
"230 598 OFFCURVE",
"193 562 CURVE SMOOTH",
"150 520 OFFCURVE",
"134 482 OFFCURVE",
"127 441 CURVE SMOOTH",
"78 154 LINE SMOOTH",
"69 102 OFFCURVE",
"58 82 OFFCURVE",
"46 66 CURVE",
"40 66 OFFCURVE",
"36 66 OFFCURVE",
"27 66 CURVE SMOOTH",
"2 66 OFFCURVE",
"-29 29 OFFCURVE",
"-29 7 CURVE SMOOTH",
"-29 4 OFFCURVE",
"-28 0 OFFCURVE",
"-24 0 CURVE SMOOTH"
);
}
);
};
layerId = "0B1DFD06-3317-40CA-B510-4969A0718C16";
paths = (
{
closed = 1;
nodes = (
"-13 0 OFFCURVE",
"-10 14 OFFCURVE",
"42 14 CURVE SMOOTH",
"94 14 OFFCURVE",
"159 0 OFFCURVE",
"204 0 CURVE SMOOTH",
"294 0 OFFCURVE",
"365 54 OFFCURVE",
"365 83 CURVE SMOOTH",
"365 88 OFFCURVE",
"364 92 OFFCURVE",
"360 92 CURVE SMOOTH",
"358 92 OFFCURVE",
"354 90 OFFCURVE",
"349 87 CURVE SMOOTH",
"315 67 OFFCURVE",
"272 53 OFFCURVE",
"222 53 CURVE SMOOTH",
"195 53 OFFCURVE",
"126 57 OFFCURVE",
"103 62 CURVE",
"103 63 LINE",
"116 75 OFFCURVE",
"127 98 OFFCURVE",
"131 120 CURVE SMOOTH",
"190 457 LINE SMOOTH",
"199 506 OFFCURVE",
"211 541 OFFCURVE",
"234 559 CURVE SMOOTH",
"248 570 OFFCURVE",
"265 578 OFFCURVE",
"287 578 CURVE SMOOTH",
"311 578 OFFCURVE",
"326 570 OFFCURVE",
"335 570 CURVE SMOOTH",
"348 570 OFFCURVE",
"383 585 OFFCURVE",
"383 595 CURVE SMOOTH",
"383 598 OFFCURVE",
"381 601 OFFCURVE",
"373 605 CURVE SMOOTH",
"359 612 OFFCURVE",
"335 616 OFFCURVE",
"314 616 CURVE SMOOTH",
"269 616 OFFCURVE",
"231 598 OFFCURVE",
"194 562 CURVE SMOOTH",
"151 520 OFFCURVE",
"135 482 OFFCURVE",
"128 441 CURVE SMOOTH",
"79 154 LINE SMOOTH",
"70 102 OFFCURVE",
"59 82 OFFCURVE",
"47 66 CURVE",
"41 66 OFFCURVE",
"37 66 OFFCURVE",
"28 66 CURVE SMOOTH",
"3 66 OFFCURVE",
"-28 29 OFFCURVE",
"-28 7 CURVE SMOOTH",
"-28 4 OFFCURVE",
"-27 0 OFFCURVE",
"-23 0 CURVE SMOOTH"
);
}
);
width = 395;
}
);
leftKerningGroup = L;
note = L;
rightKerningGroup = L;
unicode = 004C;
},
{
glyphname = M;
lastChange = "2018-07-04 16:43:20 +0000";
layers = (
{
anchors = (
{
name = bottom;
position = "{275, 0}";
},
{
name = top;
position = "{372, 560}";
}
);
background = {
anchors = (
{
name = bottom;
position = "{275, 0}";
},
{
name = top;
position = "{372, 560}";
}
);
paths = (
{
closed = 1;
nodes = (
"39 0 OFFCURVE",
"54 13 OFFCURVE",
"82 13 CURVE SMOOTH",
"108 13 OFFCURVE",
"119 0 OFFCURVE",
"142 0 CURVE SMOOTH",
"162 0 OFFCURVE",
"177 8 OFFCURVE",
"202 42 CURVE SMOOTH",
"208 51 OFFCURVE",
"211 57 OFFCURVE",
"211 63 CURVE SMOOTH",
"211 69 OFFCURVE",
"209 71 OFFCURVE",
"205 71 CURVE SMOOTH",
"197 71 OFFCURVE",
"190 62 OFFCURVE",
"171 62 CURVE SMOOTH",
"161 62 OFFCURVE",
"148 65 OFFCURVE",
"142 68 CURVE",
"142 69 LINE",
"150 76 OFFCURVE",
"156 100 OFFCURVE",
"158 107 CURVE SMOOTH",
"207 352 LINE",
"208 351 LINE",
"210 340 OFFCURVE",
"238 215 OFFCURVE",
"240 207 CURVE SMOOTH",
"258 126 OFFCURVE",
"260 102 OFFCURVE",
"266 40 CURVE SMOOTH",
"267 33 OFFCURVE",
"268 30 OFFCURVE",
"271 30 CURVE SMOOTH",
"284 30 OFFCURVE",
"323 80 OFFCURVE",
"345 116 CURVE",
"376 195 OFFCURVE",
"430 300 OFFCURVE",
"474 370 CURVE",
"475 370 LINE",
"458 228 OFFCURVE",
"466 314 OFFCURVE",
"445 89 CURVE SMOOTH",
"443 69 OFFCURVE",
"434 69 OFFCURVE",
"413 52 CURVE SMOOTH",
"394 37 OFFCURVE",
"387 24 OFFCURVE",
"387 10 CURVE SMOOTH",
"387 2 OFFCURVE",
"390 0 OFFCURVE",
"393 0 CURVE SMOOTH",
"401 0 OFFCURVE",
"416 13 OFFCURVE",
"443 13 CURVE SMOOTH",
"470 13 OFFCURVE",
"494 0 OFFCURVE",
"515 0 CURVE SMOOTH",
"530 0 OFFCURVE",
"550 6 OFFCURVE",
"578 42 CURVE SMOOTH",
"586 51 OFFCURVE",
"588 58 OFFCURVE",
"588 63 CURVE SMOOTH",
"588 69 OFFCURVE",
"586 71 OFFCURVE",
"582 71 CURVE SMOOTH",
"574 71 OFFCURVE",
"563 62 OFFCURVE",
"544 62 CURVE SMOOTH",
"534 62 OFFCURVE",
"522 65 OFFCURVE",
"512 70 CURVE",
"512 71 LINE",
"521 79 OFFCURVE",
"529 97 OFFCURVE",
"531 118 CURVE SMOOTH",
"552 299 OFFCURVE",
"554 386 OFFCURVE",
"569 480 CURVE SMOOTH",
"583 578 OFFCURVE",
"602 625 OFFCURVE",
"643 645 CURVE SMOOTH",
"666 656 OFFCURVE",
"688 657 OFFCURVE",
"719 658 CURVE SMOOTH",
"750 658 OFFCURVE",
"782 685 OFFCURVE",
"782 707 CURVE SMOOTH",
"782 713 OFFCURVE",
"780 716 OFFCURVE",
"776 716 CURVE SMOOTH",
"772 716 OFFCURVE",
"769 714 OFFCURVE",
"760 711 CURVE SMOOTH",
"753 709 OFFCURVE",
"741 708 OFFCURVE",
"732 708 CURVE SMOOTH",
"689 708 OFFCURVE",
"652 705 OFFCURVE",
"617 688 CURVE SMOOTH",
"566 663 OFFCURVE",
"537 620 OFFCURVE",
"496 536 CURVE SMOOTH",
"461 464 OFFCURVE",
"472 476 OFFCURVE",
"325 210 CURVE",
"324 217 OFFCURVE",
"321 229 OFFCURVE",
"318 238 CURVE SMOOTH",
"293 345 LINE SMOOTH",
"274 425 OFFCURVE",
"262 480 OFFCURVE",
"262 523 CURVE SMOOTH",
"262 534 OFFCURVE",
"263 549 OFFCURVE",
"264 560 CURVE",
"248 560 OFFCURVE",
"234 556 OFFCURVE",
"207 556 CURVE SMOOTH",
"180 556 OFFCURVE",
"160 560 OFFCURVE",
"138 560 CURVE SMOOTH",
"74 560 OFFCURVE",
"30 525 OFFCURVE",
"19 471 CURVE SMOOTH",
"18 466 OFFCURVE",
"18 462 OFFCURVE",
"18 458 CURVE SMOOTH",
"18 452 OFFCURVE",
"21 450 OFFCURVE",
"25 450 CURVE SMOOTH",
"30 450 OFFCURVE",
"34 455 OFFCURVE",
"40 463 CURVE SMOOTH",
"59 487 OFFCURVE",
"79 493 OFFCURVE",
"108 493 CURVE SMOOTH",
"134 493 OFFCURVE",
"146 488 OFFCURVE",
"159 488 CURVE SMOOTH",
"164 488 LINE",
"90 135 LINE SMOOTH",
"78 78 OFFCURVE",
"73 73 OFFCURVE",
"51 52 CURVE SMOOTH",
"35 37 OFFCURVE",
"26 25 OFFCURVE",
"26 10 CURVE SMOOTH",
"26 2 OFFCURVE",
"28 0 OFFCURVE",
"31 0 CURVE SMOOTH"
);
}
);
};
layerId = "56450C88-1299-454A-B666-E6F9AF06B23F";
paths = (
{
closed = 1;
nodes = (
"39 0 OFFCURVE",
"54 13 OFFCURVE",
"82 13 CURVE SMOOTH",
"108 13 OFFCURVE",
"119 0 OFFCURVE",
"142 0 CURVE SMOOTH",
"162 0 OFFCURVE",
"177 8 OFFCURVE",
"202 42 CURVE SMOOTH",
"208 51 OFFCURVE",
"211 57 OFFCURVE",
"211 63 CURVE SMOOTH",
"211 69 OFFCURVE",
"209 71 OFFCURVE",
"205 71 CURVE SMOOTH",
"197 71 OFFCURVE",
"190 62 OFFCURVE",
"171 62 CURVE SMOOTH",
"161 62 OFFCURVE",
"148 65 OFFCURVE",
"142 68 CURVE",
"142 69 LINE",
"150 76 OFFCURVE",
"156 100 OFFCURVE",
"158 107 CURVE SMOOTH",
"207 352 LINE",
"208 351 LINE",
"210 340 OFFCURVE",
"238 215 OFFCURVE",
"240 207 CURVE SMOOTH",
"258 126 OFFCURVE",
"260 102 OFFCURVE",
"266 40 CURVE SMOOTH",
"267 33 OFFCURVE",
"268 30 OFFCURVE",
"271 30 CURVE SMOOTH",
"284 30 OFFCURVE",
"323 80 OFFCURVE",
"345 116 CURVE",
"376 195 OFFCURVE",
"430 300 OFFCURVE",
"474 370 CURVE",
"475 370 LINE",
"458 228 OFFCURVE",
"466 314 OFFCURVE",
"445 89 CURVE SMOOTH",
"443 69 OFFCURVE",
"434 69 OFFCURVE",
"413 52 CURVE SMOOTH",
"394 37 OFFCURVE",
"387 24 OFFCURVE",
"387 10 CURVE SMOOTH",
"387 2 OFFCURVE",
"390 0 OFFCURVE",
"393 0 CURVE SMOOTH",
"401 0 OFFCURVE",
"416 13 OFFCURVE",
"443 13 CURVE SMOOTH",
"470 13 OFFCURVE",
"494 0 OFFCURVE",
"515 0 CURVE SMOOTH",
"530 0 OFFCURVE",
"550 6 OFFCURVE",
"578 42 CURVE SMOOTH",
"586 51 OFFCURVE",
"588 58 OFFCURVE",
"588 63 CURVE SMOOTH",
"588 69 OFFCURVE",
"586 71 OFFCURVE",
"582 71 CURVE SMOOTH",
"574 71 OFFCURVE",
"563 62 OFFCURVE",
"544 62 CURVE SMOOTH",
"534 62 OFFCURVE",
"522 65 OFFCURVE",
"512 70 CURVE",
"512 71 LINE",
"521 79 OFFCURVE",
"529 97 OFFCURVE",
"531 118 CURVE SMOOTH",
"552 299 OFFCURVE",
"554 386 OFFCURVE",
"569 480 CURVE SMOOTH",
"583 578 OFFCURVE",
"602 625 OFFCURVE",
"643 645 CURVE SMOOTH",
"666 656 OFFCURVE",
"688 657 OFFCURVE",
"719 658 CURVE SMOOTH",
"750 658 OFFCURVE",
"782 685 OFFCURVE",
"782 707 CURVE SMOOTH",
"782 713 OFFCURVE",
"780 716 OFFCURVE",
"776 716 CURVE SMOOTH",
"772 716 OFFCURVE",
"769 714 OFFCURVE",
"760 711 CURVE SMOOTH",
"753 709 OFFCURVE",
"741 708 OFFCURVE",
"732 708 CURVE SMOOTH",
"689 708 OFFCURVE",
"652 705 OFFCURVE",
"617 688 CURVE SMOOTH",
"566 663 OFFCURVE",
"537 620 OFFCURVE",
"496 536 CURVE SMOOTH",
"461 464 OFFCURVE",
"472 476 OFFCURVE",
"325 210 CURVE",
"324 217 OFFCURVE",
"321 229 OFFCURVE",
"318 238 CURVE SMOOTH",
"293 345 LINE SMOOTH",
"274 425 OFFCURVE",
"262 480 OFFCURVE",
"262 523 CURVE SMOOTH",
"262 534 OFFCURVE",
"263 549 OFFCURVE",
"264 560 CURVE",
"248 560 OFFCURVE",
"234 556 OFFCURVE",
"207 556 CURVE SMOOTH",
"180 556 OFFCURVE",
"160 560 OFFCURVE",
"138 560 CURVE SMOOTH",
"74 560 OFFCURVE",
"30 525 OFFCURVE",
"19 471 CURVE SMOOTH",
"18 466 OFFCURVE",
"18 462 OFFCURVE",
"18 458 CURVE SMOOTH",
"18 452 OFFCURVE",
"21 450 OFFCURVE",
"25 450 CURVE SMOOTH",
"30 450 OFFCURVE",
"34 455 OFFCURVE",
"40 463 CURVE SMOOTH",
"59 487 OFFCURVE",
"79 493 OFFCURVE",
"108 493 CURVE SMOOTH",
"134 493 OFFCURVE",
"146 488 OFFCURVE",
"159 488 CURVE SMOOTH",
"164 488 LINE",
"90 135 LINE SMOOTH",
"78 78 OFFCURVE",
"73 73 OFFCURVE",
"51 52 CURVE SMOOTH",
"35 37 OFFCURVE",
"26 25 OFFCURVE",
"26 10 CURVE SMOOTH",
"26 2 OFFCURVE",
"28 0 OFFCURVE",
"31 0 CURVE SMOOTH"
);
}
);
width = 641;
},
{
anchors = (
{
name = bottom;
position = "{266, 0}";
},
{
name = top;
position = "{354, 560}";
}
);
background = {
anchors = (
{
name = bottom;
position = "{266, 0}";
},
{
name = top;
position = "{354, 560}";
}
);
paths = (
{
closed = 1;
nodes = (
"37 0 OFFCURVE",
"50 14 OFFCURVE",
"70 14 CURVE SMOOTH",
"90 14 OFFCURVE",
"107 0 OFFCURVE",
"123 0 CURVE SMOOTH",
"130 0 OFFCURVE",
"143 2 OFFCURVE",
"172 33 CURVE SMOOTH",
"181 42 OFFCURVE",
"182 47 OFFCURVE",
"182 51 CURVE SMOOTH",
"182 54 OFFCURVE",
"181 56 OFFCURVE",
"178 56 CURVE SMOOTH",
"172 56 OFFCURVE",
"164 47 OFFCURVE",
"148 47 CURVE SMOOTH",
"138 47 OFFCURVE",
"128 50 OFFCURVE",
"116 54 CURVE",
"116 55 LINE",
"125 65 OFFCURVE",
"129 77 OFFCURVE",
"131 89 CURVE SMOOTH",
"198 414 LINE",
"199 414 LINE",
"209 360 OFFCURVE",
"223 294 OFFCURVE",
"234 241 CURVE SMOOTH",
"257 130 OFFCURVE",
"260 102 OFFCURVE",
"263 42 CURVE SMOOTH",
"263 35 OFFCURVE",
"266 34 OFFCURVE",
"269 34 CURVE SMOOTH",
"281 34 OFFCURVE",
"308 82 OFFCURVE",
"321 110 CURVE",
"354 198 OFFCURVE",
"427 330 OFFCURVE",
"481 426 CURVE",
"482 426 LINE",
"474 349 OFFCURVE",
"462 242 OFFCURVE",
"445 91 CURVE SMOOTH",
"442 69 OFFCURVE",
"435 63 OFFCURVE",
"406 41 CURVE SMOOTH",
"392 30 OFFCURVE",
"386 16 OFFCURVE",
"386 7 CURVE SMOOTH",
"386 3 OFFCURVE",
"387 0 OFFCURVE",
"391 0 CURVE SMOOTH",
"397 0 OFFCURVE",
"417 14 OFFCURVE",
"439 14 CURVE SMOOTH",
"459 14 OFFCURVE",
"491 0 OFFCURVE",
"507 0 CURVE SMOOTH",
"514 0 OFFCURVE",
"528 1 OFFCURVE",
"556 33 CURVE SMOOTH",
"564 42 OFFCURVE",
"566 47 OFFCURVE",
"566 51 CURVE SMOOTH",
"566 54 OFFCURVE",
"565 56 OFFCURVE",
"562 56 CURVE SMOOTH",
"555 56 OFFCURVE",
"543 47 OFFCURVE",
"524 47 CURVE SMOOTH",
"514 47 OFFCURVE",
"502 50 OFFCURVE",
"490 54 CURVE",
"490 55 LINE",
"497 62 OFFCURVE",
"504 74 OFFCURVE",
"506 89 CURVE SMOOTH",
"532 249 OFFCURVE",
"531 340 OFFCURVE",
"546 442 CURVE SMOOTH",
"563 566 OFFCURVE",
"590 621 OFFCURVE",
"623 647 CURVE SMOOTH",
"650 668 OFFCURVE",
"686 671 OFFCURVE",
"706 674 CURVE SMOOTH",
"730 678 OFFCURVE",
"756 688 OFFCURVE",
"756 710 CURVE SMOOTH",
"756 713 OFFCURVE",
"755 716 OFFCURVE",
"752 716 CURVE SMOOTH",
"750 716 OFFCURVE",
"747 714 OFFCURVE",
"744 713 CURVE SMOOTH",
"736 710 OFFCURVE",
"723 709 OFFCURVE",
"709 708 CURVE SMOOTH",
"665 705 OFFCURVE",
"635 698 OFFCURVE",
"602 677 CURVE SMOOTH",
"565 652 OFFCURVE",
"532 612 OFFCURVE",
"490 532 CURVE SMOOTH",
"466 486 OFFCURVE",
"330 216 OFFCURVE",
"309 174 CURVE",
"306 193 OFFCURVE",
"303 210 OFFCURVE",
"298 233 CURVE SMOOTH",
"273 350 LINE SMOOTH",
"254 434 OFFCURVE",
"242 491 OFFCURVE",
"242 529 CURVE SMOOTH",
"242 538 OFFCURVE",
"243 552 OFFCURVE",
"245 560 CURVE",
"228 560 OFFCURVE",
"218 557 OFFCURVE",
"195 557 CURVE SMOOTH",
"171 557 OFFCURVE",
"150 560 OFFCURVE",
"132 560 CURVE SMOOTH",
"81 560 OFFCURVE",
"43 534 OFFCURVE",
"32 489 CURVE SMOOTH",
"31 485 OFFCURVE",
"30 480 OFFCURVE",
"30 475 CURVE SMOOTH",
"30 471 OFFCURVE",
"31 468 OFFCURVE",
"34 468 CURVE SMOOTH",
"38 468 OFFCURVE",
"41 474 OFFCURVE",
"47 482 CURVE SMOOTH",
"62 502 OFFCURVE",
"84 512 OFFCURVE",
"115 512 CURVE SMOOTH",
"134 512 OFFCURVE",
"156 508 OFFCURVE",
"168 508 CURVE SMOOTH",
"173 508 LINE",
"90 120 LINE SMOOTH",
"80 71 OFFCURVE",
"78 70 OFFCURVE",
"43 41 CURVE SMOOTH",
"32 32 OFFCURVE",
"26 18 OFFCURVE",
"26 7 CURVE SMOOTH",
"26 3 OFFCURVE",
"27 0 OFFCURVE",
"31 0 CURVE SMOOTH"
);
}
);
};
layerId = "0B1DFD06-3317-40CA-B510-4969A0718C16";
paths = (
{
closed = 1;
nodes = (
"37 0 OFFCURVE",
"50 14 OFFCURVE",
"70 14 CURVE SMOOTH",
"90 14 OFFCURVE",
"107 0 OFFCURVE",
"123 0 CURVE SMOOTH",
"130 0 OFFCURVE",
"143 2 OFFCURVE",
"172 33 CURVE SMOOTH",
"181 42 OFFCURVE",
"182 47 OFFCURVE",
"182 51 CURVE SMOOTH",
"182 54 OFFCURVE",
"181 56 OFFCURVE",
"178 56 CURVE SMOOTH",
"172 56 OFFCURVE",
"164 47 OFFCURVE",
"148 47 CURVE SMOOTH",
"138 47 OFFCURVE",
"128 50 OFFCURVE",
"116 54 CURVE",
"116 55 LINE",
"125 65 OFFCURVE",
"129 77 OFFCURVE",
"131 89 CURVE SMOOTH",
"198 414 LINE",
"199 414 LINE",
"209 360 OFFCURVE",
"223 294 OFFCURVE",
"234 241 CURVE SMOOTH",
"257 130 OFFCURVE",
"260 102 OFFCURVE",
"263 42 CURVE SMOOTH",
"263 35 OFFCURVE",
"266 34 OFFCURVE",
"269 34 CURVE SMOOTH",
"281 34 OFFCURVE",
"308 82 OFFCURVE",
"321 110 CURVE",
"354 198 OFFCURVE",
"427 330 OFFCURVE",
"481 426 CURVE",
"482 426 LINE",
"474 349 OFFCURVE",
"462 242 OFFCURVE",
"445 91 CURVE SMOOTH",
"442 69 OFFCURVE",
"435 63 OFFCURVE",
"406 41 CURVE SMOOTH",
"392 30 OFFCURVE",
"386 16 OFFCURVE",
"386 7 CURVE SMOOTH",
"386 3 OFFCURVE",
"387 0 OFFCURVE",
"391 0 CURVE SMOOTH",
"397 0 OFFCURVE",
"417 14 OFFCURVE",
"439 14 CURVE SMOOTH",
"459 14 OFFCURVE",
"491 0 OFFCURVE",
"507 0 CURVE SMOOTH",
"514 0 OFFCURVE",
"528 1 OFFCURVE",
"556 33 CURVE SMOOTH",
"564 42 OFFCURVE",
"566 47 OFFCURVE",
"566 51 CURVE SMOOTH",
"566 54 OFFCURVE",
"565 56 OFFCURVE",
"562 56 CURVE SMOOTH",
"555 56 OFFCURVE",
"543 47 OFFCURVE",
"524 47 CURVE SMOOTH",
"514 47 OFFCURVE",
"502 50 OFFCURVE",
"490 54 CURVE",
"490 55 LINE",
"497 62 OFFCURVE",
"504 74 OFFCURVE",
"506 89 CURVE SMOOTH",
"532 249 OFFCURVE",
"531 340 OFFCURVE",
"546 442 CURVE SMOOTH",
"563 566 OFFCURVE",
"590 621 OFFCURVE",
"623 647 CURVE SMOOTH",
"650 668 OFFCURVE",
"686 671 OFFCURVE",
"706 674 CURVE SMOOTH",
"730 678 OFFCURVE",
"756 688 OFFCURVE",
"756 710 CURVE SMOOTH",
"756 713 OFFCURVE",
"755 716 OFFCURVE",
"752 716 CURVE SMOOTH",
"750 716 OFFCURVE",
"747 714 OFFCURVE",
"744 713 CURVE SMOOTH",
"736 710 OFFCURVE",
"723 709 OFFCURVE",
"709 708 CURVE SMOOTH",
"665 705 OFFCURVE",
"635 698 OFFCURVE",
"602 677 CURVE SMOOTH",
"565 652 OFFCURVE",
"532 612 OFFCURVE",
"490 532 CURVE SMOOTH",
"466 486 OFFCURVE",
"330 216 OFFCURVE",
"309 174 CURVE",
"306 193 OFFCURVE",
"303 210 OFFCURVE",
"298 233 CURVE SMOOTH",
"273 350 LINE SMOOTH",
"254 434 OFFCURVE",
"242 491 OFFCURVE",
"242 529 CURVE SMOOTH",
"242 538 OFFCURVE",
"243 552 OFFCURVE",
"245 560 CURVE",
"228 560 OFFCURVE",
"218 557 OFFCURVE",
"195 557 CURVE SMOOTH",
"171 557 OFFCURVE",
"150 560 OFFCURVE",
"132 560 CURVE SMOOTH",
"81 560 OFFCURVE",
"43 534 OFFCURVE",
"32 489 CURVE SMOOTH",
"31 485 OFFCURVE",
"30 480 OFFCURVE",
"30 475 CURVE SMOOTH",
"30 471 OFFCURVE",
"31 468 OFFCURVE",
"34 468 CURVE SMOOTH",
"38 468 OFFCURVE",
"41 474 OFFCURVE",
"47 482 CURVE SMOOTH",
"62 502 OFFCURVE",
"84 512 OFFCURVE",
"115 512 CURVE SMOOTH",
"134 512 OFFCURVE",
"156 508 OFFCURVE",
"168 508 CURVE SMOOTH",
"173 508 LINE",
"90 120 LINE SMOOTH",
"80 71 OFFCURVE",
"78 70 OFFCURVE",
"43 41 CURVE SMOOTH",
"32 32 OFFCURVE",
"26 18 OFFCURVE",
"26 7 CURVE SMOOTH",
"26 3 OFFCURVE",
"27 0 OFFCURVE",
"31 0 CURVE SMOOTH"
);
}
);
width = 624;
}
);
leftKerningGroup = H;
note = M;
rightKerningGroup = H;
unicode = 004D;
},
{
glyphname = N;
lastChange = "2018-07-04 10:53:03 +0000";
layers = (
{
anchors = (
{
name = bottom;
position = "{250, 0}";
},
{
name = top;
position = "{346, 560}";
}
);
background = {
anchors = (
{
name = bottom;
position = "{250, 0}";
},
{
name = top;
position = "{346, 560}";
}
);
paths = (
{
closed = 1;
nodes = (
"389 -8 OFFCURVE",
"437 50 OFFCURVE",
"445 96 CURVE SMOOTH",
"508 463 LINE SMOOTH",
"522 541 OFFCURVE",
"538 594 OFFCURVE",
"566 625 CURVE SMOOTH",
"591 652 OFFCURVE",
"615 655 OFFCURVE",
"654 658 CURVE SMOOTH",
"686 659 OFFCURVE",
"717 681 OFFCURVE",
"717 707 CURVE SMOOTH",
"717 713 OFFCURVE",
"715 716 OFFCURVE",
"711 716 CURVE SMOOTH",
"707 716 OFFCURVE",
"704 714 OFFCURVE",
"695 711 CURVE SMOOTH",
"688 709 OFFCURVE",
"676 708 OFFCURVE",
"667 708 CURVE SMOOTH",
"615 706 OFFCURVE",
"569 702 OFFCURVE",
"525 665 CURVE SMOOTH",
"481 628 OFFCURVE",
"448 568 OFFCURVE",
"429 450 CURVE SMOOTH",
"390 207 LINE",
"389 207 LINE",
"369 250 OFFCURVE",
"386 212 OFFCURVE",
"366 255 CURVE SMOOTH",
"324 339 LINE SMOOTH",
"284 420 OFFCURVE",
"258 470 OFFCURVE",
"258 523 CURVE SMOOTH",
"258 536 OFFCURVE",
"259 546 OFFCURVE",
"264 560 CURVE",
"248 560 OFFCURVE",
"234 556 OFFCURVE",
"207 556 CURVE SMOOTH",
"180 556 OFFCURVE",
"160 560 OFFCURVE",
"138 560 CURVE SMOOTH",
"77 560 OFFCURVE",
"30 526 OFFCURVE",
"20 475 CURVE SMOOTH",
"19 470 OFFCURVE",
"18 465 OFFCURVE",
"18 458 CURVE SMOOTH",
"18 453 OFFCURVE",
"20 450 OFFCURVE",
"24 450 CURVE SMOOTH",
"30 450 OFFCURVE",
"34 455 OFFCURVE",
"40 463 CURVE SMOOTH",
"58 487 OFFCURVE",
"79 493 OFFCURVE",
"108 493 CURVE SMOOTH",
"134 493 OFFCURVE",
"145 488 OFFCURVE",
"158 488 CURVE SMOOTH",
"163 488 LINE",
"104 142 LINE SMOOTH",
"94 82 OFFCURVE",
"90 74 OFFCURVE",
"66 52 CURVE SMOOTH",
"54 40 OFFCURVE",
"41 26 OFFCURVE",
"41 10 CURVE SMOOTH",
"41 2 OFFCURVE",
"43 0 OFFCURVE",
"46 0 CURVE SMOOTH",
"54 0 OFFCURVE",
"70 13 OFFCURVE",
"97 13 CURVE SMOOTH",
"123 13 OFFCURVE",
"141 0 OFFCURVE",
"164 0 CURVE SMOOTH",
"182 0 OFFCURVE",
"198 7 OFFCURVE",
"222 42 CURVE SMOOTH",
"229 51 OFFCURVE",
"232 58 OFFCURVE",
"232 64 CURVE SMOOTH",
"232 69 OFFCURVE",
"230 71 OFFCURVE",
"226 71 CURVE SMOOTH",
"216 71 OFFCURVE",
"210 62 OFFCURVE",
"190 62 CURVE SMOOTH",
"178 62 OFFCURVE",
"166 65 OFFCURVE",
"160 68 CURVE",
"160 69 LINE",
"169 77 OFFCURVE",
"176 90 OFFCURVE",
"178 105 CURVE SMOOTH",
"222 371 LINE",
"223 371 LINE",
"229 354 OFFCURVE",
"238 330 OFFCURVE",
"249 310 CURVE SMOOTH",
"300 208 LINE SMOOTH",
"309 190 OFFCURVE",
"338 134 OFFCURVE",
"346 119 CURVE SMOOTH",
"354 101 OFFCURVE",
"356 86 OFFCURVE",
"356 73 CURVE SMOOTH",
"356 38 OFFCURVE",
"345 13 OFFCURVE",
"345 1 CURVE SMOOTH",
"345 -5 OFFCURVE",
"347 -8 OFFCURVE",
"355 -8 CURVE SMOOTH"
);
}
);
};
layerId = "56450C88-1299-454A-B666-E6F9AF06B23F";
paths = (
{
closed = 1;
nodes = (
"389 -8 OFFCURVE",
"437 50 OFFCURVE",
"445 96 CURVE SMOOTH",
"508 463 LINE SMOOTH",
"522 541 OFFCURVE",
"538 594 OFFCURVE",
"566 625 CURVE SMOOTH",
"591 652 OFFCURVE",
"615 655 OFFCURVE",
"654 658 CURVE SMOOTH",
"686 659 OFFCURVE",
"717 681 OFFCURVE",
"717 707 CURVE SMOOTH",
"717 713 OFFCURVE",
"715 716 OFFCURVE",
"711 716 CURVE SMOOTH",
"707 716 OFFCURVE",
"704 714 OFFCURVE",
"695 711 CURVE SMOOTH",
"688 709 OFFCURVE",
"676 708 OFFCURVE",
"667 708 CURVE SMOOTH",
"615 706 OFFCURVE",
"569 702 OFFCURVE",
"525 665 CURVE SMOOTH",
"481 628 OFFCURVE",
"448 568 OFFCURVE",
"429 450 CURVE SMOOTH",
"390 207 LINE",
"389 207 LINE",
"369 250 OFFCURVE",
"386 212 OFFCURVE",
"366 255 CURVE SMOOTH",
"324 339 LINE SMOOTH",
"284 420 OFFCURVE",
"258 470 OFFCURVE",
"258 523 CURVE SMOOTH",
"258 536 OFFCURVE",
"259 546 OFFCURVE",
"264 560 CURVE",
"248 560 OFFCURVE",
"234 556 OFFCURVE",
"207 556 CURVE SMOOTH",
"180 556 OFFCURVE",
"160 560 OFFCURVE",
"138 560 CURVE SMOOTH",
"77 560 OFFCURVE",
"30 526 OFFCURVE",
"20 475 CURVE SMOOTH",
"19 470 OFFCURVE",
"18 465 OFFCURVE",
"18 458 CURVE SMOOTH",
"18 453 OFFCURVE",
"20 450 OFFCURVE",
"24 450 CURVE SMOOTH",
"30 450 OFFCURVE",
"34 455 OFFCURVE",
"40 463 CURVE SMOOTH",
"58 487 OFFCURVE",
"79 493 OFFCURVE",
"108 493 CURVE SMOOTH",
"134 493 OFFCURVE",
"145 488 OFFCURVE",
"158 488 CURVE SMOOTH",
"163 488 LINE",
"104 142 LINE SMOOTH",
"94 82 OFFCURVE",
"90 74 OFFCURVE",
"66 52 CURVE SMOOTH",
"54 40 OFFCURVE",
"41 26 OFFCURVE",
"41 10 CURVE SMOOTH",
"41 2 OFFCURVE",
"43 0 OFFCURVE",
"46 0 CURVE SMOOTH",
"54 0 OFFCURVE",
"70 13 OFFCURVE",
"97 13 CURVE SMOOTH",
"123 13 OFFCURVE",
"141 0 OFFCURVE",
"164 0 CURVE SMOOTH",
"182 0 OFFCURVE",
"198 7 OFFCURVE",
"222 42 CURVE SMOOTH",
"229 51 OFFCURVE",
"232 58 OFFCURVE",
"232 64 CURVE SMOOTH",
"232 69 OFFCURVE",
"230 71 OFFCURVE",
"226 71 CURVE SMOOTH",
"216 71 OFFCURVE",
"210 62 OFFCURVE",
"190 62 CURVE SMOOTH",
"178 62 OFFCURVE",
"166 65 OFFCURVE",
"160 68 CURVE",
"160 69 LINE",
"169 77 OFFCURVE",
"176 90 OFFCURVE",
"178 105 CURVE SMOOTH",
"222 371 LINE",
"223 371 LINE",
"229 354 OFFCURVE",
"238 330 OFFCURVE",
"249 310 CURVE SMOOTH",
"300 208 LINE SMOOTH",
"309 190 OFFCURVE",
"338 134 OFFCURVE",
"346 119 CURVE SMOOTH",
"354 101 OFFCURVE",
"356 86 OFFCURVE",
"356 73 CURVE SMOOTH",
"356 38 OFFCURVE",
"345 13 OFFCURVE",
"345 1 CURVE SMOOTH",
"345 -5 OFFCURVE",
"347 -8 OFFCURVE",
"355 -8 CURVE SMOOTH"
);
}
);
width = 555;
},
{
anchors = (
{
name = bottom;
position = "{234, 0}";
},
{
name = top;
position = "{356, 560}";
}
);
background = {
anchors = (
{
name = bottom;
position = "{234, 0}";
},
{
name = top;
position = "{356, 560}";
}
);
paths = (
{
closed = 1;
nodes = (
"378 -8 OFFCURVE",
"419 52 OFFCURVE",
"425 88 CURVE SMOOTH",
"488 474 LINE SMOOTH",
"499 545 OFFCURVE",
"517 606 OFFCURVE",
"554 646 CURVE SMOOTH",
"585 678 OFFCURVE",
"614 678 OFFCURVE",
"646 682 CURVE SMOOTH",
"688 687 OFFCURVE",
"696 712 OFFCURVE",
"696 719 CURVE SMOOTH",
"696 722 OFFCURVE",
"695 724 OFFCURVE",
"692 724 CURVE SMOOTH",
"690 724 OFFCURVE",
"688 723 OFFCURVE",
"682 721 CURVE SMOOTH",
"675 719 OFFCURVE",
"669 718 OFFCURVE",
"659 717 CURVE SMOOTH",
"594 711 OFFCURVE",
"562 699 OFFCURVE",
"528 671 CURVE SMOOTH",
"481 633 OFFCURVE",
"451 568 OFFCURVE",
"435 463 CURVE SMOOTH",
"390 167 LINE",
"389 167 LINE",
"381 187 OFFCURVE",
"370 210 OFFCURVE",
"347 252 CURVE SMOOTH",
"302 337 LINE SMOOTH",
"257 420 OFFCURVE",
"234 479 OFFCURVE",
"234 526 CURVE SMOOTH",
"234 540 OFFCURVE",
"236 552 OFFCURVE",
"238 560 CURVE",
"224 560 OFFCURVE",
"214 557 OFFCURVE",
"190 557 CURVE SMOOTH",
"166 557 OFFCURVE",
"146 560 OFFCURVE",
"128 560 CURVE SMOOTH",
"77 560 OFFCURVE",
"39 534 OFFCURVE",
"28 489 CURVE SMOOTH",
"27 485 OFFCURVE",
"26 480 OFFCURVE",
"26 475 CURVE SMOOTH",
"26 471 OFFCURVE",
"27 468 OFFCURVE",
"30 468 CURVE SMOOTH",
"34 468 OFFCURVE",
"37 474 OFFCURVE",
"43 482 CURVE SMOOTH",
"58 503 OFFCURVE",
"79 512 OFFCURVE",
"110 512 CURVE SMOOTH",
"129 512 OFFCURVE",
"155 508 OFFCURVE",
"169 508 CURVE",
"108 121 LINE SMOOTH",
"100 70 OFFCURVE",
"98 69 OFFCURVE",
"65 41 CURVE SMOOTH",
"54 32 OFFCURVE",
"47 18 OFFCURVE",
"47 7 CURVE SMOOTH",
"47 3 OFFCURVE",
"48 0 OFFCURVE",
"51 0 CURVE SMOOTH",
"58 0 OFFCURVE",
"72 14 OFFCURVE",
"92 14 CURVE SMOOTH",
"112 14 OFFCURVE",
"129 0 OFFCURVE",
"145 0 CURVE SMOOTH",
"151 0 OFFCURVE",
"166 2 OFFCURVE",
"195 33 CURVE SMOOTH",
"204 42 OFFCURVE",
"206 47 OFFCURVE",
"206 51 CURVE SMOOTH",
"206 53 OFFCURVE",
"205 56 OFFCURVE",
"202 56 CURVE SMOOTH",
"195 56 OFFCURVE",
"188 47 OFFCURVE",
"170 47 CURVE SMOOTH",
"161 47 OFFCURVE",
"150 50 OFFCURVE",
"138 54 CURVE",
"138 55 LINE",
"144 62 OFFCURVE",
"149 74 OFFCURVE",
"151 89 CURVE SMOOTH",
"202 410 LINE",
"203 410 LINE",
"221 370 OFFCURVE",
"238 330 OFFCURVE",
"270 271 CURVE SMOOTH",
"302 213 LINE SMOOTH",
"322 178 OFFCURVE",
"342 137 OFFCURVE",
"351 110 CURVE SMOOTH",
"356 96 OFFCURVE",
"358 85 OFFCURVE",
"358 72 CURVE SMOOTH",
"358 42 OFFCURVE",
"348 11 OFFCURVE",
"348 2 CURVE SMOOTH",
"348 -4 OFFCURVE",
"352 -8 OFFCURVE",
"358 -8 CURVE SMOOTH"
);
}
);
};
layerId = "0B1DFD06-3317-40CA-B510-4969A0718C16";
paths = (
{
closed = 1;
nodes = (
"378 -8 OFFCURVE",
"419 52 OFFCURVE",
"425 88 CURVE SMOOTH",
"488 474 LINE SMOOTH",
"499 545 OFFCURVE",
"517 606 OFFCURVE",
"554 646 CURVE SMOOTH",
"585 678 OFFCURVE",
"614 678 OFFCURVE",
"646 682 CURVE SMOOTH",
"688 687 OFFCURVE",
"696 712 OFFCURVE",
"696 719 CURVE SMOOTH",
"696 722 OFFCURVE",
"695 724 OFFCURVE",
"692 724 CURVE SMOOTH",
"690 724 OFFCURVE",
"688 723 OFFCURVE",
"682 721 CURVE SMOOTH",
"675 719 OFFCURVE",
"669 718 OFFCURVE",
"659 717 CURVE SMOOTH",
"594 711 OFFCURVE",
"562 699 OFFCURVE",
"528 671 CURVE SMOOTH",
"481 633 OFFCURVE",
"451 568 OFFCURVE",
"435 463 CURVE SMOOTH",
"390 167 LINE",
"389 167 LINE",
"381 187 OFFCURVE",
"370 210 OFFCURVE",
"347 252 CURVE SMOOTH",
"302 337 LINE SMOOTH",
"257 420 OFFCURVE",
"234 479 OFFCURVE",
"234 526 CURVE SMOOTH",
"234 540 OFFCURVE",
"236 552 OFFCURVE",
"238 560 CURVE",
"224 560 OFFCURVE",
"214 557 OFFCURVE",
"190 557 CURVE SMOOTH",
"166 557 OFFCURVE",
"146 560 OFFCURVE",
"128 560 CURVE SMOOTH",
"77 560 OFFCURVE",
"39 534 OFFCURVE",
"28 489 CURVE SMOOTH",
"27 485 OFFCURVE",
"26 480 OFFCURVE",
"26 475 CURVE SMOOTH",
"26 471 OFFCURVE",
"27 468 OFFCURVE",
"30 468 CURVE SMOOTH",
"34 468 OFFCURVE",
"37 474 OFFCURVE",
"43 482 CURVE SMOOTH",
"58 503 OFFCURVE",
"79 512 OFFCURVE",
"110 512 CURVE SMOOTH",
"129 512 OFFCURVE",
"155 508 OFFCURVE",
"169 508 CURVE",
"108 121 LINE SMOOTH",
"100 70 OFFCURVE",
"98 69 OFFCURVE",
"65 41 CURVE SMOOTH",
"54 32 OFFCURVE",
"47 18 OFFCURVE",
"47 7 CURVE SMOOTH",
"47 3 OFFCURVE",
"48 0 OFFCURVE",
"51 0 CURVE SMOOTH",
"58 0 OFFCURVE",
"72 14 OFFCURVE",
"92 14 CURVE SMOOTH",
"112 14 OFFCURVE",
"129 0 OFFCURVE",
"145 0 CURVE SMOOTH",
"151 0 OFFCURVE",
"166 2 OFFCURVE",
"195 33 CURVE SMOOTH",
"204 42 OFFCURVE",
"206 47 OFFCURVE",
"206 51 CURVE SMOOTH",
"206 53 OFFCURVE",
"205 56 OFFCURVE",
"202 56 CURVE SMOOTH",
"195 56 OFFCURVE",
"188 47 OFFCURVE",
"170 47 CURVE SMOOTH",
"161 47 OFFCURVE",
"150 50 OFFCURVE",
"138 54 CURVE",
"138 55 LINE",
"144 62 OFFCURVE",
"149 74 OFFCURVE",
"151 89 CURVE SMOOTH",
"202 410 LINE",
"203 410 LINE",
"221 370 OFFCURVE",
"238 330 OFFCURVE",
"270 271 CURVE SMOOTH",
"302 213 LINE SMOOTH",
"322 178 OFFCURVE",
"342 137 OFFCURVE",
"351 110 CURVE SMOOTH",
"356 96 OFFCURVE",
"358 85 OFFCURVE",
"358 72 CURVE SMOOTH",
"358 42 OFFCURVE",
"348 11 OFFCURVE",
"348 2 CURVE SMOOTH",
"348 -4 OFFCURVE",
"352 -8 OFFCURVE",
"358 -8 CURVE SMOOTH"
);
}
);
width = 544;
}
);
leftKerningGroup = H;
note = N;
rightKerningGroup = N;
unicode = 004E;
},
{
glyphname = O;
lastChange = "2018-07-04 16:35:04 +0000";
layers = (
{
anchors = (
{
name = bottom;
position = "{195, 0}";
},
{
name = center;
position = "{260, 280}";
},
{
name = ogonek;
position = "{260, 7}";
},
{
name = top;
position = "{335, 560}";
},
{
name = topright;
position = "{454, 478}";
}
);
background = {
anchors = (
{
name = bottom;
position = "{195, 0}";
},
{
name = center;
position = "{260, 280}";
},
{
name = ogonek;
position = "{260, 7}";
},
{
name = top;
position = "{335, 560}";
},
{
name = topright;
position = "{454, 478}";
}
);
paths = (
{
closed = 1;
nodes = (
"338 -8 OFFCURVE",
"478 164 OFFCURVE",
"478 364 CURVE SMOOTH",
"478 486 OFFCURVE",
"426 568 OFFCURVE",
"324 568 CURVE SMOOTH",
"157 568 OFFCURVE",
"42 348 OFFCURVE",
"42 184 CURVE SMOOTH",
"42 78 OFFCURVE",
"90 -8 OFFCURVE",
"193 -8 CURVE SMOOTH"
);
},
{
closed = 1;
nodes = (
"168 54 OFFCURVE",
"138 108 OFFCURVE",
"138 213 CURVE SMOOTH",
"138 370 OFFCURVE",
"206 506 OFFCURVE",
"294 506 CURVE SMOOTH",
"354 506 OFFCURVE",
"382 442 OFFCURVE",
"382 341 CURVE SMOOTH",
"382 205 OFFCURVE",
"330 54 OFFCURVE",
"229 54 CURVE SMOOTH"
);
}
);
};
layerId = "56450C88-1299-454A-B666-E6F9AF06B23F";
paths = (
{
closed = 1;
nodes = (
"338 -8 OFFCURVE",
"478 164 OFFCURVE",
"478 364 CURVE SMOOTH",
"478 486 OFFCURVE",
"426 568 OFFCURVE",
"324 568 CURVE SMOOTH",
"157 568 OFFCURVE",
"42 348 OFFCURVE",
"42 184 CURVE SMOOTH",
"42 78 OFFCURVE",
"90 -8 OFFCURVE",
"193 -8 CURVE SMOOTH"
);
},
{
closed = 1;
nodes = (
"168 54 OFFCURVE",
"138 108 OFFCURVE",
"138 213 CURVE SMOOTH",
"138 370 OFFCURVE",
"206 506 OFFCURVE",
"294 506 CURVE SMOOTH",
"354 506 OFFCURVE",
"382 442 OFFCURVE",
"382 341 CURVE SMOOTH",
"382 205 OFFCURVE",
"330 54 OFFCURVE",
"229 54 CURVE SMOOTH"
);
}
);
width = 499;
},
{
anchors = (
{
name = bottom;
position = "{189, 0}";
},
{
name = center;
position = "{245, 280}";
},
{
name = ogonek;
position = "{253, 10}";
},
{
name = top;
position = "{338, 560}";
},
{
name = topright;
position = "{434, 486}";
}
);
background = {
anchors = (
{
name = bottom;
position = "{189, 0}";
},
{
name = center;
position = "{245, 280}";
},
{
name = ogonek;
position = "{253, 10}";
},
{
name = top;
position = "{338, 560}";
},
{
name = topright;
position = "{434, 486}";
}
);
paths = (
{
closed = 1;
nodes = (
"331 -8 OFFCURVE",
"461 168 OFFCURVE",
"461 368 CURVE SMOOTH",
"461 467 OFFCURVE",
"429 568 OFFCURVE",
"322 568 CURVE SMOOTH",
"162 568 OFFCURVE",
"50 346 OFFCURVE",
"50 186 CURVE SMOOTH",
"50 126 OFFCURVE",
"66 -8 OFFCURVE",
"190 -8 CURVE SMOOTH"
);
},
{
closed = 1;
nodes = (
"157 37 OFFCURVE",
"118 100 OFFCURVE",
"118 217 CURVE SMOOTH",
"118 396 OFFCURVE",
"209 523 OFFCURVE",
"294 523 CURVE SMOOTH",
"362 523 OFFCURVE",
"392 441 OFFCURVE",
"392 342 CURVE SMOOTH",
"392 200 OFFCURVE",
"330 37 OFFCURVE",
"223 37 CURVE SMOOTH"
);
}
);
};
layerId = "0B1DFD06-3317-40CA-B510-4969A0718C16";
paths = (
{
closed = 1;
nodes = (
"331 -8 OFFCURVE",
"461 168 OFFCURVE",
"461 368 CURVE SMOOTH",
"461 467 OFFCURVE",
"429 568 OFFCURVE",
"322 568 CURVE SMOOTH",
"162 568 OFFCURVE",
"50 346 OFFCURVE",
"50 186 CURVE SMOOTH",
"50 126 OFFCURVE",
"66 -8 OFFCURVE",
"190 -8 CURVE SMOOTH"
);
},
{
closed = 1;
nodes = (
"157 37 OFFCURVE",
"118 100 OFFCURVE",
"118 217 CURVE SMOOTH",
"118 396 OFFCURVE",
"209 523 OFFCURVE",
"294 523 CURVE SMOOTH",
"362 523 OFFCURVE",
"392 441 OFFCURVE",
"392 342 CURVE SMOOTH",
"392 200 OFFCURVE",
"330 37 OFFCURVE",
"223 37 CURVE SMOOTH"
);
}
);
width = 489;
}
);
leftKerningGroup = O;
note = O;
rightKerningGroup = O;
unicode = 004F;
},
{
glyphname = P;
lastChange = "2018-07-04 19:36:55 +0000";
layers = (
{
anchors = (
{
name = bottom;
position = "{118, 0}";
},
{
name = top;
position = "{262, 560}";
}
);
background = {
anchors = (
{
name = bottom;
position = "{118, 0}";
},
{
name = top;
position = "{262, 560}";
}
);
paths = (
{
closed = 1;
nodes = (
"50 0 OFFCURVE",
"66 13 OFFCURVE",
"93 13 CURVE SMOOTH",
"119 13 OFFCURVE",
"143 0 OFFCURVE",
"165 0 CURVE SMOOTH",
"182 0 OFFCURVE",
"202 8 OFFCURVE",
"228 42 CURVE SMOOTH",
"234 50 OFFCURVE",
"238 56 OFFCURVE",
"238 64 CURVE SMOOTH",
"238 69 OFFCURVE",
"236 71 OFFCURVE",
"231 71 CURVE SMOOTH",
"222 71 OFFCURVE",
"213 62 OFFCURVE",
"194 62 CURVE SMOOTH",
"183 62 OFFCURVE",
"171 64 OFFCURVE",
"162 69 CURVE",
"162 70 LINE",
"170 78 OFFCURVE",
"178 92 OFFCURVE",
"180 106 CURVE SMOOTH",
"198 213 LINE",
"341 218 OFFCURVE",
"447 322 OFFCURVE",
"447 432 CURVE SMOOTH",
"447 518 OFFCURVE",
"373 568 OFFCURVE",
"263 568 CURVE SMOOTH",
"142 568 OFFCURVE",
"66 506 OFFCURVE",
"41 446 CURVE SMOOTH",
"38 439 OFFCURVE",
"37 434 OFFCURVE",
"37 430 CURVE SMOOTH",
"37 424 OFFCURVE",
"38 420 OFFCURVE",
"45 420 CURVE SMOOTH",
"54 420 OFFCURVE",
"59 427 OFFCURVE",
"73 440 CURVE SMOOTH",
"115 480 OFFCURVE",
"171 506 OFFCURVE",
"242 506 CURVE SMOOTH",
"322 506 OFFCURVE",
"362 473 OFFCURVE",
"362 403 CURVE SMOOTH",
"362 327 OFFCURVE",
"314 274 OFFCURVE",
"237 274 CURVE SMOOTH",
"223 274 OFFCURVE",
"214 275 OFFCURVE",
"206 277 CURVE",
"226 400 LINE SMOOTH",
"234 454 OFFCURVE",
"245 454 OFFCURVE",
"245 466 CURVE SMOOTH",
"245 471 OFFCURVE",
"242 474 OFFCURVE",
"232 474 CURVE SMOOTH",
"194 474 OFFCURVE",
"147 438 OFFCURVE",
"142 406 CURVE SMOOTH",
"99 142 LINE SMOOTH",
"90 81 OFFCURVE",
"82 71 OFFCURVE",
"62 52 CURVE SMOOTH",
"50 40 OFFCURVE",
"37 26 OFFCURVE",
"37 10 CURVE SMOOTH",
"37 2 OFFCURVE",
"39 0 OFFCURVE",
"42 0 CURVE SMOOTH"
);
}
);
};
layerId = "56450C88-1299-454A-B666-E6F9AF06B23F";
paths = (
{
closed = 1;
nodes = (
"50 0 OFFCURVE",
"66 13 OFFCURVE",
"93 13 CURVE SMOOTH",
"119 13 OFFCURVE",
"143 0 OFFCURVE",
"165 0 CURVE SMOOTH",
"182 0 OFFCURVE",
"202 8 OFFCURVE",
"228 42 CURVE SMOOTH",
"234 50 OFFCURVE",
"238 56 OFFCURVE",
"238 64 CURVE SMOOTH",
"238 69 OFFCURVE",
"236 71 OFFCURVE",
"231 71 CURVE SMOOTH",
"222 71 OFFCURVE",
"213 62 OFFCURVE",
"194 62 CURVE SMOOTH",
"183 62 OFFCURVE",
"171 64 OFFCURVE",
"162 69 CURVE",
"162 70 LINE",
"170 78 OFFCURVE",
"178 92 OFFCURVE",
"180 106 CURVE SMOOTH",
"198 213 LINE",
"341 218 OFFCURVE",
"447 322 OFFCURVE",
"447 432 CURVE SMOOTH",
"447 518 OFFCURVE",
"373 568 OFFCURVE",
"263 568 CURVE SMOOTH",
"142 568 OFFCURVE",
"66 506 OFFCURVE",
"41 446 CURVE SMOOTH",
"38 439 OFFCURVE",
"37 434 OFFCURVE",
"37 430 CURVE SMOOTH",
"37 424 OFFCURVE",
"38 420 OFFCURVE",
"45 420 CURVE SMOOTH",
"54 420 OFFCURVE",
"59 427 OFFCURVE",
"73 440 CURVE SMOOTH",
"115 480 OFFCURVE",
"171 506 OFFCURVE",
"242 506 CURVE SMOOTH",
"322 506 OFFCURVE",
"362 473 OFFCURVE",
"362 403 CURVE SMOOTH",
"362 327 OFFCURVE",
"314 274 OFFCURVE",
"237 274 CURVE SMOOTH",
"223 274 OFFCURVE",
"214 275 OFFCURVE",
"206 277 CURVE",
"226 400 LINE SMOOTH",
"234 454 OFFCURVE",
"245 454 OFFCURVE",
"245 466 CURVE SMOOTH",
"245 471 OFFCURVE",
"242 474 OFFCURVE",
"232 474 CURVE SMOOTH",
"194 474 OFFCURVE",
"147 438 OFFCURVE",
"142 406 CURVE SMOOTH",
"99 142 LINE SMOOTH",
"90 81 OFFCURVE",
"82 71 OFFCURVE",
"62 52 CURVE SMOOTH",
"50 40 OFFCURVE",
"37 26 OFFCURVE",
"37 10 CURVE SMOOTH",
"37 2 OFFCURVE",
"39 0 OFFCURVE",
"42 0 CURVE SMOOTH"
);
}
);
width = 460;
},
{
anchors = (
{
name = bottom;
position = "{113, 0}";
},
{
name = top;
position = "{255, 560}";
}
);
background = {
anchors = (
{
name = bottom;
position = "{113, 0}";
},
{
name = top;
position = "{255, 560}";
}
);
paths = (
{
closed = 1;
nodes = (
"55 0 OFFCURVE",
"69 14 OFFCURVE",
"89 14 CURVE SMOOTH",
"109 14 OFFCURVE",
"133 0 OFFCURVE",
"149 0 CURVE SMOOTH",
"155 0 OFFCURVE",
"169 2 OFFCURVE",
"198 33 CURVE SMOOTH",
"207 42 OFFCURVE",
"208 46 OFFCURVE",
"208 50 CURVE SMOOTH",
"208 54 OFFCURVE",
"206 56 OFFCURVE",
"203 56 CURVE SMOOTH",
"195 56 OFFCURVE",
"187 47 OFFCURVE",
"170 47 CURVE SMOOTH",
"160 47 OFFCURVE",
"154 50 OFFCURVE",
"142 54 CURVE",
"142 55 LINE",
"149 63 OFFCURVE",
"155 75 OFFCURVE",
"157 89 CURVE SMOOTH",
"181 229 LINE",
"299 238 OFFCURVE",
"423 329 OFFCURVE",
"423 439 CURVE SMOOTH",
"423 521 OFFCURVE",
"355 568 OFFCURVE",
"255 568 CURVE SMOOTH",
"140 568 OFFCURVE",
"57 509 OFFCURVE",
"43 451 CURVE SMOOTH",
"42 446 OFFCURVE",
"42 444 OFFCURVE",
"42 442 CURVE SMOOTH",
"42 439 OFFCURVE",
"43 436 OFFCURVE",
"47 436 CURVE SMOOTH",
"53 436 OFFCURVE",
"58 442 OFFCURVE",
"67 453 CURVE SMOOTH",
"109 501 OFFCURVE",
"165 524 OFFCURVE",
"229 524 CURVE SMOOTH",
"312 524 OFFCURVE",
"360 486 OFFCURVE",
"360 412 CURVE SMOOTH",
"360 334 OFFCURVE",
"306 274 OFFCURVE",
"227 274 CURVE SMOOTH",
"215 274 OFFCURVE",
"198 275 OFFCURVE",
"191 277 CURVE",
"215 431 LINE SMOOTH",
"221 470 OFFCURVE",
"235 474 OFFCURVE",
"235 482 CURVE SMOOTH",
"235 485 OFFCURVE",
"231 486 OFFCURVE",
"226 486 CURVE SMOOTH",
"201 486 OFFCURVE",
"159 453 OFFCURVE",
"154 426 CURVE SMOOTH",
"105 139 LINE SMOOTH",
"94 75 OFFCURVE",
"107 88 OFFCURVE",
"62 41 CURVE SMOOTH",
"50 29 OFFCURVE",
"44 20 OFFCURVE",
"44 8 CURVE SMOOTH",
"44 3 OFFCURVE",
"45 0 OFFCURVE",
"48 0 CURVE SMOOTH"
);
}
);
};
layerId = "0B1DFD06-3317-40CA-B510-4969A0718C16";
paths = (
{
closed = 1;
nodes = (
"55 0 OFFCURVE",
"69 14 OFFCURVE",
"89 14 CURVE SMOOTH",
"109 14 OFFCURVE",
"133 0 OFFCURVE",
"149 0 CURVE SMOOTH",
"155 0 OFFCURVE",
"169 2 OFFCURVE",
"198 33 CURVE SMOOTH",
"207 42 OFFCURVE",
"208 46 OFFCURVE",
"208 50 CURVE SMOOTH",
"208 54 OFFCURVE",
"206 56 OFFCURVE",
"203 56 CURVE SMOOTH",
"195 56 OFFCURVE",
"187 47 OFFCURVE",
"170 47 CURVE SMOOTH",
"160 47 OFFCURVE",
"154 50 OFFCURVE",
"142 54 CURVE",
"142 55 LINE",
"149 63 OFFCURVE",
"155 75 OFFCURVE",
"157 89 CURVE SMOOTH",
"181 229 LINE",
"299 238 OFFCURVE",
"423 329 OFFCURVE",
"423 439 CURVE SMOOTH",
"423 521 OFFCURVE",
"355 568 OFFCURVE",
"255 568 CURVE SMOOTH",
"140 568 OFFCURVE",
"57 509 OFFCURVE",
"43 451 CURVE SMOOTH",
"42 446 OFFCURVE",
"42 444 OFFCURVE",
"42 442 CURVE SMOOTH",
"42 439 OFFCURVE",
"43 436 OFFCURVE",
"47 436 CURVE SMOOTH",
"53 436 OFFCURVE",
"58 442 OFFCURVE",
"67 453 CURVE SMOOTH",
"109 501 OFFCURVE",
"165 524 OFFCURVE",
"229 524 CURVE SMOOTH",
"312 524 OFFCURVE",
"360 486 OFFCURVE",
"360 412 CURVE SMOOTH",
"360 334 OFFCURVE",
"306 274 OFFCURVE",
"227 274 CURVE SMOOTH",
"215 274 OFFCURVE",
"198 275 OFFCURVE",
"191 277 CURVE",
"215 431 LINE SMOOTH",
"221 470 OFFCURVE",
"235 474 OFFCURVE",
"235 482 CURVE SMOOTH",
"235 485 OFFCURVE",
"231 486 OFFCURVE",
"226 486 CURVE SMOOTH",
"201 486 OFFCURVE",
"159 453 OFFCURVE",
"154 426 CURVE SMOOTH",
"105 139 LINE SMOOTH",
"93 68 OFFCURVE",
"94 71 OFFCURVE",
"62 41 CURVE SMOOTH",
"50 29 OFFCURVE",
"44 20 OFFCURVE",
"44 8 CURVE SMOOTH",
"44 3 OFFCURVE",
"45 0 OFFCURVE",
"48 0 CURVE SMOOTH"
);
}
);
width = 443;
}
);
leftKerningGroup = P;
note = P;
rightKerningGroup = P;
unicode = 0050;
},
{
glyphname = Q;
lastChange = "2018-07-04 16:41:42 +0000";
layers = (
{
anchors = (
{
name = bottom;
position = "{171, -66}";
},
{
name = top;
position = "{335, 560}";
}
);
background = {
anchors = (
{
name = bottom;
position = "{171, -66}";
},
{
name = top;
position = "{335, 560}";
}
);
components = (
{
name = O;
}
);
paths = (
{
closed = 1;
nodes = (
"546 -214 OFFCURVE",
"592 -123 OFFCURVE",
"592 -88 CURVE SMOOTH",
"593 -82 OFFCURVE",
"590 -77 OFFCURVE",
"584 -77 CURVE SMOOTH",
"576 -77 OFFCURVE",
"573 -84 OFFCURVE",
"566 -95 CURVE SMOOTH",
"544 -128 OFFCURVE",
"510 -150 OFFCURVE",
"463 -150 CURVE SMOOTH",
"398 -150 OFFCURVE",
"347 -108 OFFCURVE",
"269 22 CURVE SMOOTH",
"259 38 LINE",
"177 30 LINE",
"191 4 LINE SMOOTH",
"275 -146 OFFCURVE",
"350 -214 OFFCURVE",
"442 -214 CURVE SMOOTH"
);
}
);
};
components = (
{
name = O;
}
);
layerId = "56450C88-1299-454A-B666-E6F9AF06B23F";
paths = (
{
closed = 1;
nodes = (
"546 -214 OFFCURVE",
"592 -123 OFFCURVE",
"592 -88 CURVE SMOOTH",
"593 -82 OFFCURVE",
"590 -77 OFFCURVE",
"584 -77 CURVE SMOOTH",
"576 -77 OFFCURVE",
"573 -84 OFFCURVE",
"566 -95 CURVE SMOOTH",
"544 -128 OFFCURVE",
"510 -150 OFFCURVE",
"463 -150 CURVE SMOOTH",
"398 -150 OFFCURVE",
"347 -108 OFFCURVE",
"269 22 CURVE SMOOTH",
"259 38 LINE",
"177 30 LINE",
"191 4 LINE SMOOTH",
"275 -146 OFFCURVE",
"350 -214 OFFCURVE",
"442 -214 CURVE SMOOTH"
);
}
);
width = 501;
},
{
anchors = (
{
name = bottom;
position = "{182, -74}";
},
{
name = top;
position = "{338, 560}";
}
);
background = {
anchors = (
{
name = bottom;
position = "{182, -74}";
},
{
name = top;
position = "{338, 560}";
}
);
components = (
{
name = O;
}
);
paths = (
{
closed = 1;
nodes = (
"511 -214 OFFCURVE",
"572 -155 OFFCURVE",
"573 -101 CURVE SMOOTH",
"573 -94 OFFCURVE",
"571 -93 OFFCURVE",
"568 -93 CURVE SMOOTH",
"564 -93 OFFCURVE",
"562 -98 OFFCURVE",
"556 -107 CURVE SMOOTH",
"532 -146 OFFCURVE",
"497 -166 OFFCURVE",
"455 -166 CURVE SMOOTH",
"387 -166 OFFCURVE",
"331 -113 OFFCURVE",
"252 10 CURVE SMOOTH",
"245 22 LINE",
"187 15 LINE",
"196 0 LINE SMOOTH",
"274 -134 OFFCURVE",
"347 -214 OFFCURVE",
"436 -214 CURVE SMOOTH"
);
}
);
};
components = (
{
name = O;
}
);
layerId = "0B1DFD06-3317-40CA-B510-4969A0718C16";
paths = (
{
closed = 1;
nodes = (
"511 -214 OFFCURVE",
"572 -155 OFFCURVE",
"573 -101 CURVE SMOOTH",
"573 -94 OFFCURVE",
"571 -93 OFFCURVE",
"568 -93 CURVE SMOOTH",
"564 -93 OFFCURVE",
"562 -98 OFFCURVE",
"556 -107 CURVE SMOOTH",
"532 -146 OFFCURVE",
"497 -166 OFFCURVE",
"455 -166 CURVE SMOOTH",
"387 -166 OFFCURVE",
"331 -113 OFFCURVE",
"252 10 CURVE SMOOTH",
"245 22 LINE",
"187 15 LINE",
"196 0 LINE SMOOTH",
"274 -134 OFFCURVE",
"347 -214 OFFCURVE",
"436 -214 CURVE SMOOTH"
);
}
);
width = 491;
}
);
leftKerningGroup = O;
note = Q;
rightKerningGroup = O;
unicode = 0051;
},
{
glyphname = R;
lastChange = "2018-07-04 19:38:20 +0000";
layers = (
{
anchors = (
{
name = bottom;
position = "{239, 0}";
},
{
name = top;
position = "{275, 560}";
}
);
background = {
anchors = (
{
name = bottom;
position = "{239, 0}";
},
{
name = top;
position = "{275, 560}";
}
);
paths = (
{
closed = 1;
nodes = (
"455 -8 OFFCURVE",
"494 38 OFFCURVE",
"494 86 CURVE SMOOTH",
"494 99 OFFCURVE",
"490 106 OFFCURVE",
"484 106 CURVE SMOOTH",
"478 106 OFFCURVE",
"475 100 OFFCURVE",
"470 93 CURVE SMOOTH",
"459 77 OFFCURVE",
"446 70 OFFCURVE",
"430 70 CURVE SMOOTH",
"416 70 OFFCURVE",
"405 75 OFFCURVE",
"390 110 CURVE SMOOTH",
"348 211 LINE SMOOTH",
"338 236 OFFCURVE",
"320 254 OFFCURVE",
"297 265 CURVE",
"383 295 OFFCURVE",
"436 354 OFFCURVE",
"436 431 CURVE SMOOTH",
"436 518 OFFCURVE",
"370 568 OFFCURVE",
"261 568 CURVE SMOOTH",
"140 568 OFFCURVE",
"63 507 OFFCURVE",
"38 446 CURVE SMOOTH",
"35 439 OFFCURVE",
"34 434 OFFCURVE",
"34 430 CURVE SMOOTH",
"34 424 OFFCURVE",
"35 420 OFFCURVE",
"42 420 CURVE SMOOTH",
"51 420 OFFCURVE",
"56 427 OFFCURVE",
"70 440 CURVE SMOOTH",
"113 481 OFFCURVE",
"170 506 OFFCURVE",
"238 506 CURVE SMOOTH",
"322 506 OFFCURVE",
"351 470 OFFCURVE",
"351 403 CURVE SMOOTH",
"351 327 OFFCURVE",
"312 282 OFFCURVE",
"235 282 CURVE SMOOTH",
"221 282 OFFCURVE",
"212 283 OFFCURVE",
"204 285 CURVE",
"222 400 LINE SMOOTH",
"230 449 OFFCURVE",
"243 453 OFFCURVE",
"243 466 CURVE SMOOTH",
"243 471 OFFCURVE",
"241 474 OFFCURVE",
"230 474 CURVE SMOOTH",
"192 474 OFFCURVE",
"146 438 OFFCURVE",
"140 406 CURVE SMOOTH",
"98 142 LINE SMOOTH",
"88 82 OFFCURVE",
"80 72 OFFCURVE",
"60 52 CURVE SMOOTH",
"47 40 OFFCURVE",
"34 26 OFFCURVE",
"34 10 CURVE SMOOTH",
"34 2 OFFCURVE",
"37 0 OFFCURVE",
"40 0 CURVE SMOOTH",
"48 0 OFFCURVE",
"63 13 OFFCURVE",
"90 13 CURVE SMOOTH",
"116 13 OFFCURVE",
"141 0 OFFCURVE",
"162 0 CURVE SMOOTH",
"176 0 OFFCURVE",
"199 6 OFFCURVE",
"220 42 CURVE SMOOTH",
"225 50 OFFCURVE",
"228 57 OFFCURVE",
"228 64 CURVE SMOOTH",
"228 69 OFFCURVE",
"226 71 OFFCURVE",
"222 71 CURVE SMOOTH",
"213 71 OFFCURVE",
"205 62 OFFCURVE",
"187 62 CURVE SMOOTH",
"178 62 OFFCURVE",
"168 64 OFFCURVE",
"158 69 CURVE",
"158 70 LINE",
"167 78 OFFCURVE",
"174 92 OFFCURVE",
"177 106 CURVE SMOOTH",
"199 245 LINE",
"246 245 OFFCURVE",
"249 230 OFFCURVE",
"265 192 CURVE SMOOTH",
"316 70 LINE SMOOTH",
"338 17 OFFCURVE",
"366 -8 OFFCURVE",
"403 -8 CURVE SMOOTH"
);
}
);
};
layerId = "56450C88-1299-454A-B666-E6F9AF06B23F";
paths = (
{
closed = 1;
nodes = (
"455 -8 OFFCURVE",
"494 38 OFFCURVE",
"494 86 CURVE SMOOTH",
"494 99 OFFCURVE",
"490 106 OFFCURVE",
"484 106 CURVE SMOOTH",
"478 106 OFFCURVE",
"475 100 OFFCURVE",
"470 93 CURVE SMOOTH",
"459 77 OFFCURVE",
"446 70 OFFCURVE",
"430 70 CURVE SMOOTH",
"416 70 OFFCURVE",
"405 75 OFFCURVE",
"390 110 CURVE SMOOTH",
"348 211 LINE SMOOTH",
"338 236 OFFCURVE",
"320 254 OFFCURVE",
"297 265 CURVE",
"383 295 OFFCURVE",
"436 354 OFFCURVE",
"436 431 CURVE SMOOTH",
"436 518 OFFCURVE",
"370 568 OFFCURVE",
"261 568 CURVE SMOOTH",
"140 568 OFFCURVE",
"63 507 OFFCURVE",
"38 446 CURVE SMOOTH",
"35 439 OFFCURVE",
"34 434 OFFCURVE",
"34 430 CURVE SMOOTH",
"34 424 OFFCURVE",
"35 420 OFFCURVE",
"42 420 CURVE SMOOTH",
"51 420 OFFCURVE",
"56 427 OFFCURVE",
"70 440 CURVE SMOOTH",
"113 481 OFFCURVE",
"170 506 OFFCURVE",
"238 506 CURVE SMOOTH",
"322 506 OFFCURVE",
"351 470 OFFCURVE",
"351 403 CURVE SMOOTH",
"351 327 OFFCURVE",
"312 282 OFFCURVE",
"235 282 CURVE SMOOTH",
"221 282 OFFCURVE",
"212 283 OFFCURVE",
"204 285 CURVE",
"222 400 LINE SMOOTH",
"230 449 OFFCURVE",
"243 453 OFFCURVE",
"243 466 CURVE SMOOTH",
"243 471 OFFCURVE",
"241 474 OFFCURVE",
"230 474 CURVE SMOOTH",
"192 474 OFFCURVE",
"146 438 OFFCURVE",
"140 406 CURVE SMOOTH",
"98 142 LINE SMOOTH",
"88 82 OFFCURVE",
"80 72 OFFCURVE",
"60 52 CURVE SMOOTH",
"47 40 OFFCURVE",
"34 26 OFFCURVE",
"34 10 CURVE SMOOTH",
"34 2 OFFCURVE",
"37 0 OFFCURVE",
"40 0 CURVE SMOOTH",
"48 0 OFFCURVE",
"63 13 OFFCURVE",
"90 13 CURVE SMOOTH",
"116 13 OFFCURVE",
"141 0 OFFCURVE",
"162 0 CURVE SMOOTH",
"176 0 OFFCURVE",
"199 6 OFFCURVE",
"220 42 CURVE SMOOTH",
"225 50 OFFCURVE",
"228 57 OFFCURVE",
"228 64 CURVE SMOOTH",
"228 69 OFFCURVE",
"226 71 OFFCURVE",
"222 71 CURVE SMOOTH",
"213 71 OFFCURVE",
"205 62 OFFCURVE",
"187 62 CURVE SMOOTH",
"178 62 OFFCURVE",
"168 64 OFFCURVE",
"158 69 CURVE",
"158 70 LINE",
"167 78 OFFCURVE",
"174 92 OFFCURVE",
"177 106 CURVE SMOOTH",
"199 245 LINE",
"246 245 OFFCURVE",
"249 230 OFFCURVE",
"265 192 CURVE SMOOTH",
"316 70 LINE SMOOTH",
"338 17 OFFCURVE",
"366 -8 OFFCURVE",
"403 -8 CURVE SMOOTH"
);
}
);
width = 494;
},
{
anchors = (
{
name = bottom;
position = "{230, 0}";
},
{
name = top;
position = "{268, 560}";
}
);
background = {
anchors = (
{
name = bottom;
position = "{230, 0}";
},
{
name = top;
position = "{268, 560}";
}
);
paths = (
{
closed = 1;
nodes = (
"431 -8 OFFCURVE",
"473 34 OFFCURVE",
"473 74 CURVE SMOOTH",
"473 80 OFFCURVE",
"472 85 OFFCURVE",
"467 85 CURVE SMOOTH",
"462 85 OFFCURVE",
"461 81 OFFCURVE",
"453 71 CURVE SMOOTH",
"442 58 OFFCURVE",
"429 50 OFFCURVE",
"415 50 CURVE SMOOTH",
"395 50 OFFCURVE",
"386 65 OFFCURVE",
"377 89 CURVE SMOOTH",
"336 198 LINE SMOOTH",
"326 226 OFFCURVE",
"307 252 OFFCURVE",
"273 262 CURVE",
"354 286 OFFCURVE",
"415 353 OFFCURVE",
"415 438 CURVE SMOOTH",
"415 521 OFFCURVE",
"356 568 OFFCURVE",
"256 568 CURVE SMOOTH",
"138 568 OFFCURVE",
"57 505 OFFCURVE",
"43 451 CURVE SMOOTH",
"42 447 OFFCURVE",
"42 444 OFFCURVE",
"42 442 CURVE SMOOTH",
"42 439 OFFCURVE",
"43 436 OFFCURVE",
"47 436 CURVE SMOOTH",
"53 436 OFFCURVE",
"58 442 OFFCURVE",
"68 453 CURVE SMOOTH",
"113 503 OFFCURVE",
"167 524 OFFCURVE",
"230 524 CURVE SMOOTH",
"313 524 OFFCURVE",
"353 486 OFFCURVE",
"353 412 CURVE SMOOTH",
"353 334 OFFCURVE",
"308 282 OFFCURVE",
"231 282 CURVE SMOOTH",
"217 282 OFFCURVE",
"200 283 OFFCURVE",
"193 285 CURVE",
"215 431 LINE SMOOTH",
"222 472 OFFCURVE",
"235 474 OFFCURVE",
"235 482 CURVE SMOOTH",
"235 485 OFFCURVE",
"232 486 OFFCURVE",
"227 486 CURVE SMOOTH",
"202 486 OFFCURVE",
"159 453 OFFCURVE",
"155 426 CURVE SMOOTH",
"106 139 LINE SMOOTH",
"95 75 OFFCURVE",
"107 88 OFFCURVE",
"63 41 CURVE SMOOTH",
"51 29 OFFCURVE",
"45 20 OFFCURVE",
"45 8 CURVE SMOOTH",
"45 3 OFFCURVE",
"46 0 OFFCURVE",
"49 0 CURVE SMOOTH",
"55 0 OFFCURVE",
"70 14 OFFCURVE",
"90 14 CURVE SMOOTH",
"110 14 OFFCURVE",
"134 0 OFFCURVE",
"150 0 CURVE SMOOTH",
"156 0 OFFCURVE",
"170 2 OFFCURVE",
"199 33 CURVE SMOOTH",
"207 42 OFFCURVE",
"209 46 OFFCURVE",
"209 51 CURVE SMOOTH",
"209 54 OFFCURVE",
"207 56 OFFCURVE",
"204 56 CURVE SMOOTH",
"197 56 OFFCURVE",
"188 47 OFFCURVE",
"171 47 CURVE SMOOTH",
"161 47 OFFCURVE",
"155 50 OFFCURVE",
"143 54 CURVE",
"143 55 LINE",
"150 63 OFFCURVE",
"155 75 OFFCURVE",
"158 89 CURVE SMOOTH",
"184 245 LINE",
"250 245 OFFCURVE",
"262 228 OFFCURVE",
"278 184 CURVE SMOOTH",
"327 53 LINE SMOOTH",
"342 12 OFFCURVE",
"362 -8 OFFCURVE",
"390 -8 CURVE SMOOTH"
);
}
);
};
layerId = "0B1DFD06-3317-40CA-B510-4969A0718C16";
paths = (
{
closed = 1;
nodes = (
"431 -8 OFFCURVE",
"473 34 OFFCURVE",
"473 74 CURVE SMOOTH",
"473 80 OFFCURVE",
"472 85 OFFCURVE",
"467 85 CURVE SMOOTH",
"462 85 OFFCURVE",
"461 81 OFFCURVE",
"453 71 CURVE SMOOTH",
"442 58 OFFCURVE",
"429 50 OFFCURVE",
"415 50 CURVE SMOOTH",
"395 50 OFFCURVE",
"386 65 OFFCURVE",
"377 89 CURVE SMOOTH",
"336 198 LINE SMOOTH",
"326 226 OFFCURVE",
"307 252 OFFCURVE",
"273 262 CURVE",
"354 286 OFFCURVE",
"415 353 OFFCURVE",
"415 438 CURVE SMOOTH",
"415 521 OFFCURVE",
"356 568 OFFCURVE",
"256 568 CURVE SMOOTH",
"138 568 OFFCURVE",
"57 505 OFFCURVE",
"43 451 CURVE SMOOTH",
"42 447 OFFCURVE",
"42 444 OFFCURVE",
"42 442 CURVE SMOOTH",
"42 439 OFFCURVE",
"43 436 OFFCURVE",
"47 436 CURVE SMOOTH",
"53 436 OFFCURVE",
"58 442 OFFCURVE",
"68 453 CURVE SMOOTH",
"113 503 OFFCURVE",
"167 524 OFFCURVE",
"230 524 CURVE SMOOTH",
"313 524 OFFCURVE",
"353 486 OFFCURVE",
"353 412 CURVE SMOOTH",
"353 334 OFFCURVE",
"308 282 OFFCURVE",
"231 282 CURVE SMOOTH",
"217 282 OFFCURVE",
"200 283 OFFCURVE",
"193 285 CURVE",
"215 431 LINE SMOOTH",
"222 472 OFFCURVE",
"235 474 OFFCURVE",
"235 482 CURVE SMOOTH",
"235 485 OFFCURVE",
"232 486 OFFCURVE",
"227 486 CURVE SMOOTH",
"202 486 OFFCURVE",
"160 453 OFFCURVE",
"155 426 CURVE SMOOTH",
"106 139 LINE SMOOTH",
"94 68 OFFCURVE",
"95 71 OFFCURVE",
"63 41 CURVE SMOOTH",
"51 29 OFFCURVE",
"45 20 OFFCURVE",
"45 8 CURVE SMOOTH",
"45 3 OFFCURVE",
"46 0 OFFCURVE",
"49 0 CURVE SMOOTH",
"55 0 OFFCURVE",
"70 14 OFFCURVE",
"90 14 CURVE SMOOTH",
"110 14 OFFCURVE",
"134 0 OFFCURVE",
"150 0 CURVE SMOOTH",
"156 0 OFFCURVE",
"170 2 OFFCURVE",
"199 33 CURVE SMOOTH",
"207 42 OFFCURVE",
"209 46 OFFCURVE",
"209 51 CURVE SMOOTH",
"209 54 OFFCURVE",
"207 56 OFFCURVE",
"204 56 CURVE SMOOTH",
"197 56 OFFCURVE",
"188 47 OFFCURVE",
"171 47 CURVE SMOOTH",
"161 47 OFFCURVE",
"155 50 OFFCURVE",
"143 54 CURVE",
"143 55 LINE",
"150 63 OFFCURVE",
"156 75 OFFCURVE",
"158 89 CURVE SMOOTH",
"184 245 LINE",
"250 245 OFFCURVE",
"262 228 OFFCURVE",
"278 184 CURVE SMOOTH",
"327 53 LINE SMOOTH",
"342 12 OFFCURVE",
"362 -8 OFFCURVE",
"390 -8 CURVE SMOOTH"
);
}
);
width = 479;
}
);
leftKerningGroup = R;
note = R;
rightKerningGroup = R;
unicode = 0052;
},
{
glyphname = S;
lastChange = "2018-07-04 10:53:03 +0000";
layers = (
{
anchors = (
{
name = bottom;
position = "{126, 0}";
},
{
name = top;
position = "{268, 560}";
}
);
background = {
anchors = (
{
name = bottom;
position = "{126, 0}";
},
{
name = top;
position = "{268, 560}";
}
);
paths = (
{
closed = 1;
nodes = (
"233 -8 OFFCURVE",
"326 78 OFFCURVE",
"326 177 CURVE SMOOTH",
"326 221 OFFCURVE",
"308 257 OFFCURVE",
"272 298 CURVE SMOOTH",
"194 387 LINE SMOOTH",
"176 408 OFFCURVE",
"168 426 OFFCURVE",
"168 448 CURVE SMOOTH",
"168 486 OFFCURVE",
"194 514 OFFCURVE",
"244 514 CURVE SMOOTH",
"294 514 OFFCURVE",
"307 486 OFFCURVE",
"310 450 CURVE SMOOTH",
"311 437 OFFCURVE",
"313 421 OFFCURVE",
"327 421 CURVE SMOOTH",
"337 421 OFFCURVE",
"346 428 OFFCURVE",
"357 446 CURVE SMOOTH",
"365 459 OFFCURVE",
"372 478 OFFCURVE",
"372 497 CURVE SMOOTH",
"372 542 OFFCURVE",
"334 568 OFFCURVE",
"270 568 CURVE SMOOTH",
"151 568 OFFCURVE",
"90 481 OFFCURVE",
"90 400 CURVE SMOOTH",
"90 370 OFFCURVE",
"98 348 OFFCURVE",
"122 320 CURVE SMOOTH",
"198 230 LINE SMOOTH",
"230 191 OFFCURVE",
"243 170 OFFCURVE",
"243 134 CURVE SMOOTH",
"243 83 OFFCURVE",
"214 50 OFFCURVE",
"155 50 CURVE SMOOTH",
"90 50 OFFCURVE",
"82 92 OFFCURVE",
"72 177 CURVE SMOOTH",
"71 182 OFFCURVE",
"70 186 OFFCURVE",
"66 186 CURVE SMOOTH",
"48 186 OFFCURVE",
"1 128 OFFCURVE",
"2 85 CURVE SMOOTH",
"4 46 OFFCURVE",
"46 -8 OFFCURVE",
"129 -8 CURVE SMOOTH"
);
}
);
};
layerId = "56450C88-1299-454A-B666-E6F9AF06B23F";
paths = (
{
closed = 1;
nodes = (
"233 -8 OFFCURVE",
"326 78 OFFCURVE",
"326 177 CURVE SMOOTH",
"326 221 OFFCURVE",
"308 257 OFFCURVE",
"272 298 CURVE SMOOTH",
"194 387 LINE SMOOTH",
"176 408 OFFCURVE",
"168 426 OFFCURVE",
"168 448 CURVE SMOOTH",
"168 486 OFFCURVE",
"194 514 OFFCURVE",
"244 514 CURVE SMOOTH",
"294 514 OFFCURVE",
"307 486 OFFCURVE",
"310 450 CURVE SMOOTH",
"311 437 OFFCURVE",
"313 421 OFFCURVE",
"327 421 CURVE SMOOTH",
"337 421 OFFCURVE",
"346 428 OFFCURVE",
"357 446 CURVE SMOOTH",
"365 459 OFFCURVE",
"372 478 OFFCURVE",
"372 497 CURVE SMOOTH",
"372 542 OFFCURVE",
"334 568 OFFCURVE",
"270 568 CURVE SMOOTH",
"151 568 OFFCURVE",
"90 481 OFFCURVE",
"90 400 CURVE SMOOTH",
"90 370 OFFCURVE",
"98 348 OFFCURVE",
"122 320 CURVE SMOOTH",
"198 230 LINE SMOOTH",
"230 191 OFFCURVE",
"243 170 OFFCURVE",
"243 134 CURVE SMOOTH",
"243 83 OFFCURVE",
"214 50 OFFCURVE",
"155 50 CURVE SMOOTH",
"90 50 OFFCURVE",
"82 92 OFFCURVE",
"72 177 CURVE SMOOTH",
"71 182 OFFCURVE",
"70 186 OFFCURVE",
"66 186 CURVE SMOOTH",
"48 186 OFFCURVE",
"1 128 OFFCURVE",
"2 85 CURVE SMOOTH",
"4 46 OFFCURVE",
"46 -8 OFFCURVE",
"129 -8 CURVE SMOOTH"
);
}
);
width = 382;
},
{
anchors = (
{
name = bottom;
position = "{123, 0}";
},
{
name = top;
position = "{262, 560}";
}
);
background = {
anchors = (
{
name = bottom;
position = "{123, 0}";
},
{
name = top;
position = "{262, 560}";
}
);
paths = (
{
closed = 1;
nodes = (
"218 -8 OFFCURVE",
"308 73 OFFCURVE",
"308 169 CURVE SMOOTH",
"308 212 OFFCURVE",
"290 255 OFFCURVE",
"258 293 CURVE SMOOTH",
"181 382 LINE SMOOTH",
"161 406 OFFCURVE",
"151 429 OFFCURVE",
"151 454 CURVE SMOOTH",
"151 501 OFFCURVE",
"182 531 OFFCURVE",
"236 531 CURVE SMOOTH",
"300 531 OFFCURVE",
"305 485 OFFCURVE",
"306 466 CURVE SMOOTH",
"307 449 OFFCURVE",
"308 438 OFFCURVE",
"318 438 CURVE SMOOTH",
"324 438 OFFCURVE",
"329 442 OFFCURVE",
"334 450 CURVE SMOOTH",
"346 469 OFFCURVE",
"353 487 OFFCURVE",
"353 504 CURVE SMOOTH",
"353 547 OFFCURVE",
"313 568 OFFCURVE",
"261 568 CURVE SMOOTH",
"158 568 OFFCURVE",
"99 488 OFFCURVE",
"99 406 CURVE SMOOTH",
"99 368 OFFCURVE",
"111 346 OFFCURVE",
"127 327 CURVE SMOOTH",
"206 233 LINE SMOOTH",
"237 195 OFFCURVE",
"251 168 OFFCURVE",
"251 130 CURVE SMOOTH",
"251 68 OFFCURVE",
"214 32 OFFCURVE",
"159 32 CURVE SMOOTH",
"78 32 OFFCURVE",
"65 114 OFFCURVE",
"62 150 CURVE SMOOTH",
"62 152 OFFCURVE",
"61 155 OFFCURVE",
"58 155 CURVE SMOOTH",
"46 155 OFFCURVE",
"9 118 OFFCURVE",
"10 82 CURVE SMOOTH",
"12 50 OFFCURVE",
"47 -8 OFFCURVE",
"126 -8 CURVE SMOOTH"
);
}
);
};
layerId = "0B1DFD06-3317-40CA-B510-4969A0718C16";
paths = (
{
closed = 1;
nodes = (
"218 -8 OFFCURVE",
"308 73 OFFCURVE",
"308 169 CURVE SMOOTH",
"308 212 OFFCURVE",
"290 255 OFFCURVE",
"258 293 CURVE SMOOTH",
"181 382 LINE SMOOTH",
"161 406 OFFCURVE",
"151 429 OFFCURVE",
"151 454 CURVE SMOOTH",
"151 501 OFFCURVE",
"182 531 OFFCURVE",
"236 531 CURVE SMOOTH",
"300 531 OFFCURVE",
"305 485 OFFCURVE",
"306 466 CURVE SMOOTH",
"307 449 OFFCURVE",
"308 438 OFFCURVE",
"318 438 CURVE SMOOTH",
"324 438 OFFCURVE",
"329 442 OFFCURVE",
"334 450 CURVE SMOOTH",
"346 469 OFFCURVE",
"353 487 OFFCURVE",
"353 504 CURVE SMOOTH",
"353 547 OFFCURVE",
"313 568 OFFCURVE",
"261 568 CURVE SMOOTH",
"158 568 OFFCURVE",
"99 488 OFFCURVE",
"99 406 CURVE SMOOTH",
"99 368 OFFCURVE",
"111 346 OFFCURVE",
"127 327 CURVE SMOOTH",
"206 233 LINE SMOOTH",
"237 195 OFFCURVE",
"251 168 OFFCURVE",
"251 130 CURVE SMOOTH",
"251 68 OFFCURVE",
"214 32 OFFCURVE",
"159 32 CURVE SMOOTH",
"78 32 OFFCURVE",
"65 114 OFFCURVE",
"62 150 CURVE SMOOTH",
"62 152 OFFCURVE",
"61 155 OFFCURVE",
"58 155 CURVE SMOOTH",
"46 155 OFFCURVE",
"9 118 OFFCURVE",
"10 82 CURVE SMOOTH",
"12 50 OFFCURVE",
"47 -8 OFFCURVE",
"126 -8 CURVE SMOOTH"
);
}
);
width = 369;
}
);
leftKerningGroup = S;
note = S;
rightKerningGroup = S;
unicode = 0053;
},
{
glyphname = T;
lastChange = "2018-07-04 10:53:03 +0000";
layers = (
{
anchors = (
{
name = bottom;
position = "{210, 0}";
},
{
name = center;
position = "{262, 280}";
},
{
name = top;
position = "{306, 560}";
}
);
background = {
anchors = (
{
name = bottom;
position = "{210, 0}";
},
{
name = center;
position = "{262, 280}";
},
{
name = top;
position = "{306, 560}";
}
);
paths = (
{
closed = 1;
nodes = (
"144 0 OFFCURVE",
"159 13 OFFCURVE",
"186 13 CURVE SMOOTH",
"213 13 OFFCURVE",
"237 0 OFFCURVE",
"258 0 CURVE SMOOTH",
"276 0 OFFCURVE",
"295 8 OFFCURVE",
"322 42 CURVE SMOOTH",
"327 50 OFFCURVE",
"331 56 OFFCURVE",
"331 64 CURVE SMOOTH",
"331 69 OFFCURVE",
"330 71 OFFCURVE",
"325 71 CURVE SMOOTH",
"316 71 OFFCURVE",
"306 62 OFFCURVE",
"287 62 CURVE SMOOTH",
"277 62 OFFCURVE",
"265 64 OFFCURVE",
"255 69 CURVE",
"255 70 LINE",
"264 78 OFFCURVE",
"271 92 OFFCURVE",
"274 106 CURVE SMOOTH",
"341 487 LINE",
"364 487 LINE SMOOTH",
"488 487 OFFCURVE",
"570 548 OFFCURVE",
"570 650 CURVE SMOOTH",
"570 680 OFFCURVE",
"563 711 OFFCURVE",
"547 730 CURVE SMOOTH",
"546 731 OFFCURVE",
"544 733 OFFCURVE",
"541 733 CURVE SMOOTH",
"527 733 OFFCURVE",
"487 675 OFFCURVE",
"487 661 CURVE SMOOTH",
"487 651 OFFCURVE",
"503 638 OFFCURVE",
"503 608 CURVE SMOOTH",
"503 570 OFFCURVE",
"478 560 OFFCURVE",
"414 560 CURVE SMOOTH",
"242 560 LINE SMOOTH",
"119 560 OFFCURVE",
"37 481 OFFCURVE",
"37 378 CURVE SMOOTH",
"37 353 OFFCURVE",
"42 329 OFFCURVE",
"50 312 CURVE SMOOTH",
"52 309 OFFCURVE",
"54 306 OFFCURVE",
"58 306 CURVE SMOOTH",
"76 306 OFFCURVE",
"119 358 OFFCURVE",
"119 378 CURVE SMOOTH",
"119 388 OFFCURVE",
"106 399 OFFCURVE",
"106 431 CURVE SMOOTH",
"106 473 OFFCURVE",
"130 487 OFFCURVE",
"206 487 CURVE SMOOTH",
"255 487 LINE",
"194 142 LINE SMOOTH",
"184 85 OFFCURVE",
"179 74 OFFCURVE",
"156 52 CURVE SMOOTH",
"143 40 OFFCURVE",
"130 26 OFFCURVE",
"130 10 CURVE SMOOTH",
"130 2 OFFCURVE",
"133 0 OFFCURVE",
"136 0 CURVE SMOOTH"
);
}
);
};
layerId = "56450C88-1299-454A-B666-E6F9AF06B23F";
paths = (
{
closed = 1;
nodes = (
"144 0 OFFCURVE",
"159 13 OFFCURVE",
"186 13 CURVE SMOOTH",
"213 13 OFFCURVE",
"237 0 OFFCURVE",
"258 0 CURVE SMOOTH",
"276 0 OFFCURVE",
"295 8 OFFCURVE",
"322 42 CURVE SMOOTH",
"327 50 OFFCURVE",
"331 56 OFFCURVE",
"331 64 CURVE SMOOTH",
"331 69 OFFCURVE",
"330 71 OFFCURVE",
"325 71 CURVE SMOOTH",
"316 71 OFFCURVE",
"306 62 OFFCURVE",
"287 62 CURVE SMOOTH",
"277 62 OFFCURVE",
"265 64 OFFCURVE",
"255 69 CURVE",
"255 70 LINE",
"264 78 OFFCURVE",
"271 92 OFFCURVE",
"274 106 CURVE SMOOTH",
"341 487 LINE",
"364 487 LINE SMOOTH",
"488 487 OFFCURVE",
"570 548 OFFCURVE",
"570 650 CURVE SMOOTH",
"570 680 OFFCURVE",
"563 711 OFFCURVE",
"547 730 CURVE SMOOTH",
"546 731 OFFCURVE",
"544 733 OFFCURVE",
"541 733 CURVE SMOOTH",
"527 733 OFFCURVE",
"487 675 OFFCURVE",
"487 661 CURVE SMOOTH",
"487 651 OFFCURVE",
"503 638 OFFCURVE",
"503 608 CURVE SMOOTH",
"503 570 OFFCURVE",
"478 560 OFFCURVE",
"414 560 CURVE SMOOTH",
"242 560 LINE SMOOTH",
"119 560 OFFCURVE",
"37 481 OFFCURVE",
"37 378 CURVE SMOOTH",
"37 353 OFFCURVE",
"42 329 OFFCURVE",
"50 312 CURVE SMOOTH",
"52 309 OFFCURVE",
"54 306 OFFCURVE",
"58 306 CURVE SMOOTH",
"76 306 OFFCURVE",
"119 358 OFFCURVE",
"119 378 CURVE SMOOTH",
"119 388 OFFCURVE",
"106 399 OFFCURVE",
"106 431 CURVE SMOOTH",
"106 473 OFFCURVE",
"130 487 OFFCURVE",
"206 487 CURVE SMOOTH",
"255 487 LINE",
"194 142 LINE SMOOTH",
"184 85 OFFCURVE",
"179 74 OFFCURVE",
"156 52 CURVE SMOOTH",
"143 40 OFFCURVE",
"130 26 OFFCURVE",
"130 10 CURVE SMOOTH",
"130 2 OFFCURVE",
"133 0 OFFCURVE",
"136 0 CURVE SMOOTH"
);
}
);
width = 488;
},
{
anchors = (
{
name = bottom;
position = "{194, 0}";
},
{
name = center;
position = "{242, 280}";
},
{
name = top;
position = "{287, 560}";
}
);
background = {
anchors = (
{
name = bottom;
position = "{194, 0}";
},
{
name = center;
position = "{242, 280}";
},
{
name = top;
position = "{287, 560}";
}
);
paths = (
{
closed = 1;
nodes = (
"135 -1 OFFCURVE",
"154 12 OFFCURVE",
"172 12 CURVE SMOOTH",
"190 12 OFFCURVE",
"215 -1 OFFCURVE",
"233 -1 CURVE SMOOTH",
"247 -1 OFFCURVE",
"262 8 OFFCURVE",
"286 36 CURVE SMOOTH",
"291 42 OFFCURVE",
"293 46 OFFCURVE",
"293 50 CURVE SMOOTH",
"293 53 OFFCURVE",
"291 54 OFFCURVE",
"288 54 CURVE SMOOTH",
"281 54 OFFCURVE",
"272 46 OFFCURVE",
"254 46 CURVE SMOOTH",
"246 46 OFFCURVE",
"234 47 OFFCURVE",
"222 52 CURVE",
"222 53 LINE",
"229 62 OFFCURVE",
"236 71 OFFCURVE",
"239 90 CURVE SMOOTH",
"310 506 LINE",
"335 506 LINE SMOOTH",
"456 506 OFFCURVE",
"532 569 OFFCURVE",
"532 665 CURVE SMOOTH",
"532 686 OFFCURVE",
"528 711 OFFCURVE",
"518 728 CURVE SMOOTH",
"517 730 OFFCURVE",
"515 731 OFFCURVE",
"513 731 CURVE SMOOTH",
"499 731 OFFCURVE",
"470 686 OFFCURVE",
"470 675 CURVE SMOOTH",
"470 667 OFFCURVE",
"485 655 OFFCURVE",
"485 619 CURVE SMOOTH",
"485 578 OFFCURVE",
"465 560 OFFCURVE",
"381 560 CURVE SMOOTH",
"242 560 LINE SMOOTH",
"126 560 OFFCURVE",
"48 496 OFFCURVE",
"46 402 CURVE SMOOTH",
"45 377 OFFCURVE",
"50 350 OFFCURVE",
"59 336 CURVE SMOOTH",
"61 333 OFFCURVE",
"63 333 OFFCURVE",
"64 333 CURVE SMOOTH",
"78 333 OFFCURVE",
"107 377 OFFCURVE",
"107 389 CURVE SMOOTH",
"107 398 OFFCURVE",
"92 410 OFFCURVE",
"92 445 CURVE SMOOTH",
"92 490 OFFCURVE",
"117 506 OFFCURVE",
"196 506 CURVE SMOOTH",
"251 506 LINE",
"186 131 LINE SMOOTH",
"174 67 OFFCURVE",
"165 58 OFFCURVE",
"142 38 CURVE SMOOTH",
"134 31 OFFCURVE",
"122 14 OFFCURVE",
"122 4 CURVE SMOOTH",
"122 1 OFFCURVE",
"124 -1 OFFCURVE",
"126 -1 CURVE SMOOTH"
);
}
);
};
layerId = "0B1DFD06-3317-40CA-B510-4969A0718C16";
paths = (
{
closed = 1;
nodes = (
"135 -1 OFFCURVE",
"154 12 OFFCURVE",
"172 12 CURVE SMOOTH",
"190 12 OFFCURVE",
"215 -1 OFFCURVE",
"233 -1 CURVE SMOOTH",
"247 -1 OFFCURVE",
"262 8 OFFCURVE",
"286 36 CURVE SMOOTH",
"291 42 OFFCURVE",
"293 46 OFFCURVE",
"293 50 CURVE SMOOTH",
"293 53 OFFCURVE",
"291 54 OFFCURVE",
"288 54 CURVE SMOOTH",
"281 54 OFFCURVE",
"272 46 OFFCURVE",
"254 46 CURVE SMOOTH",
"246 46 OFFCURVE",
"234 47 OFFCURVE",
"222 52 CURVE",
"222 53 LINE",
"229 62 OFFCURVE",
"236 71 OFFCURVE",
"239 90 CURVE SMOOTH",
"310 506 LINE",
"335 506 LINE SMOOTH",
"456 506 OFFCURVE",
"532 569 OFFCURVE",
"532 665 CURVE SMOOTH",
"532 686 OFFCURVE",
"528 711 OFFCURVE",
"518 728 CURVE SMOOTH",
"517 730 OFFCURVE",
"515 731 OFFCURVE",
"513 731 CURVE SMOOTH",
"499 731 OFFCURVE",
"470 686 OFFCURVE",
"470 675 CURVE SMOOTH",
"470 667 OFFCURVE",
"485 655 OFFCURVE",
"485 619 CURVE SMOOTH",
"485 578 OFFCURVE",
"465 560 OFFCURVE",
"381 560 CURVE SMOOTH",
"242 560 LINE SMOOTH",
"126 560 OFFCURVE",
"48 496 OFFCURVE",
"46 402 CURVE SMOOTH",
"45 377 OFFCURVE",
"50 350 OFFCURVE",
"59 336 CURVE SMOOTH",
"61 333 OFFCURVE",
"63 333 OFFCURVE",
"64 333 CURVE SMOOTH",
"78 333 OFFCURVE",
"107 377 OFFCURVE",
"107 389 CURVE SMOOTH",
"107 398 OFFCURVE",
"92 410 OFFCURVE",
"92 445 CURVE SMOOTH",
"92 490 OFFCURVE",
"117 506 OFFCURVE",
"196 506 CURVE SMOOTH",
"251 506 LINE",
"186 131 LINE SMOOTH",
"174 67 OFFCURVE",
"165 58 OFFCURVE",
"142 38 CURVE SMOOTH",
"134 31 OFFCURVE",
"122 14 OFFCURVE",
"122 4 CURVE SMOOTH",
"122 1 OFFCURVE",
"124 -1 OFFCURVE",
"126 -1 CURVE SMOOTH"
);
}
);
width = 458;
}
);
leftKerningGroup = T;
note = T;
rightKerningGroup = T;
unicode = 0054;
},
{
glyphname = U;
lastChange = "2018-07-04 10:53:03 +0000";
layers = (
{
anchors = (
{
name = bottom;
position = "{237, 0}";
},
{
name = ogonek;
position = "{302, 5}";
},
{
name = top;
position = "{349, 560}";
},
{
name = topright;
position = "{512, 478}";
}
);
background = {
anchors = (
{
name = bottom;
position = "{237, 0}";
},
{
name = ogonek;
position = "{302, 5}";
},
{
name = top;
position = "{349, 560}";
},
{
name = topright;
position = "{512, 478}";
}
);
paths = (
{
closed = 1;
nodes = (
"357 -8 OFFCURVE",
"454 90 OFFCURVE",
"478 247 CURVE SMOOTH",
"517 494 LINE SMOOTH",
"523 538 OFFCURVE",
"538 546 OFFCURVE",
"538 559 CURVE SMOOTH",
"538 566 OFFCURVE",
"534 568 OFFCURVE",
"524 568 CURVE SMOOTH",
"486 568 OFFCURVE",
"438 533 OFFCURVE",
"433 501 CURVE SMOOTH",
"394 259 LINE SMOOTH",
"371 114 OFFCURVE",
"334 58 OFFCURVE",
"262 58 CURVE SMOOTH",
"193 58 OFFCURVE",
"168 108 OFFCURVE",
"186 215 CURVE SMOOTH",
"224 434 LINE SMOOTH",
"237 509 OFFCURVE",
"249 546 OFFCURVE",
"257 560 CURVE",
"241 560 OFFCURVE",
"229 556 OFFCURVE",
"202 556 CURVE SMOOTH",
"175 556 OFFCURVE",
"154 560 OFFCURVE",
"133 560 CURVE SMOOTH",
"72 560 OFFCURVE",
"25 526 OFFCURVE",
"15 475 CURVE SMOOTH",
"14 470 OFFCURVE",
"13 465 OFFCURVE",
"13 458 CURVE SMOOTH",
"13 453 OFFCURVE",
"15 450 OFFCURVE",
"19 450 CURVE SMOOTH",
"25 450 OFFCURVE",
"29 455 OFFCURVE",
"35 463 CURVE SMOOTH",
"53 487 OFFCURVE",
"74 493 OFFCURVE",
"103 493 CURVE SMOOTH",
"129 493 OFFCURVE",
"138 488 OFFCURVE",
"148 488 CURVE",
"100 218 LINE SMOOTH",
"76 85 OFFCURVE",
"130 -8 OFFCURVE",
"242 -8 CURVE SMOOTH"
);
}
);
};
layerId = "56450C88-1299-454A-B666-E6F9AF06B23F";
paths = (
{
closed = 1;
nodes = (
"357 -8 OFFCURVE",
"454 90 OFFCURVE",
"478 247 CURVE SMOOTH",
"517 494 LINE SMOOTH",
"523 538 OFFCURVE",
"538 546 OFFCURVE",
"538 559 CURVE SMOOTH",
"538 566 OFFCURVE",
"534 568 OFFCURVE",
"524 568 CURVE SMOOTH",
"486 568 OFFCURVE",
"438 533 OFFCURVE",
"433 501 CURVE SMOOTH",
"394 259 LINE SMOOTH",
"371 114 OFFCURVE",
"334 58 OFFCURVE",
"262 58 CURVE SMOOTH",
"193 58 OFFCURVE",
"168 108 OFFCURVE",
"186 215 CURVE SMOOTH",
"224 434 LINE SMOOTH",
"237 509 OFFCURVE",
"249 546 OFFCURVE",
"257 560 CURVE",
"241 560 OFFCURVE",
"229 556 OFFCURVE",
"202 556 CURVE SMOOTH",
"175 556 OFFCURVE",
"154 560 OFFCURVE",
"133 560 CURVE SMOOTH",
"72 560 OFFCURVE",
"25 526 OFFCURVE",
"15 475 CURVE SMOOTH",
"14 470 OFFCURVE",
"13 465 OFFCURVE",
"13 458 CURVE SMOOTH",
"13 453 OFFCURVE",
"15 450 OFFCURVE",
"19 450 CURVE SMOOTH",
"25 450 OFFCURVE",
"29 455 OFFCURVE",
"35 463 CURVE SMOOTH",
"53 487 OFFCURVE",
"74 493 OFFCURVE",
"103 493 CURVE SMOOTH",
"129 493 OFFCURVE",
"138 488 OFFCURVE",
"148 488 CURVE",
"100 218 LINE SMOOTH",
"76 85 OFFCURVE",
"130 -8 OFFCURVE",
"242 -8 CURVE SMOOTH"
);
}
);
width = 540;
},
{
anchors = (
{
name = bottom;
position = "{224, 0}";
},
{
name = ogonek;
position = "{282, 8}";
},
{
name = top;
position = "{343, 560}";
},
{
name = topright;
position = "{491, 486}";
}
);
background = {
anchors = (
{
name = bottom;
position = "{224, 0}";
},
{
name = ogonek;
position = "{282, 8}";
},
{
name = top;
position = "{343, 560}";
},
{
name = topright;
position = "{491, 486}";
}
);
paths = (
{
closed = 1;
nodes = (
"334 -8 OFFCURVE",
"427 91 OFFCURVE",
"451 241 CURVE SMOOTH",
"495 511 LINE SMOOTH",
"500 548 OFFCURVE",
"515 558 OFFCURVE",
"515 564 CURVE SMOOTH",
"515 567 OFFCURVE",
"511 568 OFFCURVE",
"505 568 CURVE SMOOTH",
"477 568 OFFCURVE",
"436 535 OFFCURVE",
"432 509 CURVE SMOOTH",
"391 251 LINE SMOOTH",
"367 101 OFFCURVE",
"314 26 OFFCURVE",
"234 26 CURVE SMOOTH",
"154 26 OFFCURVE",
"147 102 OFFCURVE",
"163 199 CURVE SMOOTH",
"202 422 LINE SMOOTH",
"212 482 OFFCURVE",
"225 543 OFFCURVE",
"236 560 CURVE",
"222 560 OFFCURVE",
"210 557 OFFCURVE",
"186 557 CURVE SMOOTH",
"162 557 OFFCURVE",
"141 560 OFFCURVE",
"123 560 CURVE SMOOTH",
"72 560 OFFCURVE",
"35 534 OFFCURVE",
"24 489 CURVE SMOOTH",
"23 485 OFFCURVE",
"22 480 OFFCURVE",
"22 475 CURVE SMOOTH",
"22 471 OFFCURVE",
"23 468 OFFCURVE",
"26 468 CURVE SMOOTH",
"30 468 OFFCURVE",
"33 474 OFFCURVE",
"39 482 CURVE SMOOTH",
"54 503 OFFCURVE",
"75 512 OFFCURVE",
"106 512 CURVE SMOOTH",
"125 512 OFFCURVE",
"145 508 OFFCURVE",
"157 508 CURVE",
"102 200 LINE SMOOTH",
"79 70 OFFCURVE",
"118 -8 OFFCURVE",
"219 -8 CURVE SMOOTH"
);
}
);
};
layerId = "0B1DFD06-3317-40CA-B510-4969A0718C16";
paths = (
{
closed = 1;
nodes = (
"334 -8 OFFCURVE",
"427 91 OFFCURVE",
"451 241 CURVE SMOOTH",
"495 511 LINE SMOOTH",
"500 548 OFFCURVE",
"515 558 OFFCURVE",
"515 564 CURVE SMOOTH",
"515 567 OFFCURVE",
"511 568 OFFCURVE",
"505 568 CURVE SMOOTH",
"477 568 OFFCURVE",
"436 535 OFFCURVE",
"432 509 CURVE SMOOTH",
"391 251 LINE SMOOTH",
"367 101 OFFCURVE",
"314 26 OFFCURVE",
"234 26 CURVE SMOOTH",
"154 26 OFFCURVE",
"147 102 OFFCURVE",
"163 199 CURVE SMOOTH",
"202 422 LINE SMOOTH",
"212 482 OFFCURVE",
"225 543 OFFCURVE",
"236 560 CURVE",
"222 560 OFFCURVE",
"210 557 OFFCURVE",
"186 557 CURVE SMOOTH",
"162 557 OFFCURVE",
"141 560 OFFCURVE",
"123 560 CURVE SMOOTH",
"72 560 OFFCURVE",
"35 534 OFFCURVE",
"24 489 CURVE SMOOTH",
"23 485 OFFCURVE",
"22 480 OFFCURVE",
"22 475 CURVE SMOOTH",
"22 471 OFFCURVE",
"23 468 OFFCURVE",
"26 468 CURVE SMOOTH",
"30 468 OFFCURVE",
"33 474 OFFCURVE",
"39 482 CURVE SMOOTH",
"54 503 OFFCURVE",
"75 512 OFFCURVE",
"106 512 CURVE SMOOTH",
"125 512 OFFCURVE",
"145 508 OFFCURVE",
"157 508 CURVE",
"102 200 LINE SMOOTH",
"79 70 OFFCURVE",
"118 -8 OFFCURVE",
"219 -8 CURVE SMOOTH"
);
}
);
width = 525;
}
);
leftKerningGroup = U;
note = U;
rightKerningGroup = U;
unicode = 0055;
},
{
glyphname = V;
lastChange = "2018-07-04 16:40:19 +0000";
layers = (
{
anchors = (
{
name = bottom;
position = "{234, 0}";
},
{
name = top;
position = "{318, 560}";
}
);
background = {
anchors = (
{
name = bottom;
position = "{234, 0}";
},
{
name = top;
position = "{318, 560}";
}
);
paths = (
{
closed = 1;
nodes = (
"234 -8 OFFCURVE",
"265 11 OFFCURVE",
"282 34 CURVE SMOOTH",
"290 46 OFFCURVE",
"302 67 OFFCURVE",
"304 70 CURVE SMOOTH",
"421 269 LINE SMOOTH",
"475 362 OFFCURVE",
"502 440 OFFCURVE",
"503 483 CURVE SMOOTH",
"505 526 OFFCURVE",
"481 568 OFFCURVE",
"458 568 CURVE SMOOTH",
"429 568 OFFCURVE",
"378 490 OFFCURVE",
"386 482 CURVE SMOOTH",
"397 473 OFFCURVE",
"410 460 OFFCURVE",
"410 422 CURVE SMOOTH",
"410 350 OFFCURVE",
"363 247 OFFCURVE",
"278 106 CURVE",
"278 211 OFFCURVE",
"258 396 OFFCURVE",
"230 486 CURVE SMOOTH",
"211 549 OFFCURVE",
"186 568 OFFCURVE",
"154 568 CURVE SMOOTH",
"86 568 OFFCURVE",
"29 479 OFFCURVE",
"29 410 CURVE SMOOTH",
"29 403 OFFCURVE",
"30 397 OFFCURVE",
"36 397 CURVE SMOOTH",
"42 397 OFFCURVE",
"45 401 OFFCURVE",
"50 412 CURVE SMOOTH",
"67 450 OFFCURVE",
"83 480 OFFCURVE",
"110 480 CURVE SMOOTH",
"129 480 OFFCURVE",
"136 463 OFFCURVE",
"141 449 CURVE SMOOTH",
"171 358 OFFCURVE",
"197 113 OFFCURVE",
"199 18 CURVE SMOOTH",
"200 1 OFFCURVE",
"198 -8 OFFCURVE",
"212 -8 CURVE SMOOTH"
);
}
);
};
layerId = "56450C88-1299-454A-B666-E6F9AF06B23F";
paths = (
{
closed = 1;
nodes = (
"234 -8 OFFCURVE",
"265 11 OFFCURVE",
"282 34 CURVE SMOOTH",
"290 46 OFFCURVE",
"302 67 OFFCURVE",
"304 70 CURVE SMOOTH",
"421 269 LINE SMOOTH",
"475 362 OFFCURVE",
"502 440 OFFCURVE",
"503 483 CURVE SMOOTH",
"505 526 OFFCURVE",
"481 568 OFFCURVE",
"458 568 CURVE SMOOTH",
"429 568 OFFCURVE",
"378 490 OFFCURVE",
"386 482 CURVE SMOOTH",
"397 473 OFFCURVE",
"410 460 OFFCURVE",
"410 422 CURVE SMOOTH",
"410 350 OFFCURVE",
"363 247 OFFCURVE",
"278 106 CURVE",
"278 211 OFFCURVE",
"258 396 OFFCURVE",
"230 486 CURVE SMOOTH",
"211 549 OFFCURVE",
"186 568 OFFCURVE",
"154 568 CURVE SMOOTH",
"86 568 OFFCURVE",
"29 479 OFFCURVE",
"29 410 CURVE SMOOTH",
"29 403 OFFCURVE",
"30 397 OFFCURVE",
"36 397 CURVE SMOOTH",
"42 397 OFFCURVE",
"45 401 OFFCURVE",
"50 412 CURVE SMOOTH",
"67 450 OFFCURVE",
"83 480 OFFCURVE",
"110 480 CURVE SMOOTH",
"129 480 OFFCURVE",
"136 463 OFFCURVE",
"141 449 CURVE SMOOTH",
"171 358 OFFCURVE",
"197 113 OFFCURVE",
"199 18 CURVE SMOOTH",
"200 1 OFFCURVE",
"198 -8 OFFCURVE",
"212 -8 CURVE SMOOTH"
);
}
);
width = 500;
},
{
anchors = (
{
name = bottom;
position = "{235, 0}";
},
{
name = top;
position = "{307, 560}";
}
);
background = {
anchors = (
{
name = bottom;
position = "{235, 0}";
},
{
name = top;
position = "{307, 560}";
}
);
paths = (
{
closed = 1;
nodes = (
"229 -8 OFFCURVE",
"250 6 OFFCURVE",
"260 18 CURVE SMOOTH",
"269 30 OFFCURVE",
"284 58 OFFCURVE",
"286 62 CURVE SMOOTH",
"404 266 LINE SMOOTH",
"461 365 OFFCURVE",
"482 457 OFFCURVE",
"482 500 CURVE SMOOTH",
"482 539 OFFCURVE",
"465 569 OFFCURVE",
"453 569 CURVE SMOOTH",
"435 569 OFFCURVE",
"389 505 OFFCURVE",
"394 499 CURVE SMOOTH",
"407 485 OFFCURVE",
"414 475 OFFCURVE",
"414 446 CURVE SMOOTH",
"414 362 OFFCURVE",
"357 239 OFFCURVE",
"261 87 CURVE",
"254 240 OFFCURVE",
"232 415 OFFCURVE",
"209 492 CURVE SMOOTH",
"189 561 OFFCURVE",
"163 568 OFFCURVE",
"145 568 CURVE SMOOTH",
"84 568 OFFCURVE",
"36 488 OFFCURVE",
"36 427 CURVE SMOOTH",
"36 417 OFFCURVE",
"38 413 OFFCURVE",
"42 413 CURVE SMOOTH",
"47 413 OFFCURVE",
"50 418 OFFCURVE",
"54 430 CURVE SMOOTH",
"72 483 OFFCURVE",
"93 499 OFFCURVE",
"113 499 CURVE SMOOTH",
"133 499 OFFCURVE",
"140 483 OFFCURVE",
"147 459 CURVE SMOOTH",
"179 356 OFFCURVE",
"193 186 OFFCURVE",
"202 14 CURVE SMOOTH",
"203 -5 OFFCURVE",
"205 -8 OFFCURVE",
"213 -8 CURVE SMOOTH"
);
}
);
};
layerId = "0B1DFD06-3317-40CA-B510-4969A0718C16";
paths = (
{
closed = 1;
nodes = (
"229 -8 OFFCURVE",
"250 6 OFFCURVE",
"260 18 CURVE SMOOTH",
"269 30 OFFCURVE",
"284 58 OFFCURVE",
"286 62 CURVE SMOOTH",
"404 266 LINE SMOOTH",
"461 365 OFFCURVE",
"482 457 OFFCURVE",
"482 500 CURVE SMOOTH",
"482 539 OFFCURVE",
"465 568 OFFCURVE",
"453 568 CURVE SMOOTH",
"435 568 OFFCURVE",
"389 505 OFFCURVE",
"394 499 CURVE SMOOTH",
"407 485 OFFCURVE",
"414 475 OFFCURVE",
"414 446 CURVE SMOOTH",
"414 362 OFFCURVE",
"357 239 OFFCURVE",
"261 87 CURVE",
"254 240 OFFCURVE",
"232 415 OFFCURVE",
"209 492 CURVE SMOOTH",
"189 561 OFFCURVE",
"163 568 OFFCURVE",
"145 568 CURVE SMOOTH",
"84 568 OFFCURVE",
"36 488 OFFCURVE",
"36 427 CURVE SMOOTH",
"36 417 OFFCURVE",
"38 413 OFFCURVE",
"42 413 CURVE SMOOTH",
"47 413 OFFCURVE",
"50 418 OFFCURVE",
"54 430 CURVE SMOOTH",
"72 483 OFFCURVE",
"93 499 OFFCURVE",
"113 499 CURVE SMOOTH",
"133 499 OFFCURVE",
"140 483 OFFCURVE",
"147 459 CURVE SMOOTH",
"179 356 OFFCURVE",
"193 186 OFFCURVE",
"202 14 CURVE SMOOTH",
"203 -5 OFFCURVE",
"205 -8 OFFCURVE",
"213 -8 CURVE SMOOTH"
);
}
);
width = 486;
}
);
note = V;
unicode = 0056;
},
{
glyphname = W;
lastChange = "2018-07-04 16:40:27 +0000";
layers = (
{
anchors = (
{
name = bottom;
position = "{273, 0}";
},
{
name = top;
position = "{393, 560}";
}
);
background = {
anchors = (
{
name = bottom;
position = "{273, 0}";
},
{
name = top;
position = "{393, 560}";
}
);
paths = (
{
closed = 1;
nodes = (
"144 -8 OFFCURVE",
"152 -2 OFFCURVE",
"159 3 CURVE SMOOTH",
"180 19 OFFCURVE",
"199 43 OFFCURVE",
"213 72 CURVE SMOOTH",
"231 110 OFFCURVE",
"282 244 OFFCURVE",
"342 347 CURVE",
"343 347 LINE",
"346 269 OFFCURVE",
"364 122 OFFCURVE",
"364 35 CURVE SMOOTH",
"364 4 OFFCURVE",
"362 -8 OFFCURVE",
"374 -8 CURVE SMOOTH",
"382 -8 OFFCURVE",
"391 -1 OFFCURVE",
"402 9 CURVE SMOOTH",
"424 30 OFFCURVE",
"439 55 OFFCURVE",
"448 74 CURVE SMOOTH",
"544 278 OFFCURVE",
"581 356 OFFCURVE",
"593 382 CURVE SMOOTH",
"614 430 OFFCURVE",
"629 465 OFFCURVE",
"629 493 CURVE SMOOTH",
"629 533 OFFCURVE",
"599 569 OFFCURVE",
"584 569 CURVE SMOOTH",
"562 569 OFFCURVE",
"508 494 OFFCURVE",
"514 482 CURVE SMOOTH",
"516 477 OFFCURVE",
"539 470 OFFCURVE",
"539 430 CURVE SMOOTH",
"539 394 OFFCURVE",
"521 347 OFFCURVE",
"495 291 CURVE SMOOTH",
"471 238 OFFCURVE",
"442 181 OFFCURVE",
"438 170 CURVE",
"437 170 LINE",
"436 180 OFFCURVE",
"435 192 OFFCURVE",
"430 270 CURVE SMOOTH",
"426 334 OFFCURVE",
"422 413 OFFCURVE",
"422 454 CURVE SMOOTH",
"422 491 OFFCURVE",
"426 516 OFFCURVE",
"430 541 CURVE SMOOTH",
"434 564 OFFCURVE",
"370 526 OFFCURVE",
"345 476 CURVE SMOOTH",
"338 461 OFFCURVE",
"249 276 OFFCURVE",
"228 232 CURVE",
"227 232 LINE",
"229 254 OFFCURVE",
"230 297 OFFCURVE",
"230 338 CURVE SMOOTH",
"230 491 OFFCURVE",
"218 568 OFFCURVE",
"154 568 CURVE SMOOTH",
"86 568 OFFCURVE",
"29 481 OFFCURVE",
"29 412 CURVE SMOOTH",
"29 403 OFFCURVE",
"30 398 OFFCURVE",
"36 398 CURVE SMOOTH",
"42 398 OFFCURVE",
"45 402 OFFCURVE",
"50 414 CURVE SMOOTH",
"65 448 OFFCURVE",
"82 482 OFFCURVE",
"113 482 CURVE SMOOTH",
"143 482 OFFCURVE",
"148 450 OFFCURVE",
"148 335 CURVE SMOOTH",
"148 220 OFFCURVE",
"143 174 OFFCURVE",
"124 3 CURVE SMOOTH",
"123 -4 OFFCURVE",
"123 -8 OFFCURVE",
"133 -8 CURVE SMOOTH"
);
}
);
};
layerId = "56450C88-1299-454A-B666-E6F9AF06B23F";
paths = (
{
closed = 1;
nodes = (
"144 -8 OFFCURVE",
"152 -2 OFFCURVE",
"159 3 CURVE SMOOTH",
"180 19 OFFCURVE",
"199 43 OFFCURVE",
"213 72 CURVE SMOOTH",
"231 110 OFFCURVE",
"282 244 OFFCURVE",
"342 347 CURVE",
"343 347 LINE",
"346 269 OFFCURVE",
"364 122 OFFCURVE",
"364 35 CURVE SMOOTH",
"364 4 OFFCURVE",
"362 -8 OFFCURVE",
"374 -8 CURVE SMOOTH",
"382 -8 OFFCURVE",
"391 -1 OFFCURVE",
"402 9 CURVE SMOOTH",
"424 30 OFFCURVE",
"439 55 OFFCURVE",
"448 74 CURVE SMOOTH",
"544 278 OFFCURVE",
"581 356 OFFCURVE",
"593 382 CURVE SMOOTH",
"614 430 OFFCURVE",
"629 465 OFFCURVE",
"629 493 CURVE SMOOTH",
"629 533 OFFCURVE",
"599 568 OFFCURVE",
"584 568 CURVE SMOOTH",
"562 568 OFFCURVE",
"508 494 OFFCURVE",
"514 482 CURVE SMOOTH",
"516 477 OFFCURVE",
"539 470 OFFCURVE",
"539 430 CURVE SMOOTH",
"539 394 OFFCURVE",
"521 347 OFFCURVE",
"495 291 CURVE SMOOTH",
"471 238 OFFCURVE",
"442 181 OFFCURVE",
"438 170 CURVE",
"437 170 LINE",
"436 180 OFFCURVE",
"435 192 OFFCURVE",
"430 270 CURVE SMOOTH",
"426 334 OFFCURVE",
"422 413 OFFCURVE",
"422 454 CURVE SMOOTH",
"422 491 OFFCURVE",
"426 516 OFFCURVE",
"430 541 CURVE SMOOTH",
"434 564 OFFCURVE",
"370 526 OFFCURVE",
"345 476 CURVE SMOOTH",
"338 461 OFFCURVE",
"249 276 OFFCURVE",
"228 232 CURVE",
"227 232 LINE",
"229 254 OFFCURVE",
"230 297 OFFCURVE",
"230 338 CURVE SMOOTH",
"230 491 OFFCURVE",
"218 568 OFFCURVE",
"154 568 CURVE SMOOTH",
"86 568 OFFCURVE",
"29 481 OFFCURVE",
"29 412 CURVE SMOOTH",
"29 403 OFFCURVE",
"30 398 OFFCURVE",
"36 398 CURVE SMOOTH",
"42 398 OFFCURVE",
"45 402 OFFCURVE",
"50 414 CURVE SMOOTH",
"65 448 OFFCURVE",
"82 482 OFFCURVE",
"113 482 CURVE SMOOTH",
"143 482 OFFCURVE",
"148 450 OFFCURVE",
"148 335 CURVE SMOOTH",
"148 220 OFFCURVE",
"143 174 OFFCURVE",
"124 3 CURVE SMOOTH",
"123 -4 OFFCURVE",
"123 -8 OFFCURVE",
"133 -8 CURVE SMOOTH"
);
}
);
width = 621;
},
{
anchors = (
{
name = bottom;
position = "{273, 0}";
},
{
name = top;
position = "{409, 560}";
}
);
background = {
anchors = (
{
name = bottom;
position = "{273, 0}";
},
{
name = top;
position = "{409, 560}";
}
);
paths = (
{
closed = 1;
nodes = (
"136 -8 OFFCURVE",
"147 -6 OFFCURVE",
"157 5 CURVE SMOOTH",
"173 22 OFFCURVE",
"189 54 OFFCURVE",
"195 66 CURVE",
"212 109 OFFCURVE",
"307 318 OFFCURVE",
"348 399 CURVE",
"349 399 LINE",
"351 318 OFFCURVE",
"370 118 OFFCURVE",
"370 23 CURVE SMOOTH",
"370 4 OFFCURVE",
"369 -8 OFFCURVE",
"374 -8 CURVE SMOOTH",
"377 -8 OFFCURVE",
"387 -4 OFFCURVE",
"394 6 CURVE SMOOTH",
"403 18 OFFCURVE",
"426 59 OFFCURVE",
"430 68 CURVE",
"437 84 OFFCURVE",
"556 350 OFFCURVE",
"579 403 CURVE SMOOTH",
"599 449 OFFCURVE",
"611 482 OFFCURVE",
"611 509 CURVE SMOOTH",
"611 540 OFFCURVE",
"595 569 OFFCURVE",
"582 569 CURVE SMOOTH",
"563 569 OFFCURVE",
"521 502 OFFCURVE",
"525 499 CURVE SMOOTH",
"534 490 OFFCURVE",
"546 479 OFFCURVE",
"546 446 CURVE SMOOTH",
"546 398 OFFCURVE",
"520 349 OFFCURVE",
"497 295 CURVE SMOOTH",
"434 153 OFFCURVE",
"489 278 OFFCURVE",
"423 127 CURVE",
"422 127 LINE",
"421 152 OFFCURVE",
"412 262 OFFCURVE",
"411 278 CURVE SMOOTH",
"407 328 OFFCURVE",
"405 423 OFFCURVE",
"405 471 CURVE SMOOTH",
"405 499 OFFCURVE",
"405 505 OFFCURVE",
"409 529 CURVE SMOOTH",
"412 545 OFFCURVE",
"366 513 OFFCURVE",
"351 482 CURVE SMOOTH",
"345 468 OFFCURVE",
"239 243 OFFCURVE",
"207 174 CURVE",
"206 174 LINE",
"211 260 OFFCURVE",
"213 302 OFFCURVE",
"213 348 CURVE SMOOTH",
"213 461 OFFCURVE",
"203 568 OFFCURVE",
"140 568 CURVE SMOOTH",
"87 568 OFFCURVE",
"36 495 OFFCURVE",
"36 432 CURVE SMOOTH",
"36 422 OFFCURVE",
"38 418 OFFCURVE",
"42 418 CURVE SMOOTH",
"48 418 OFFCURVE",
"50 422 OFFCURVE",
"54 434 CURVE SMOOTH",
"69 476 OFFCURVE",
"88 499 OFFCURVE",
"112 499 CURVE SMOOTH",
"145 499 OFFCURVE",
"153 454 OFFCURVE",
"153 335 CURVE SMOOTH",
"153 212 OFFCURVE",
"144 118 OFFCURVE",
"131 0 CURVE SMOOTH",
"130 -6 OFFCURVE",
"132 -8 OFFCURVE",
"134 -8 CURVE SMOOTH"
);
}
);
};
layerId = "0B1DFD06-3317-40CA-B510-4969A0718C16";
paths = (
{
closed = 1;
nodes = (
"136 -8 OFFCURVE",
"147 -6 OFFCURVE",
"157 5 CURVE SMOOTH",
"173 22 OFFCURVE",
"189 54 OFFCURVE",
"195 66 CURVE",
"212 109 OFFCURVE",
"307 318 OFFCURVE",
"348 399 CURVE",
"349 399 LINE",
"351 318 OFFCURVE",
"370 118 OFFCURVE",
"370 23 CURVE SMOOTH",
"370 4 OFFCURVE",
"369 -8 OFFCURVE",
"374 -8 CURVE SMOOTH",
"377 -8 OFFCURVE",
"387 -4 OFFCURVE",
"394 6 CURVE SMOOTH",
"403 18 OFFCURVE",
"426 59 OFFCURVE",
"430 68 CURVE",
"437 84 OFFCURVE",
"556 350 OFFCURVE",
"579 403 CURVE SMOOTH",
"599 449 OFFCURVE",
"611 482 OFFCURVE",
"611 509 CURVE SMOOTH",
"611 540 OFFCURVE",
"595 568 OFFCURVE",
"582 568 CURVE SMOOTH",
"563 568 OFFCURVE",
"521 502 OFFCURVE",
"525 499 CURVE SMOOTH",
"534 490 OFFCURVE",
"546 479 OFFCURVE",
"546 446 CURVE SMOOTH",
"546 398 OFFCURVE",
"520 349 OFFCURVE",
"497 295 CURVE SMOOTH",
"434 153 OFFCURVE",
"489 278 OFFCURVE",
"423 127 CURVE",
"422 127 LINE",
"421 152 OFFCURVE",
"412 262 OFFCURVE",
"411 278 CURVE SMOOTH",
"407 328 OFFCURVE",
"405 423 OFFCURVE",
"405 471 CURVE SMOOTH",
"405 499 OFFCURVE",
"405 505 OFFCURVE",
"409 529 CURVE SMOOTH",
"412 545 OFFCURVE",
"366 513 OFFCURVE",
"351 482 CURVE SMOOTH",
"345 468 OFFCURVE",
"239 243 OFFCURVE",
"207 174 CURVE",
"206 174 LINE",
"211 260 OFFCURVE",
"213 302 OFFCURVE",
"213 348 CURVE SMOOTH",
"213 461 OFFCURVE",
"203 568 OFFCURVE",
"140 568 CURVE SMOOTH",
"87 568 OFFCURVE",
"36 495 OFFCURVE",
"36 432 CURVE SMOOTH",
"36 422 OFFCURVE",
"38 418 OFFCURVE",
"42 418 CURVE SMOOTH",
"48 418 OFFCURVE",
"50 422 OFFCURVE",
"54 434 CURVE SMOOTH",
"69 476 OFFCURVE",
"88 499 OFFCURVE",
"112 499 CURVE SMOOTH",
"145 499 OFFCURVE",
"153 454 OFFCURVE",
"153 335 CURVE SMOOTH",
"153 212 OFFCURVE",
"144 118 OFFCURVE",
"131 0 CURVE SMOOTH",
"130 -6 OFFCURVE",
"132 -8 OFFCURVE",
"134 -8 CURVE SMOOTH"
);
}
);
width = 611;
}
);
leftKerningGroup = W;
note = W;
rightKerningGroup = W;
unicode = 0057;
},
{
glyphname = X;
lastChange = "2018-07-04 10:53:03 +0000";
layers = (
{
anchors = (
{
name = bottom;
position = "{211, 0}";
},
{
name = top;
position = "{310, 560}";
}
);
background = {
anchors = (
{
name = bottom;
position = "{211, 0}";
},
{
name = top;
position = "{310, 560}";
}
);
paths = (
{
closed = 1;
nodes = (
"94 -8 OFFCURVE",
"172 60 OFFCURVE",
"234 185 CURVE SMOOTH",
"237 190 LINE",
"248 148 LINE SMOOTH",
"282 22 OFFCURVE",
"306 -8 OFFCURVE",
"343 -8 CURVE SMOOTH",
"406 -8 OFFCURVE",
"462 78 OFFCURVE",
"462 137 CURVE SMOOTH",
"462 147 OFFCURVE",
"460 151 OFFCURVE",
"455 151 CURVE SMOOTH",
"447 151 OFFCURVE",
"444 144 OFFCURVE",
"441 136 CURVE SMOOTH",
"424 97 OFFCURVE",
"402 78 OFFCURVE",
"383 78 CURVE SMOOTH",
"360 78 OFFCURVE",
"350 102 OFFCURVE",
"337 150 CURVE SMOOTH",
"298 295 LINE",
"329 356 OFFCURVE",
"370 424 OFFCURVE",
"399 458 CURVE SMOOTH",
"412 473 OFFCURVE",
"422 479 OFFCURVE",
"436 479 CURVE SMOOTH",
"449 479 OFFCURVE",
"456 474 OFFCURVE",
"467 466 CURVE SMOOTH",
"474 460 OFFCURVE",
"535 523 OFFCURVE",
"535 537 CURVE SMOOTH",
"535 546 OFFCURVE",
"511 568 OFFCURVE",
"472 568 CURVE SMOOTH",
"412 568 OFFCURVE",
"358 517 OFFCURVE",
"296 401 CURVE SMOOTH",
"277 365 LINE",
"242 502 LINE SMOOTH",
"230 550 OFFCURVE",
"206 568 OFFCURVE",
"178 568 CURVE SMOOTH",
"115 568 OFFCURVE",
"69 475 OFFCURVE",
"69 416 CURVE SMOOTH",
"69 405 OFFCURVE",
"71 401 OFFCURVE",
"76 401 CURVE SMOOTH",
"82 401 OFFCURVE",
"86 406 OFFCURVE",
"90 416 CURVE SMOOTH",
"102 447 OFFCURVE",
"116 482 OFFCURVE",
"140 482 CURVE SMOOTH",
"160 482 OFFCURVE",
"165 458 OFFCURVE",
"175 417 CURVE SMOOTH",
"212 270 LINE",
"206 258 LINE SMOOTH",
"145 126 OFFCURVE",
"96 80 OFFCURVE",
"61 80 CURVE SMOOTH",
"46 80 OFFCURVE",
"38 87 OFFCURVE",
"30 94 CURVE SMOOTH",
"20 102 OFFCURVE",
"-34 42 OFFCURVE",
"-34 22 CURVE SMOOTH",
"-34 9 OFFCURVE",
"-10 -8 OFFCURVE",
"25 -8 CURVE SMOOTH"
);
}
);
};
layerId = "56450C88-1299-454A-B666-E6F9AF06B23F";
paths = (
{
closed = 1;
nodes = (
"94 -8 OFFCURVE",
"172 60 OFFCURVE",
"234 185 CURVE SMOOTH",
"237 190 LINE",
"248 148 LINE SMOOTH",
"282 22 OFFCURVE",
"306 -8 OFFCURVE",
"343 -8 CURVE SMOOTH",
"406 -8 OFFCURVE",
"462 78 OFFCURVE",
"462 137 CURVE SMOOTH",
"462 147 OFFCURVE",
"460 151 OFFCURVE",
"455 151 CURVE SMOOTH",
"447 151 OFFCURVE",
"444 144 OFFCURVE",
"441 136 CURVE SMOOTH",
"424 97 OFFCURVE",
"402 78 OFFCURVE",
"383 78 CURVE SMOOTH",
"360 78 OFFCURVE",
"350 102 OFFCURVE",
"337 150 CURVE SMOOTH",
"298 295 LINE",
"329 356 OFFCURVE",
"370 424 OFFCURVE",
"399 458 CURVE SMOOTH",
"412 473 OFFCURVE",
"422 479 OFFCURVE",
"436 479 CURVE SMOOTH",
"449 479 OFFCURVE",
"456 474 OFFCURVE",
"467 466 CURVE SMOOTH",
"474 460 OFFCURVE",
"535 523 OFFCURVE",
"535 537 CURVE SMOOTH",
"535 546 OFFCURVE",
"511 568 OFFCURVE",
"472 568 CURVE SMOOTH",
"412 568 OFFCURVE",
"358 517 OFFCURVE",
"296 401 CURVE SMOOTH",
"277 365 LINE",
"242 502 LINE SMOOTH",
"230 550 OFFCURVE",
"206 568 OFFCURVE",
"178 568 CURVE SMOOTH",
"115 568 OFFCURVE",
"69 475 OFFCURVE",
"69 416 CURVE SMOOTH",
"69 405 OFFCURVE",
"71 401 OFFCURVE",
"76 401 CURVE SMOOTH",
"82 401 OFFCURVE",
"86 406 OFFCURVE",
"90 416 CURVE SMOOTH",
"102 447 OFFCURVE",
"116 482 OFFCURVE",
"140 482 CURVE SMOOTH",
"160 482 OFFCURVE",
"165 458 OFFCURVE",
"175 417 CURVE SMOOTH",
"212 270 LINE",
"206 258 LINE SMOOTH",
"145 126 OFFCURVE",
"96 80 OFFCURVE",
"61 80 CURVE SMOOTH",
"46 80 OFFCURVE",
"38 87 OFFCURVE",
"30 94 CURVE SMOOTH",
"20 102 OFFCURVE",
"-34 42 OFFCURVE",
"-34 22 CURVE SMOOTH",
"-34 9 OFFCURVE",
"-10 -8 OFFCURVE",
"25 -8 CURVE SMOOTH"
);
}
);
width = 514;
},
{
anchors = (
{
name = bottom;
position = "{198, 0}";
},
{
name = top;
position = "{288, 560}";
}
);
background = {
anchors = (
{
name = bottom;
position = "{198, 0}";
},
{
name = top;
position = "{288, 560}";
}
);
paths = (
{
closed = 1;
nodes = (
"89 -8 OFFCURVE",
"163 70 OFFCURVE",
"224 212 CURVE SMOOTH",
"229 223 LINE",
"250 143 LINE SMOOTH",
"278 40 OFFCURVE",
"298 -8 OFFCURVE",
"335 -8 CURVE SMOOTH",
"386 -8 OFFCURVE",
"430 85 OFFCURVE",
"430 120 CURVE SMOOTH",
"430 126 OFFCURVE",
"429 130 OFFCURVE",
"425 130 CURVE SMOOTH",
"420 130 OFFCURVE",
"417 125 OFFCURVE",
"413 116 CURVE SMOOTH",
"403 94 OFFCURVE",
"386 60 OFFCURVE",
"362 60 CURVE SMOOTH",
"346 60 OFFCURVE",
"334 73 OFFCURVE",
"321 121 CURVE SMOOTH",
"274 295 LINE",
"307 365 OFFCURVE",
"337 422 OFFCURVE",
"367 460 CURVE SMOOTH",
"388 486 OFFCURVE",
"405 498 OFFCURVE",
"426 498 CURVE SMOOTH",
"441 498 OFFCURVE",
"448 491 OFFCURVE",
"457 483 CURVE SMOOTH",
"460 480 OFFCURVE",
"502 532 OFFCURVE",
"502 546 CURVE SMOOTH",
"502 557 OFFCURVE",
"478 568 OFFCURVE",
"454 568 CURVE SMOOTH",
"403 568 OFFCURVE",
"352 512 OFFCURVE",
"294 405 CURVE SMOOTH",
"259 342 LINE",
"216 507 LINE SMOOTH",
"206 546 OFFCURVE",
"190 568 OFFCURVE",
"166 568 CURVE SMOOTH",
"115 568 OFFCURVE",
"69 476 OFFCURVE",
"69 434 CURVE SMOOTH",
"69 427 OFFCURVE",
"71 423 OFFCURVE",
"75 423 CURVE SMOOTH",
"80 423 OFFCURVE",
"82 428 OFFCURVE",
"86 437 CURVE SMOOTH",
"96 458 OFFCURVE",
"115 499 OFFCURVE",
"138 499 CURVE SMOOTH",
"154 499 OFFCURVE",
"162 479 OFFCURVE",
"174 434 CURVE SMOOTH",
"214 270 LINE",
"207 255 LINE SMOOTH",
"171 179 OFFCURVE",
"115 62 OFFCURVE",
"55 62 CURVE SMOOTH",
"40 62 OFFCURVE",
"32 70 OFFCURVE",
"23 78 CURVE SMOOTH",
"19 82 OFFCURVE",
"-26 34 OFFCURVE",
"-26 20 CURVE SMOOTH",
"-26 10 OFFCURVE",
"-9 -8 OFFCURVE",
"23 -8 CURVE SMOOTH"
);
}
);
};
layerId = "0B1DFD06-3317-40CA-B510-4969A0718C16";
paths = (
{
closed = 1;
nodes = (
"89 -8 OFFCURVE",
"163 70 OFFCURVE",
"224 212 CURVE SMOOTH",
"229 223 LINE",
"250 143 LINE SMOOTH",
"278 40 OFFCURVE",
"298 -8 OFFCURVE",
"335 -8 CURVE SMOOTH",
"386 -8 OFFCURVE",
"430 85 OFFCURVE",
"430 120 CURVE SMOOTH",
"430 126 OFFCURVE",
"429 130 OFFCURVE",
"425 130 CURVE SMOOTH",
"420 130 OFFCURVE",
"417 125 OFFCURVE",
"413 116 CURVE SMOOTH",
"403 94 OFFCURVE",
"386 60 OFFCURVE",
"362 60 CURVE SMOOTH",
"346 60 OFFCURVE",
"334 73 OFFCURVE",
"321 121 CURVE SMOOTH",
"274 295 LINE",
"307 365 OFFCURVE",
"337 422 OFFCURVE",
"367 460 CURVE SMOOTH",
"388 486 OFFCURVE",
"405 498 OFFCURVE",
"426 498 CURVE SMOOTH",
"441 498 OFFCURVE",
"448 491 OFFCURVE",
"457 483 CURVE SMOOTH",
"460 480 OFFCURVE",
"502 532 OFFCURVE",
"502 546 CURVE SMOOTH",
"502 557 OFFCURVE",
"478 568 OFFCURVE",
"454 568 CURVE SMOOTH",
"403 568 OFFCURVE",
"352 512 OFFCURVE",
"294 405 CURVE SMOOTH",
"259 342 LINE",
"216 507 LINE SMOOTH",
"206 546 OFFCURVE",
"190 568 OFFCURVE",
"166 568 CURVE SMOOTH",
"115 568 OFFCURVE",
"69 476 OFFCURVE",
"69 434 CURVE SMOOTH",
"69 427 OFFCURVE",
"71 423 OFFCURVE",
"75 423 CURVE SMOOTH",
"80 423 OFFCURVE",
"82 428 OFFCURVE",
"86 437 CURVE SMOOTH",
"96 458 OFFCURVE",
"115 499 OFFCURVE",
"138 499 CURVE SMOOTH",
"154 499 OFFCURVE",
"162 479 OFFCURVE",
"174 434 CURVE SMOOTH",
"214 270 LINE",
"207 255 LINE SMOOTH",
"171 179 OFFCURVE",
"115 62 OFFCURVE",
"55 62 CURVE SMOOTH",
"40 62 OFFCURVE",
"32 70 OFFCURVE",
"23 78 CURVE SMOOTH",
"19 82 OFFCURVE",
"-26 34 OFFCURVE",
"-26 20 CURVE SMOOTH",
"-26 10 OFFCURVE",
"-9 -8 OFFCURVE",
"23 -8 CURVE SMOOTH"
);
}
);
width = 490;
}
);
note = X;
unicode = 0058;
},
{
glyphname = Y;
lastChange = "2018-07-04 19:38:43 +0000";
layers = (
{
anchors = (
{
name = bottom;
position = "{177, 0}";
},
{
name = top;
position = "{293, 560}";
}
);
background = {
anchors = (
{
name = bottom;
position = "{177, 0}";
},
{
name = top;
position = "{293, 560}";
}
);
paths = (
{
closed = 1;
nodes = (
"114 0 OFFCURVE",
"130 13 OFFCURVE",
"157 13 CURVE SMOOTH",
"183 13 OFFCURVE",
"207 0 OFFCURVE",
"229 0 CURVE SMOOTH",
"246 0 OFFCURVE",
"266 8 OFFCURVE",
"292 42 CURVE SMOOTH",
"298 50 OFFCURVE",
"302 56 OFFCURVE",
"302 64 CURVE SMOOTH",
"302 69 OFFCURVE",
"300 71 OFFCURVE",
"295 71 CURVE SMOOTH",
"286 71 OFFCURVE",
"277 62 OFFCURVE",
"258 62 CURVE SMOOTH",
"247 62 OFFCURVE",
"235 64 OFFCURVE",
"226 69 CURVE",
"226 70 LINE",
"234 78 OFFCURVE",
"241 91 OFFCURVE",
"244 108 CURVE SMOOTH",
"263 210 LINE SMOOTH",
"286 336 OFFCURVE",
"359 474 OFFCURVE",
"420 474 CURVE SMOOTH",
"440 474 OFFCURVE",
"448 459 OFFCURVE",
"453 457 CURVE SMOOTH",
"467 449 OFFCURVE",
"510 525 OFFCURVE",
"510 540 CURVE SMOOTH",
"510 552 OFFCURVE",
"485 568 OFFCURVE",
"453 568 CURVE SMOOTH",
"378 568 OFFCURVE",
"310 484 OFFCURVE",
"258 342 CURVE",
"257 342 LINE",
"241 482 OFFCURVE",
"198 568 OFFCURVE",
"137 568 CURVE SMOOTH",
"79 568 OFFCURVE",
"37 490 OFFCURVE",
"37 442 CURVE SMOOTH",
"37 434 OFFCURVE",
"38 430 OFFCURVE",
"43 430 CURVE SMOOTH",
"48 430 OFFCURVE",
"53 434 OFFCURVE",
"57 443 CURVE SMOOTH",
"66 462 OFFCURVE",
"82 490 OFFCURVE",
"106 490 CURVE SMOOTH",
"169 490 OFFCURVE",
"194 298 OFFCURVE",
"175 200 CURVE SMOOTH",
"162 133 LINE SMOOTH",
"152 80 OFFCURVE",
"148 73 OFFCURVE",
"126 52 CURVE SMOOTH",
"114 40 OFFCURVE",
"101 26 OFFCURVE",
"101 10 CURVE SMOOTH",
"101 2 OFFCURVE",
"103 0 OFFCURVE",
"106 0 CURVE SMOOTH"
);
}
);
};
layerId = "56450C88-1299-454A-B666-E6F9AF06B23F";
paths = (
{
closed = 1;
nodes = (
"114 0 OFFCURVE",
"130 13 OFFCURVE",
"157 13 CURVE SMOOTH",
"183 13 OFFCURVE",
"207 0 OFFCURVE",
"229 0 CURVE SMOOTH",
"246 0 OFFCURVE",
"266 8 OFFCURVE",
"292 42 CURVE SMOOTH",
"298 50 OFFCURVE",
"302 56 OFFCURVE",
"302 64 CURVE SMOOTH",
"302 69 OFFCURVE",
"300 71 OFFCURVE",
"295 71 CURVE SMOOTH",
"286 71 OFFCURVE",
"277 62 OFFCURVE",
"258 62 CURVE SMOOTH",
"247 62 OFFCURVE",
"235 64 OFFCURVE",
"226 69 CURVE",
"226 70 LINE",
"234 78 OFFCURVE",
"241 91 OFFCURVE",
"244 108 CURVE SMOOTH",
"263 210 LINE SMOOTH",
"286 336 OFFCURVE",
"359 474 OFFCURVE",
"420 474 CURVE SMOOTH",
"440 474 OFFCURVE",
"448 459 OFFCURVE",
"453 457 CURVE SMOOTH",
"467 449 OFFCURVE",
"510 525 OFFCURVE",
"510 540 CURVE SMOOTH",
"510 552 OFFCURVE",
"485 568 OFFCURVE",
"453 568 CURVE SMOOTH",
"378 568 OFFCURVE",
"310 484 OFFCURVE",
"258 342 CURVE",
"257 342 LINE",
"241 482 OFFCURVE",
"198 568 OFFCURVE",
"137 568 CURVE SMOOTH",
"79 568 OFFCURVE",
"37 490 OFFCURVE",
"37 442 CURVE SMOOTH",
"37 434 OFFCURVE",
"38 430 OFFCURVE",
"43 430 CURVE SMOOTH",
"48 430 OFFCURVE",
"53 434 OFFCURVE",
"57 443 CURVE SMOOTH",
"66 462 OFFCURVE",
"82 490 OFFCURVE",
"106 490 CURVE SMOOTH",
"169 490 OFFCURVE",
"194 298 OFFCURVE",
"175 200 CURVE SMOOTH",
"162 133 LINE SMOOTH",
"152 80 OFFCURVE",
"148 73 OFFCURVE",
"126 52 CURVE SMOOTH",
"114 40 OFFCURVE",
"101 26 OFFCURVE",
"101 10 CURVE SMOOTH",
"101 2 OFFCURVE",
"103 0 OFFCURVE",
"106 0 CURVE SMOOTH"
);
}
);
width = 468;
},
{
anchors = (
{
name = bottom;
position = "{163, 0}";
},
{
name = top;
position = "{282, 560}";
}
);
background = {
anchors = (
{
name = bottom;
position = "{163, 0}";
},
{
name = top;
position = "{282, 560}";
}
);
paths = (
{
closed = 1;
nodes = (
"115 0 OFFCURVE",
"127 14 OFFCURVE",
"149 14 CURVE SMOOTH",
"169 14 OFFCURVE",
"193 0 OFFCURVE",
"209 0 CURVE SMOOTH",
"219 0 OFFCURVE",
"236 4 OFFCURVE",
"262 33 CURVE SMOOTH",
"271 43 OFFCURVE",
"272 47 OFFCURVE",
"272 51 CURVE SMOOTH",
"272 54 OFFCURVE",
"270 56 OFFCURVE",
"267 56 CURVE SMOOTH",
"261 56 OFFCURVE",
"251 47 OFFCURVE",
"234 47 CURVE SMOOTH",
"222 47 OFFCURVE",
"214 50 OFFCURVE",
"202 54 CURVE",
"202 55 LINE",
"210 63 OFFCURVE",
"216 75 OFFCURVE",
"219 89 CURVE SMOOTH",
"243 218 LINE SMOOTH",
"262 321 OFFCURVE",
"343 491 OFFCURVE",
"415 491 CURVE SMOOTH",
"426 491 OFFCURVE",
"433 487 OFFCURVE",
"441 478 CURVE SMOOTH",
"444 475 OFFCURVE",
"487 534 OFFCURVE",
"487 546 CURVE SMOOTH",
"487 554 OFFCURVE",
"469 568 OFFCURVE",
"443 568 CURVE SMOOTH",
"361 568 OFFCURVE",
"279 424 OFFCURVE",
"239 310 CURVE",
"238 310 LINE",
"230 414 OFFCURVE",
"203 568 OFFCURVE",
"125 568 CURVE SMOOTH",
"80 568 OFFCURVE",
"46 517 OFFCURVE",
"46 469 CURVE SMOOTH",
"46 462 OFFCURVE",
"48 458 OFFCURVE",
"52 458 CURVE SMOOTH",
"56 458 OFFCURVE",
"58 462 OFFCURVE",
"65 474 CURVE SMOOTH",
"78 497 OFFCURVE",
"92 507 OFFCURVE",
"107 507 CURVE SMOOTH",
"170 507 OFFCURVE",
"197 289 OFFCURVE",
"181 206 CURVE SMOOTH",
"169 142 LINE SMOOTH",
"153 57 OFFCURVE",
"150 68 OFFCURVE",
"122 41 CURVE SMOOTH",
"107 26 OFFCURVE",
"104 18 OFFCURVE",
"104 9 CURVE SMOOTH",
"104 3 OFFCURVE",
"105 0 OFFCURVE",
"108 0 CURVE SMOOTH"
);
}
);
};
layerId = "0B1DFD06-3317-40CA-B510-4969A0718C16";
paths = (
{
closed = 1;
nodes = (
"115 0 OFFCURVE",
"127 14 OFFCURVE",
"149 14 CURVE SMOOTH",
"169 14 OFFCURVE",
"193 0 OFFCURVE",
"209 0 CURVE SMOOTH",
"219 0 OFFCURVE",
"236 4 OFFCURVE",
"262 33 CURVE SMOOTH",
"271 43 OFFCURVE",
"272 47 OFFCURVE",
"272 51 CURVE SMOOTH",
"272 54 OFFCURVE",
"270 56 OFFCURVE",
"267 56 CURVE SMOOTH",
"261 56 OFFCURVE",
"251 47 OFFCURVE",
"234 47 CURVE SMOOTH",
"222 47 OFFCURVE",
"214 50 OFFCURVE",
"202 54 CURVE",
"202 55 LINE",
"210 63 OFFCURVE",
"216 75 OFFCURVE",
"219 89 CURVE SMOOTH",
"243 218 LINE SMOOTH",
"262 321 OFFCURVE",
"343 491 OFFCURVE",
"415 491 CURVE SMOOTH",
"426 491 OFFCURVE",
"433 487 OFFCURVE",
"441 478 CURVE SMOOTH",
"444 475 OFFCURVE",
"487 534 OFFCURVE",
"487 546 CURVE SMOOTH",
"487 554 OFFCURVE",
"469 568 OFFCURVE",
"443 568 CURVE SMOOTH",
"361 568 OFFCURVE",
"279 424 OFFCURVE",
"239 310 CURVE",
"238 310 LINE",
"230 414 OFFCURVE",
"203 568 OFFCURVE",
"125 568 CURVE SMOOTH",
"80 568 OFFCURVE",
"46 517 OFFCURVE",
"46 469 CURVE SMOOTH",
"46 462 OFFCURVE",
"48 458 OFFCURVE",
"52 458 CURVE SMOOTH",
"56 458 OFFCURVE",
"58 462 OFFCURVE",
"65 474 CURVE SMOOTH",
"78 497 OFFCURVE",
"92 507 OFFCURVE",
"107 507 CURVE SMOOTH",
"170 507 OFFCURVE",
"197 289 OFFCURVE",
"181 206 CURVE SMOOTH",
"169 142 LINE SMOOTH",
"153 59 OFFCURVE",
"150 68 OFFCURVE",
"122 41 CURVE SMOOTH",
"107 26 OFFCURVE",
"104 18 OFFCURVE",
"104 9 CURVE SMOOTH",
"104 3 OFFCURVE",
"105 0 OFFCURVE",
"108 0 CURVE SMOOTH"
);
}
);
width = 453;
}
);
leftKerningGroup = Y;
note = Y;
rightKerningGroup = Y;
unicode = 0059;
},
{
glyphname = Z;
lastChange = "2018-07-04 16:41:14 +0000";
layers = (
{
anchors = (
{
name = bottom;
position = "{172, 0}";
},
{
name = top;
position = "{274, 560}";
}
);
background = {
paths = (
{
closed = 1;
nodes = (
"26 0 OFFCURVE",
"56 46 OFFCURVE",
"114 46 CURVE SMOOTH",
"172 46 OFFCURVE",
"227 0 OFFCURVE",
"282 0 CURVE SMOOTH",
"338 0 OFFCURVE",
"392 46 OFFCURVE",
"392 118 CURVE SMOOTH",
"392 134 OFFCURVE",
"389 143 OFFCURVE",
"382 143 CURVE SMOOTH",
"375 143 OFFCURVE",
"373 137 OFFCURVE",
"368 127 CURVE SMOOTH",
"354 98 OFFCURVE",
"331 85 OFFCURVE",
"300 85 CURVE SMOOTH",
"248 85 OFFCURVE",
"207 122 OFFCURVE",
"163 122 CURVE SMOOTH",
"152 122 OFFCURVE",
"133 119 OFFCURVE",
"120 113 CURVE",
"119 114 LINE",
"418 487 LINE SMOOTH",
"427 498 OFFCURVE",
"442 518 OFFCURVE",
"442 534 CURVE SMOOTH",
"442 544 OFFCURVE",
"434 563 OFFCURVE",
"426 563 CURVE SMOOTH",
"417 563 OFFCURVE",
"403 534 OFFCURVE",
"350 534 CURVE SMOOTH",
"298 534 OFFCURVE",
"259 560 OFFCURVE",
"199 560 CURVE SMOOTH",
"124 560 OFFCURVE",
"77 521 OFFCURVE",
"66 457 CURVE SMOOTH",
"63 440 OFFCURVE",
"67 430 OFFCURVE",
"74 430 CURVE SMOOTH",
"80 430 OFFCURVE",
"83 438 OFFCURVE",
"92 448 CURVE SMOOTH",
"115 474 OFFCURVE",
"146 488 OFFCURVE",
"187 488 CURVE SMOOTH",
"250 488 OFFCURVE",
"274 460 OFFCURVE",
"322 460 CURVE SMOOTH",
"328 460 LINE",
"94 168 LINE SMOOTH",
"33 92 OFFCURVE",
"14 69 OFFCURVE",
"5 54 CURVE SMOOTH",
"-2 42 OFFCURVE",
"-3 36 OFFCURVE",
"-3 30 CURVE SMOOTH",
"-3 18 OFFCURVE",
"3 0 OFFCURVE",
"14 0 CURVE SMOOTH"
);
}
);
};
layerId = "56450C88-1299-454A-B666-E6F9AF06B23F";
paths = (
{
closed = 1;
nodes = (
"26 0 OFFCURVE",
"56 46 OFFCURVE",
"114 46 CURVE SMOOTH",
"172 46 OFFCURVE",
"227 0 OFFCURVE",
"282 0 CURVE SMOOTH",
"338 0 OFFCURVE",
"392 46 OFFCURVE",
"392 118 CURVE SMOOTH",
"392 134 OFFCURVE",
"389 143 OFFCURVE",
"382 143 CURVE SMOOTH",
"375 143 OFFCURVE",
"373 137 OFFCURVE",
"368 127 CURVE SMOOTH",
"354 98 OFFCURVE",
"331 85 OFFCURVE",
"300 85 CURVE SMOOTH",
"248 85 OFFCURVE",
"207 122 OFFCURVE",
"163 122 CURVE SMOOTH",
"152 122 OFFCURVE",
"133 119 OFFCURVE",
"120 113 CURVE",
"119 114 LINE",
"418 487 LINE SMOOTH",
"427 498 OFFCURVE",
"442 518 OFFCURVE",
"442 534 CURVE SMOOTH",
"442 544 OFFCURVE",
"434 563 OFFCURVE",
"426 563 CURVE SMOOTH",
"417 563 OFFCURVE",
"403 534 OFFCURVE",
"350 534 CURVE SMOOTH",
"298 534 OFFCURVE",
"259 560 OFFCURVE",
"199 560 CURVE SMOOTH",
"124 560 OFFCURVE",
"77 521 OFFCURVE",
"66 457 CURVE SMOOTH",
"63 440 OFFCURVE",
"67 430 OFFCURVE",
"74 430 CURVE SMOOTH",
"80 430 OFFCURVE",
"83 438 OFFCURVE",
"92 448 CURVE SMOOTH",
"115 474 OFFCURVE",
"146 488 OFFCURVE",
"187 488 CURVE SMOOTH",
"250 488 OFFCURVE",
"274 460 OFFCURVE",
"322 460 CURVE SMOOTH",
"328 460 LINE",
"94 168 LINE SMOOTH",
"33 92 OFFCURVE",
"14 69 OFFCURVE",
"5 54 CURVE SMOOTH",
"-2 42 OFFCURVE",
"-3 36 OFFCURVE",
"-3 30 CURVE SMOOTH",
"-3 18 OFFCURVE",
"3 0 OFFCURVE",
"14 0 CURVE SMOOTH"
);
}
);
width = 434;
},
{
anchors = (
{
name = bottom;
position = "{178, 0}";
},
{
name = top;
position = "{288, 560}";
}
);
background = {
anchors = (
{
name = bottom;
position = "{178, 0}";
},
{
name = top;
position = "{288, 560}";
}
);
paths = (
{
closed = 1;
nodes = (
"25 0 OFFCURVE",
"48 46 OFFCURVE",
"102 46 CURVE SMOOTH",
"155 46 OFFCURVE",
"217 0 OFFCURVE",
"273 0 CURVE SMOOTH",
"317 0 OFFCURVE",
"373 42 OFFCURVE",
"373 101 CURVE SMOOTH",
"373 112 OFFCURVE",
"369 121 OFFCURVE",
"365 121 CURVE SMOOTH",
"361 121 OFFCURVE",
"360 116 OFFCURVE",
"357 110 CURVE SMOOTH",
"342 81 OFFCURVE",
"319 67 OFFCURVE",
"284 67 CURVE SMOOTH",
"238 67 OFFCURVE",
"173 110 OFFCURVE",
"133 110 CURVE SMOOTH",
"120 110 OFFCURVE",
"106 107 OFFCURVE",
"99 103 CURVE",
"98 104 LINE",
"401 501 LINE",
"408 510 OFFCURVE",
"423 529 OFFCURVE",
"423 542 CURVE SMOOTH",
"423 552 OFFCURVE",
"419 562 OFFCURVE",
"413 562 CURVE SMOOTH",
"406 562 OFFCURVE",
"395 534 OFFCURVE",
"349 534 CURVE SMOOTH",
"292 534 OFFCURVE",
"249 560 OFFCURVE",
"192 560 CURVE SMOOTH",
"124 560 OFFCURVE",
"80 513 OFFCURVE",
"73 455 CURVE SMOOTH",
"72 447 OFFCURVE",
"75 444 OFFCURVE",
"78 444 CURVE SMOOTH",
"85 444 OFFCURVE",
"92 458 OFFCURVE",
"106 469 CURVE SMOOTH",
"128 486 OFFCURVE",
"153 494 OFFCURVE",
"184 494 CURVE SMOOTH",
"218 494 OFFCURVE",
"278 469 OFFCURVE",
"329 469 CURVE SMOOTH",
"334 469 LINE",
"93 156 LINE SMOOTH",
"32 77 OFFCURVE",
"20 52 OFFCURVE",
"10 38 CURVE SMOOTH",
"7 33 OFFCURVE",
"4 26 OFFCURVE",
"4 19 CURVE SMOOTH",
"4 10 OFFCURVE",
"11 0 OFFCURVE",
"17 0 CURVE SMOOTH"
);
}
);
};
layerId = "0B1DFD06-3317-40CA-B510-4969A0718C16";
paths = (
{
closed = 1;
nodes = (
"25 0 OFFCURVE",
"48 46 OFFCURVE",
"102 46 CURVE SMOOTH",
"155 46 OFFCURVE",
"217 0 OFFCURVE",
"273 0 CURVE SMOOTH",
"317 0 OFFCURVE",
"373 42 OFFCURVE",
"373 101 CURVE SMOOTH",
"373 112 OFFCURVE",
"369 121 OFFCURVE",
"365 121 CURVE SMOOTH",
"361 121 OFFCURVE",
"360 116 OFFCURVE",
"357 110 CURVE SMOOTH",
"342 81 OFFCURVE",
"319 67 OFFCURVE",
"284 67 CURVE SMOOTH",
"238 67 OFFCURVE",
"173 110 OFFCURVE",
"133 110 CURVE SMOOTH",
"120 110 OFFCURVE",
"106 107 OFFCURVE",
"99 103 CURVE",
"98 104 LINE",
"401 501 LINE",
"408 510 OFFCURVE",
"423 529 OFFCURVE",
"423 542 CURVE SMOOTH",
"423 552 OFFCURVE",
"419 562 OFFCURVE",
"413 562 CURVE SMOOTH",
"406 562 OFFCURVE",
"395 534 OFFCURVE",
"349 534 CURVE SMOOTH",
"292 534 OFFCURVE",
"249 560 OFFCURVE",
"192 560 CURVE SMOOTH",
"124 560 OFFCURVE",
"80 513 OFFCURVE",
"73 455 CURVE SMOOTH",
"72 447 OFFCURVE",
"75 444 OFFCURVE",
"78 444 CURVE SMOOTH",
"85 444 OFFCURVE",
"92 458 OFFCURVE",
"106 469 CURVE SMOOTH",
"128 486 OFFCURVE",
"153 494 OFFCURVE",
"184 494 CURVE SMOOTH",
"218 494 OFFCURVE",
"278 469 OFFCURVE",
"329 469 CURVE SMOOTH",
"334 469 LINE",
"93 156 LINE SMOOTH",
"32 77 OFFCURVE",
"20 52 OFFCURVE",
"10 38 CURVE SMOOTH",
"7 33 OFFCURVE",
"4 26 OFFCURVE",
"4 19 CURVE SMOOTH",
"4 10 OFFCURVE",
"11 0 OFFCURVE",
"17 0 CURVE SMOOTH"
);
}
);
width = 423;
}
);
leftKerningGroup = Z;
note = Z;
rightKerningGroup = Z;
unicode = 005A;
},
{
glyphname = a;
lastChange = "2018-07-04 16:52:07 +0000";
layers = (
{
anchors = (
{
name = bottom;
position = "{160, 0}";
},
{
name = ogonek;
position = "{277, 8}";
},
{
name = top;
position = "{255, 376}";
}
);
background = {
anchors = (
{
name = bottom;
position = "{160, 0}";
},
{
name = ogonek;
position = "{277, 8}";
},
{
name = top;
position = "{255, 376}";
}
);
paths = (
{
closed = 1;
nodes = (
"104 -8 OFFCURVE",
"160 35 OFFCURVE",
"201 95 CURVE",
"202 95 LINE",
"198 68 LINE SMOOTH",
"192 25 OFFCURVE",
"206 -8 OFFCURVE",
"241 -8 CURVE SMOOTH",
"294 -8 OFFCURVE",
"346 60 OFFCURVE",
"354 122 CURVE SMOOTH",
"356 139 OFFCURVE",
"352 142 OFFCURVE",
"347 142 CURVE SMOOTH",
"342 142 OFFCURVE",
"340 138 OFFCURVE",
"337 131 CURVE SMOOTH",
"322 96 OFFCURVE",
"307 68 OFFCURVE",
"288 68 CURVE SMOOTH",
"274 68 OFFCURVE",
"274 83 OFFCURVE",
"281 122 CURVE SMOOTH",
"291 178 OFFCURVE",
"316 311 OFFCURVE",
"318 323 CURVE SMOOTH",
"322 340 OFFCURVE",
"323 346 OFFCURVE",
"331 367 CURVE",
"314 377 OFFCURVE",
"285 384 OFFCURVE",
"256 384 CURVE SMOOTH",
"118 384 OFFCURVE",
"13 215 OFFCURVE",
"13 84 CURVE SMOOTH",
"13 28 OFFCURVE",
"32 -8 OFFCURVE",
"66 -8 CURVE SMOOTH"
);
},
{
closed = 1;
nodes = (
"102 72 OFFCURVE",
"99 79 OFFCURVE",
"99 105 CURVE SMOOTH",
"99 212 OFFCURVE",
"157 322 OFFCURVE",
"210 322 CURVE SMOOTH",
"220 322 OFFCURVE",
"234 318 OFFCURVE",
"247 310 CURVE",
"242 278 LINE SMOOTH",
"224 178 OFFCURVE",
"147 72 OFFCURVE",
"112 72 CURVE SMOOTH"
);
}
);
};
layerId = "56450C88-1299-454A-B666-E6F9AF06B23F";
paths = (
{
closed = 1;
nodes = (
"104 -8 OFFCURVE",
"160 35 OFFCURVE",
"201 95 CURVE",
"202 95 LINE",
"198 68 LINE SMOOTH",
"192 25 OFFCURVE",
"206 -8 OFFCURVE",
"241 -8 CURVE SMOOTH",
"294 -8 OFFCURVE",
"346 60 OFFCURVE",
"354 122 CURVE SMOOTH",
"356 139 OFFCURVE",
"352 142 OFFCURVE",
"347 142 CURVE SMOOTH",
"342 142 OFFCURVE",
"340 138 OFFCURVE",
"337 131 CURVE SMOOTH",
"322 96 OFFCURVE",
"307 68 OFFCURVE",
"288 68 CURVE SMOOTH",
"274 68 OFFCURVE",
"274 83 OFFCURVE",
"281 122 CURVE SMOOTH",
"291 178 OFFCURVE",
"316 311 OFFCURVE",
"318 323 CURVE SMOOTH",
"322 340 OFFCURVE",
"323 346 OFFCURVE",
"331 367 CURVE",
"314 377 OFFCURVE",
"285 384 OFFCURVE",
"256 384 CURVE SMOOTH",
"118 384 OFFCURVE",
"13 215 OFFCURVE",
"13 84 CURVE SMOOTH",
"13 28 OFFCURVE",
"32 -8 OFFCURVE",
"66 -8 CURVE SMOOTH"
);
},
{
closed = 1;
nodes = (
"102 72 OFFCURVE",
"99 79 OFFCURVE",
"99 105 CURVE SMOOTH",
"99 212 OFFCURVE",
"157 322 OFFCURVE",
"210 322 CURVE SMOOTH",
"220 322 OFFCURVE",
"234 318 OFFCURVE",
"247 310 CURVE",
"242 278 LINE SMOOTH",
"224 178 OFFCURVE",
"147 72 OFFCURVE",
"112 72 CURVE SMOOTH"
);
}
);
width = 381;
},
{
anchors = (
{
name = bottom;
position = "{143, 0}";
},
{
name = ogonek;
position = "{262, 11}";
},
{
name = top;
position = "{254, 376}";
}
);
background = {
anchors = (
{
name = bottom;
position = "{142, 0}";
},
{
name = ogonek;
position = "{261, 11}";
},
{
name = top;
position = "{253, 376}";
}
);
paths = (
{
closed = 1;
nodes = (
"104 -8 OFFCURVE",
"168 53 OFFCURVE",
"220 144 CURVE",
"221 144 LINE",
"207 74 LINE SMOOTH",
"201 42 OFFCURVE",
"198 -8 OFFCURVE",
"231 -8 CURVE SMOOTH",
"266 -8 OFFCURVE",
"319 46 OFFCURVE",
"331 102 CURVE SMOOTH",
"334 116 OFFCURVE",
"333 124 OFFCURVE",
"328 124 CURVE SMOOTH",
"324 124 OFFCURVE",
"322 119 OFFCURVE",
"320 115 CURVE SMOOTH",
"308 89 OFFCURVE",
"290 52 OFFCURVE",
"270 52 CURVE SMOOTH",
"260 52 OFFCURVE",
"257 61 OFFCURVE",
"260 83 CURVE SMOOTH",
"265 122 OFFCURVE",
"294 260 OFFCURVE",
"305 313 CURVE SMOOTH",
"310 339 OFFCURVE",
"314 354 OFFCURVE",
"319 373 CURVE",
"302 381 OFFCURVE",
"280 384 OFFCURVE",
"262 384 CURVE SMOOTH",
"127 384 OFFCURVE",
"21 219 OFFCURVE",
"21 70 CURVE SMOOTH",
"21 19 OFFCURVE",
"34 -8 OFFCURVE",
"62 -8 CURVE SMOOTH"
);
},
{
closed = 1;
nodes = (
"84 58 OFFCURVE",
"80 73 OFFCURVE",
"80 98 CURVE SMOOTH",
"80 186 OFFCURVE",
"130 338 OFFCURVE",
"204 338 CURVE SMOOTH",
"218 338 OFFCURVE",
"238 333 OFFCURVE",
"255 322 CURVE",
"242 270 LINE SMOOTH",
"222 190 OFFCURVE",
"147 58 OFFCURVE",
"100 58 CURVE SMOOTH"
);
}
);
};
layerId = "0B1DFD06-3317-40CA-B510-4969A0718C16";
paths = (
{
closed = 1;
nodes = (
"105 -8 OFFCURVE",
"169 53 OFFCURVE",
"221 144 CURVE",
"222 144 LINE",
"208 74 LINE SMOOTH",
"202 42 OFFCURVE",
"199 -8 OFFCURVE",
"232 -8 CURVE SMOOTH",
"267 -8 OFFCURVE",
"320 46 OFFCURVE",
"332 102 CURVE SMOOTH",
"335 116 OFFCURVE",
"334 124 OFFCURVE",
"329 124 CURVE SMOOTH",
"325 124 OFFCURVE",
"323 119 OFFCURVE",
"321 115 CURVE SMOOTH",
"308 89 OFFCURVE",
"291 52 OFFCURVE",
"271 52 CURVE SMOOTH",
"261 52 OFFCURVE",
"258 61 OFFCURVE",
"261 83 CURVE SMOOTH",
"266 122 OFFCURVE",
"296 260 OFFCURVE",
"306 313 CURVE SMOOTH",
"311 339 OFFCURVE",
"315 354 OFFCURVE",
"320 373 CURVE",
"303 381 OFFCURVE",
"281 384 OFFCURVE",
"263 384 CURVE SMOOTH",
"128 384 OFFCURVE",
"22 219 OFFCURVE",
"22 70 CURVE SMOOTH",
"22 19 OFFCURVE",
"35 -8 OFFCURVE",
"63 -8 CURVE SMOOTH"
);
},
{
closed = 1;
nodes = (
"85 58 OFFCURVE",
"81 73 OFFCURVE",
"81 98 CURVE SMOOTH",
"81 186 OFFCURVE",
"131 338 OFFCURVE",
"205 338 CURVE SMOOTH",
"219 338 OFFCURVE",
"239 333 OFFCURVE",
"256 322 CURVE",
"243 270 LINE SMOOTH",
"223 190 OFFCURVE",
"148 58 OFFCURVE",
"101 58 CURVE SMOOTH"
);
}
);
width = 366;
}
);
leftKerningGroup = a;
note = a;
rightKerningGroup = a;
unicode = 0061;
},
{
glyphname = b;
lastChange = "2018-07-04 16:55:37 +0000";
layers = (
{
anchors = (
{
name = bottom;
position = "{138, 0}";
},
{
name = top;
position = "{244, 707}";
}
);
background = {
anchors = (
{
name = bottom;
position = "{138, 0}";
},
{
name = top;
position = "{244, 707}";
}
);
paths = (
{
closed = 1;
nodes = (
"239 -8 OFFCURVE",
"334 122 OFFCURVE",
"336 277 CURVE SMOOTH",
"337 350 OFFCURVE",
"316 384 OFFCURVE",
"278 384 CURVE SMOOTH",
"236 384 OFFCURVE",
"186 342 OFFCURVE",
"148 279 CURVE",
"147 279 LINE",
"156 344 LINE SMOOTH",
"177 498 OFFCURVE",
"194 562 OFFCURVE",
"221 602 CURVE SMOOTH",
"246 640 OFFCURVE",
"277 648 OFFCURVE",
"302 650 CURVE SMOOTH",
"319 650 OFFCURVE",
"330 653 OFFCURVE",
"341 662 CURVE SMOOTH",
"352 673 OFFCURVE",
"362 689 OFFCURVE",
"362 698 CURVE SMOOTH",
"362 704 OFFCURVE",
"360 707 OFFCURVE",
"355 707 CURVE SMOOTH",
"350 707 OFFCURVE",
"350 705 OFFCURVE",
"311 699 CURVE SMOOTH",
"278 694 OFFCURVE",
"228 686 OFFCURVE",
"185 642 CURVE SMOOTH",
"132 587 OFFCURVE",
"105 494 OFFCURVE",
"84 369 CURVE SMOOTH",
"34 66 LINE SMOOTH",
"30 42 OFFCURVE",
"27 27 OFFCURVE",
"18 -4 CURVE",
"19 -4 LINE",
"27 -2 OFFCURVE",
"38 0 OFFCURVE",
"50 0 CURVE SMOOTH",
"77 0 OFFCURVE",
"85 -8 OFFCURVE",
"115 -8 CURVE SMOOTH"
);
},
{
closed = 1;
nodes = (
"140 55 OFFCURVE",
"125 59 OFFCURVE",
"112 68 CURVE",
"117 102 LINE SMOOTH",
"130 202 OFFCURVE",
"196 301 OFFCURVE",
"232 301 CURVE SMOOTH",
"247 301 OFFCURVE",
"251 282 OFFCURVE",
"251 250 CURVE SMOOTH",
"251 148 OFFCURVE",
"213 55 OFFCURVE",
"153 55 CURVE SMOOTH"
);
}
);
};
layerId = "56450C88-1299-454A-B666-E6F9AF06B23F";
paths = (
{
closed = 1;
nodes = (
"239 -8 OFFCURVE",
"334 122 OFFCURVE",
"336 277 CURVE SMOOTH",
"337 350 OFFCURVE",
"316 384 OFFCURVE",
"278 384 CURVE SMOOTH",
"236 384 OFFCURVE",
"186 342 OFFCURVE",
"148 279 CURVE",
"147 279 LINE",
"156 344 LINE SMOOTH",
"177 498 OFFCURVE",
"194 562 OFFCURVE",
"221 602 CURVE SMOOTH",
"246 640 OFFCURVE",
"277 648 OFFCURVE",
"302 650 CURVE SMOOTH",
"319 650 OFFCURVE",
"330 653 OFFCURVE",
"341 662 CURVE SMOOTH",
"352 673 OFFCURVE",
"362 689 OFFCURVE",
"362 698 CURVE SMOOTH",
"362 704 OFFCURVE",
"360 707 OFFCURVE",
"355 707 CURVE SMOOTH",
"350 707 OFFCURVE",
"350 705 OFFCURVE",
"311 699 CURVE SMOOTH",
"278 694 OFFCURVE",
"228 686 OFFCURVE",
"185 642 CURVE SMOOTH",
"132 587 OFFCURVE",
"105 494 OFFCURVE",
"84 369 CURVE SMOOTH",
"34 66 LINE SMOOTH",
"30 42 OFFCURVE",
"27 27 OFFCURVE",
"18 -4 CURVE",
"19 -4 LINE",
"27 -2 OFFCURVE",
"38 0 OFFCURVE",
"50 0 CURVE SMOOTH",
"77 0 OFFCURVE",
"85 -8 OFFCURVE",
"115 -8 CURVE SMOOTH"
);
},
{
closed = 1;
nodes = (
"140 55 OFFCURVE",
"125 59 OFFCURVE",
"112 68 CURVE",
"117 102 LINE SMOOTH",
"130 202 OFFCURVE",
"196 301 OFFCURVE",
"232 301 CURVE SMOOTH",
"247 301 OFFCURVE",
"251 282 OFFCURVE",
"251 250 CURVE SMOOTH",
"251 148 OFFCURVE",
"213 55 OFFCURVE",
"153 55 CURVE SMOOTH"
);
}
);
width = 350;
},
{
anchors = (
{
name = bottom;
position = "{120, 0}";
},
{
name = top;
position = "{282, 706}";
}
);
background = {
anchors = (
{
name = bottom;
position = "{120, 0}";
},
{
name = top;
position = "{282, 706}";
}
);
paths = (
{
closed = 1;
nodes = (
"202 -8 OFFCURVE",
"306 126 OFFCURVE",
"314 286 CURVE SMOOTH",
"318 353 OFFCURVE",
"302 384 OFFCURVE",
"273 384 CURVE SMOOTH",
"228 384 OFFCURVE",
"162 308 OFFCURVE",
"126 242 CURVE",
"125 242 LINE",
"144 361 LINE SMOOTH",
"166 496 OFFCURVE",
"184 566 OFFCURVE",
"218 615 CURVE SMOOTH",
"240 646 OFFCURVE",
"258 655 OFFCURVE",
"290 659 CURVE SMOOTH",
"302 661 OFFCURVE",
"313 662 OFFCURVE",
"327 673 CURVE SMOOTH",
"338 682 OFFCURVE",
"342 691 OFFCURVE",
"342 697 CURVE SMOOTH",
"342 701 OFFCURVE",
"341 703 OFFCURVE",
"337 703 CURVE SMOOTH",
"331 703 OFFCURVE",
"325 698 OFFCURVE",
"304 694 CURVE SMOOTH",
"264 687 OFFCURVE",
"239 682 OFFCURVE",
"204 650 CURVE SMOOTH",
"147 596 OFFCURVE",
"114 503 OFFCURVE",
"90 355 CURVE SMOOTH",
"42 66 LINE SMOOTH",
"39 45 OFFCURVE",
"36 26 OFFCURVE",
"26 -3 CURVE",
"27 -3 LINE SMOOTH",
"30 -3 OFFCURVE",
"35 -2 OFFCURVE",
"44 -2 CURVE SMOOTH",
"62 -2 OFFCURVE",
"76 -8 OFFCURVE",
"98 -8 CURVE SMOOTH"
);
},
{
closed = 1;
nodes = (
"131 40 OFFCURVE",
"113 42 OFFCURVE",
"94 55 CURVE",
"102 105 LINE SMOOTH",
"119 206 OFFCURVE",
"196 318 OFFCURVE",
"236 318 CURVE SMOOTH",
"250 318 OFFCURVE",
"255 306 OFFCURVE",
"255 270 CURVE SMOOTH",
"255 177 OFFCURVE",
"214 40 OFFCURVE",
"141 40 CURVE SMOOTH"
);
}
);
};
layerId = "0B1DFD06-3317-40CA-B510-4969A0718C16";
paths = (
{
closed = 1;
nodes = (
"202 -8 OFFCURVE",
"306 126 OFFCURVE",
"314 286 CURVE SMOOTH",
"318 353 OFFCURVE",
"302 384 OFFCURVE",
"273 384 CURVE SMOOTH",
"228 384 OFFCURVE",
"162 308 OFFCURVE",
"126 242 CURVE",
"125 242 LINE",
"144 361 LINE SMOOTH",
"166 496 OFFCURVE",
"184 566 OFFCURVE",
"218 615 CURVE SMOOTH",
"240 646 OFFCURVE",
"258 655 OFFCURVE",
"290 659 CURVE SMOOTH",
"302 661 OFFCURVE",
"313 662 OFFCURVE",
"327 673 CURVE SMOOTH",
"338 682 OFFCURVE",
"342 691 OFFCURVE",
"342 697 CURVE SMOOTH",
"342 701 OFFCURVE",
"341 703 OFFCURVE",
"337 703 CURVE SMOOTH",
"331 703 OFFCURVE",
"325 698 OFFCURVE",
"304 694 CURVE SMOOTH",
"264 687 OFFCURVE",
"239 682 OFFCURVE",
"204 650 CURVE SMOOTH",
"147 596 OFFCURVE",
"114 503 OFFCURVE",
"90 355 CURVE SMOOTH",
"42 66 LINE SMOOTH",
"39 45 OFFCURVE",
"36 26 OFFCURVE",
"26 -3 CURVE",
"27 -3 LINE SMOOTH",
"30 -3 OFFCURVE",
"35 -2 OFFCURVE",
"44 -2 CURVE SMOOTH",
"62 -2 OFFCURVE",
"76 -8 OFFCURVE",
"98 -8 CURVE SMOOTH"
);
},
{
closed = 1;
nodes = (
"131 40 OFFCURVE",
"113 42 OFFCURVE",
"94 55 CURVE",
"102 105 LINE SMOOTH",
"119 206 OFFCURVE",
"196 318 OFFCURVE",
"236 318 CURVE SMOOTH",
"250 318 OFFCURVE",
"255 306 OFFCURVE",
"255 270 CURVE SMOOTH",
"255 177 OFFCURVE",
"214 40 OFFCURVE",
"141 40 CURVE SMOOTH"
);
}
);
width = 340;
}
);
note = b;
rightKerningGroup = b;
unicode = 0062;
},
{
glyphname = c;
lastChange = "2018-07-04 17:01:00 +0000";
layers = (
{
anchors = (
{
name = bottom;
position = "{106, 0}";
},
{
name = top;
position = "{216, 376}";
}
);
background = {
anchors = (
{
name = bottom;
position = "{106, 0}";
},
{
name = top;
position = "{216, 376}";
}
);
paths = (
{
closed = 1;
nodes = (
"172 -8 OFFCURVE",
"246 75 OFFCURVE",
"246 130 CURVE SMOOTH",
"246 139 OFFCURVE",
"244 144 OFFCURVE",
"238 144 CURVE SMOOTH",
"232 144 OFFCURVE",
"230 141 OFFCURVE",
"224 130 CURVE SMOOTH",
"202 90 OFFCURVE",
"178 70 OFFCURVE",
"148 70 CURVE SMOOTH",
"114 70 OFFCURVE",
"99 94 OFFCURVE",
"99 153 CURVE SMOOTH",
"99 251 OFFCURVE",
"142 325 OFFCURVE",
"203 325 CURVE SMOOTH",
"222 325 OFFCURVE",
"238 318 OFFCURVE",
"252 303 CURVE SMOOTH",
"255 300 OFFCURVE",
"258 298 OFFCURVE",
"262 298 CURVE SMOOTH",
"267 298 OFFCURVE",
"271 301 OFFCURVE",
"276 310 CURVE SMOOTH",
"284 324 OFFCURVE",
"289 339 OFFCURVE",
"289 347 CURVE SMOOTH",
"289 370 OFFCURVE",
"266 384 OFFCURVE",
"233 384 CURVE SMOOTH",
"121 384 OFFCURVE",
"13 226 OFFCURVE",
"13 102 CURVE SMOOTH",
"13 33 OFFCURVE",
"46 -8 OFFCURVE",
"98 -8 CURVE SMOOTH"
);
}
);
};
layerId = "56450C88-1299-454A-B666-E6F9AF06B23F";
paths = (
{
closed = 1;
nodes = (
"172 -8 OFFCURVE",
"246 75 OFFCURVE",
"246 130 CURVE SMOOTH",
"246 139 OFFCURVE",
"244 144 OFFCURVE",
"238 144 CURVE SMOOTH",
"232 144 OFFCURVE",
"230 141 OFFCURVE",
"224 130 CURVE SMOOTH",
"202 90 OFFCURVE",
"178 70 OFFCURVE",
"148 70 CURVE SMOOTH",
"114 70 OFFCURVE",
"99 94 OFFCURVE",
"99 153 CURVE SMOOTH",
"99 251 OFFCURVE",
"142 325 OFFCURVE",
"203 325 CURVE SMOOTH",
"222 325 OFFCURVE",
"238 318 OFFCURVE",
"252 303 CURVE SMOOTH",
"255 300 OFFCURVE",
"258 298 OFFCURVE",
"262 298 CURVE SMOOTH",
"267 298 OFFCURVE",
"271 301 OFFCURVE",
"276 310 CURVE SMOOTH",
"284 324 OFFCURVE",
"289 339 OFFCURVE",
"289 347 CURVE SMOOTH",
"289 370 OFFCURVE",
"266 384 OFFCURVE",
"233 384 CURVE SMOOTH",
"121 384 OFFCURVE",
"13 226 OFFCURVE",
"13 102 CURVE SMOOTH",
"13 33 OFFCURVE",
"46 -8 OFFCURVE",
"98 -8 CURVE SMOOTH"
);
}
);
width = 294;
},
{
anchors = (
{
name = bottom;
position = "{83, 0}";
},
{
name = top;
position = "{223, 376}";
}
);
background = {
anchors = (
{
name = bottom;
position = "{83, 0}";
},
{
name = top;
position = "{223, 376}";
}
);
paths = (
{
closed = 1;
nodes = (
"154 -8 OFFCURVE",
"229 79 OFFCURVE",
"229 125 CURVE SMOOTH",
"229 131 OFFCURVE",
"227 135 OFFCURVE",
"223 135 CURVE SMOOTH",
"217 135 OFFCURVE",
"215 129 OFFCURVE",
"210 121 CURVE SMOOTH",
"195 95 OFFCURVE",
"170 54 OFFCURVE",
"131 54 CURVE SMOOTH",
"96 54 OFFCURVE",
"81 87 OFFCURVE",
"81 144 CURVE SMOOTH",
"81 250 OFFCURVE",
"135 341 OFFCURVE",
"201 341 CURVE SMOOTH",
"219 341 OFFCURVE",
"233 334 OFFCURVE",
"245 318 CURVE SMOOTH",
"247 315 OFFCURVE",
"249 314 OFFCURVE",
"251 314 CURVE SMOOTH",
"255 314 OFFCURVE",
"258 318 OFFCURVE",
"261 323 CURVE SMOOTH",
"267 333 OFFCURVE",
"271 343 OFFCURVE",
"271 353 CURVE SMOOTH",
"271 371 OFFCURVE",
"253 384 OFFCURVE",
"224 384 CURVE SMOOTH",
"120 384 OFFCURVE",
"22 220 OFFCURVE",
"22 97 CURVE SMOOTH",
"22 47 OFFCURVE",
"40 -8 OFFCURVE",
"90 -8 CURVE SMOOTH"
);
}
);
};
layerId = "0B1DFD06-3317-40CA-B510-4969A0718C16";
paths = (
{
closed = 1;
nodes = (
"154 -8 OFFCURVE",
"229 79 OFFCURVE",
"229 125 CURVE SMOOTH",
"229 131 OFFCURVE",
"227 135 OFFCURVE",
"223 135 CURVE SMOOTH",
"217 135 OFFCURVE",
"215 129 OFFCURVE",
"210 121 CURVE SMOOTH",
"195 95 OFFCURVE",
"170 54 OFFCURVE",
"131 54 CURVE SMOOTH",
"96 54 OFFCURVE",
"81 87 OFFCURVE",
"81 144 CURVE SMOOTH",
"81 250 OFFCURVE",
"135 341 OFFCURVE",
"201 341 CURVE SMOOTH",
"219 341 OFFCURVE",
"233 334 OFFCURVE",
"245 318 CURVE SMOOTH",
"247 315 OFFCURVE",
"249 314 OFFCURVE",
"251 314 CURVE SMOOTH",
"255 314 OFFCURVE",
"258 318 OFFCURVE",
"261 323 CURVE SMOOTH",
"267 333 OFFCURVE",
"271 343 OFFCURVE",
"271 353 CURVE SMOOTH",
"271 371 OFFCURVE",
"253 384 OFFCURVE",
"224 384 CURVE SMOOTH",
"120 384 OFFCURVE",
"22 220 OFFCURVE",
"22 97 CURVE SMOOTH",
"22 47 OFFCURVE",
"40 -8 OFFCURVE",
"90 -8 CURVE SMOOTH"
);
}
);
width = 285;
}
);
note = c;
rightKerningGroup = c;
unicode = 0063;
},
